<svg width="600" height="371" aria-label="A chart." style="overflow: hidden;"><defs id="defs"><clipPath id="_ABSTRACT_RENDERER_ID_157"><rect x="115" y="71" width="371" height="229"></rect></clipPath></defs><rect x="0" y="0" width="600" height="371" stroke="none" stroke-width="0" fill="#ffffff"></rect><g><g><text text-anchor="start" x="115" y="31.6" font-family="Arial" font-size="16" font-weight="bold" stroke="#ffffff" stroke-width="3" fill="#000000" aria-hidden="true">avrora</text><text text-anchor="start" x="115" y="31.6" font-family="Arial" font-size="16" font-weight="bold" stroke="none" stroke-width="0" fill="#000000">avrora</text></g></g><g><rect x="115" y="41" width="361" height="12" stroke="none" stroke-width="0" fill-opacity="0" fill="#ffffff"></rect><g><rect x="115" y="41" width="75" height="12" stroke="none" stroke-width="0" fill-opacity="0" fill="#ffffff"></rect><g><text text-anchor="start" x="132" y="51.2" font-family="Arial" font-size="12" stroke="none" stroke-width="0" fill="#222222">app-to-app</text></g><rect x="115" y="41" width="12" height="12" stroke="none" stroke-width="0" fill="#6d9eeb"></rect></g><g><rect x="209" y="41" width="67" height="12" stroke="none" stroke-width="0" fill-opacity="0" fill="#ffffff"></rect><g><text text-anchor="start" x="226" y="51.2" font-family="Arial" font-size="12" stroke="none" stroke-width="0" fill="#222222">app-to-lib</text></g><rect x="209" y="41" width="12" height="12" stroke="none" stroke-width="0" fill="#ea9999"></rect></g><g><rect x="295" y="41" width="39" height="12" stroke="none" stroke-width="0" fill-opacity="0" fill="#ffffff"></rect><g><text text-anchor="start" x="312" y="51.2" font-family="Arial" font-size="12" stroke="none" stroke-width="0" fill="#222222">time</text></g><rect x="295" y="41" width="12" height="12" stroke="none" stroke-width="0" fill="#980000"></rect></g></g><g><rect x="115" y="71" width="371" height="229" stroke="none" stroke-width="0" fill-opacity="0" fill="#ffffff"></rect><g clip-path="url(#_ABSTRACT_RENDERER_ID_157)"><g><rect x="115" y="299" width="371" height="1" stroke="none" stroke-width="0" fill="#cccccc"></rect><rect x="115" y="242" width="371" height="1" stroke="none" stroke-width="0" fill="#cccccc"></rect><rect x="115" y="185" width="371" height="1" stroke="none" stroke-width="0" fill="#cccccc"></rect><rect x="115" y="128" width="371" height="1" stroke="none" stroke-width="0" fill="#cccccc"></rect><rect x="115" y="71" width="371" height="1" stroke="none" stroke-width="0" fill="#cccccc"></rect><rect x="115" y="299" width="371" height="1" stroke="none" stroke-width="0" fill="#cccccc"></rect><rect x="115" y="242" width="371" height="1" stroke="none" stroke-width="0" fill="#cccccc"></rect><rect x="115" y="185" width="371" height="1" stroke="none" stroke-width="0" fill="#cccccc"></rect><rect x="115" y="128" width="371" height="1" stroke="none" stroke-width="0" fill="#cccccc"></rect><rect x="115" y="71" width="371" height="1" stroke="none" stroke-width="0" fill="#cccccc"></rect></g><g><g><path d="M152.5,299.5L152.5,100L226.5,100L300.5,100L374.5,100L448.5,100L448.5,299.5Z" stroke="none" stroke-width="0" fill-opacity="0.3" fill="#ea9999"></path></g></g><g><g><rect x="115" y="299.5" width="74" height="0" stroke="none" stroke-width="0" fill-opacity="0.3" fill="#6d9eeb"></rect><path d="M115,299.5L189,299.5" stroke="#6d9eeb" stroke-width="2" fill-opacity="1" fill="none"></path></g><g><rect x="189" y="299.5" width="74" height="0" stroke="none" stroke-width="0" fill-opacity="0.3" fill="#6d9eeb"></rect><path d="M189,299.5L189,299.5L263,299.5" stroke="#6d9eeb" stroke-width="2" fill-opacity="1" fill="none"></path></g><g><rect x="263" y="299.5" width="74" height="0" stroke="none" stroke-width="0" fill-opacity="0.3" fill="#6d9eeb"></rect><path d="M263,299.5L263,299.5L337,299.5" stroke="#6d9eeb" stroke-width="2" fill-opacity="1" fill="none"></path></g><g><rect x="337" y="299.5" width="74" height="0" stroke="none" stroke-width="0" fill-opacity="0.3" fill="#6d9eeb"></rect><path d="M337,299.5L337,299.5L411,299.5" stroke="#6d9eeb" stroke-width="2" fill-opacity="1" fill="none"></path></g><g><rect x="411" y="299.5" width="74" height="0" stroke="none" stroke-width="0" fill-opacity="0.3" fill="#6d9eeb"></rect><path d="M411,299.5L411,299.5L485,299.5" stroke="#6d9eeb" stroke-width="2" fill-opacity="1" fill="none"></path></g></g><g><rect x="130" y="299" width="22" height="0" stroke="none" stroke-width="0" fill="#6d9eeb"></rect><rect x="204" y="299" width="22" height="0" stroke="none" stroke-width="0" fill="#6d9eeb"></rect><rect x="278" y="299" width="22" height="0" stroke="none" stroke-width="0" fill="#6d9eeb"></rect><rect x="352" y="299" width="22" height="0" stroke="none" stroke-width="0" fill="#6d9eeb"></rect><rect x="426" y="299" width="22" height="0" stroke="none" stroke-width="0" fill="#6d9eeb"></rect><rect x="153" y="101" width="22" height="198" stroke="none" stroke-width="0" fill="#ea9999"></rect><rect x="227" y="200" width="22" height="99" stroke="none" stroke-width="0" fill="#ea9999"></rect><rect x="301" y="200" width="22" height="99" stroke="none" stroke-width="0" fill="#ea9999"></rect><rect x="375" y="200" width="22" height="99" stroke="none" stroke-width="0" fill="#ea9999"></rect><rect x="449" y="200" width="22" height="99" stroke="none" stroke-width="0" fill="#ea9999"></rect></g><g><rect x="115" y="299" width="371" height="1" stroke="none" stroke-width="0" fill="#333333"></rect><rect x="115" y="299" width="371" height="1" stroke="none" stroke-width="0" fill="#333333"></rect></g><g><path d="M152.5,100L226.5,100L300.5,100L374.5,100L448.5,100" stroke="#ea9999" stroke-width="2" fill-opacity="1" fill="none"></path><path d="M152.5,256.93354L226.5,295.95346L300.5,278.45218L374.5,73.07548L448.5,264.77902" stroke="#980000" stroke-width="2" fill-opacity="1" fill="none"></path></g><g><rect x="141" y="287" width="1" height="12" stroke="none" stroke-width="0" fill="#999999"></rect><rect x="215" y="287" width="1" height="12" stroke="none" stroke-width="0" fill="#999999"></rect><rect x="289" y="287" width="1" height="12" stroke="none" stroke-width="0" fill="#999999"></rect><rect x="363" y="287" width="1" height="12" stroke="none" stroke-width="0" fill="#999999"></rect><rect x="437" y="287" width="1" height="12" stroke="none" stroke-width="0" fill="#999999"></rect><rect x="164" y="101" width="1" height="0" stroke="none" stroke-width="0" fill="#999999"></rect><rect x="238" y="200" width="1" height="0" stroke="none" stroke-width="0" fill="#999999"></rect><rect x="312" y="200" width="1" height="0" stroke="none" stroke-width="0" fill="#999999"></rect><rect x="386" y="200" width="1" height="0" stroke="none" stroke-width="0" fill="#999999"></rect><rect x="460" y="200" width="1" height="0" stroke="none" stroke-width="0" fill="#999999"></rect><rect x="152.5" y="244.93354" width="1" height="12" stroke="none" stroke-width="0" fill="#999999"></rect><rect x="226.5" y="283.95346" width="1" height="12" stroke="none" stroke-width="0" fill="#999999"></rect><rect x="300.5" y="266.45218" width="1" height="12" stroke="none" stroke-width="0" fill="#999999"></rect><rect x="374.5" y="73.07548" width="1" height="12" stroke="none" stroke-width="0" fill="#999999"></rect><rect x="448.5" y="252.77902" width="1" height="12" stroke="none" stroke-width="0" fill="#999999"></rect></g></g><g><circle cx="152.5" cy="256.93354" r="2" stroke="none" stroke-width="0" fill="#980000"></circle><circle cx="226.5" cy="295.95346" r="2" stroke="none" stroke-width="0" fill="#980000"></circle><circle cx="300.5" cy="278.45218" r="2" stroke="none" stroke-width="0" fill="#980000"></circle><circle cx="374.5" cy="73.07548" r="2" stroke="none" stroke-width="0" fill="#980000"></circle><circle cx="448.5" cy="264.77902" r="2" stroke="none" stroke-width="0" fill="#980000"></circle></g><g><g><g><text text-anchor="middle" x="152.5" y="317.2" font-family="Arial" font-size="12" stroke="#ffffff" stroke-width="3" fill="#222222" aria-hidden="true">elf</text><text text-anchor="middle" x="152.5" y="317.2" font-family="Arial" font-size="12" stroke="none" stroke-width="0" fill="#222222">elf</text></g></g><g><g><text text-anchor="middle" x="226.5" y="333.2" font-family="Arial" font-size="12" stroke="#ffffff" stroke-width="3" fill="#222222" aria-hidden="true">no substring</text><text text-anchor="middle" x="226.5" y="333.2" font-family="Arial" font-size="12" stroke="none" stroke-width="0" fill="#222222">no substring</text></g></g><g><g><text text-anchor="middle" x="300.5" y="317.2" font-family="Arial" font-size="12" stroke="#ffffff" stroke-width="3" fill="#222222" aria-hidden="true">substring</text><text text-anchor="middle" x="300.5" y="317.2" font-family="Arial" font-size="12" stroke="none" stroke-width="0" fill="#222222">substring</text></g></g><g><g><text text-anchor="middle" x="374.5" y="333.2" font-family="Arial" font-size="12" stroke="#ffffff" stroke-width="3" fill="#222222" aria-hidden="true">+invent</text><text text-anchor="middle" x="374.5" y="333.2" font-family="Arial" font-size="12" stroke="none" stroke-width="0" fill="#222222">+invent</text></g></g><g><g><text text-anchor="middle" x="448.5" y="317.2" font-family="Arial" font-size="12" stroke="#ffffff" stroke-width="3" fill="#222222" aria-hidden="true">+backwards</text><text text-anchor="middle" x="448.5" y="317.2" font-family="Arial" font-size="12" stroke="none" stroke-width="0" fill="#222222">+backwards</text></g></g><g><g><text text-anchor="end" x="103" y="303.7" font-family="Arial" font-size="12" stroke="#ffffff" stroke-width="3" fill="#444444" aria-hidden="true">0</text><text text-anchor="end" x="103" y="303.7" font-family="Arial" font-size="12" stroke="none" stroke-width="0" fill="#444444">0</text></g></g><g><g><text text-anchor="end" x="103" y="246.7" font-family="Arial" font-size="12" stroke="#ffffff" stroke-width="3" fill="#444444" aria-hidden="true">4</text><text text-anchor="end" x="103" y="246.7" font-family="Arial" font-size="12" stroke="none" stroke-width="0" fill="#444444">4</text></g></g><g><g><text text-anchor="end" x="103" y="189.7" font-family="Arial" font-size="12" stroke="#ffffff" stroke-width="3" fill="#444444" aria-hidden="true">8</text><text text-anchor="end" x="103" y="189.7" font-family="Arial" font-size="12" stroke="none" stroke-width="0" fill="#444444">8</text></g></g><g><g><text text-anchor="end" x="103" y="132.7" font-family="Arial" font-size="12" stroke="#ffffff" stroke-width="3" fill="#444444" aria-hidden="true">12</text><text text-anchor="end" x="103" y="132.7" font-family="Arial" font-size="12" stroke="none" stroke-width="0" fill="#444444">12</text></g></g><g><g><text text-anchor="end" x="103" y="75.7" font-family="Arial" font-size="12" stroke="#ffffff" stroke-width="3" fill="#444444" aria-hidden="true">16</text><text text-anchor="end" x="103" y="75.7" font-family="Arial" font-size="12" stroke="none" stroke-width="0" fill="#444444">16</text></g></g><g><g><text text-anchor="start" x="498" y="303.7" font-family="Arial" font-size="12" stroke="#ffffff" stroke-width="3" fill="#444444" aria-hidden="true">100 sec</text><text text-anchor="start" x="498" y="303.7" font-family="Arial" font-size="12" stroke="none" stroke-width="0" fill="#444444">100 sec</text></g></g><g><g><text text-anchor="start" x="498" y="246.7" font-family="Arial" font-size="12" stroke="#ffffff" stroke-width="3" fill="#444444" aria-hidden="true">600 sec</text><text text-anchor="start" x="498" y="246.7" font-family="Arial" font-size="12" stroke="none" stroke-width="0" fill="#444444">600 sec</text></g></g><g><g><text text-anchor="start" x="498" y="189.7" font-family="Arial" font-size="12" stroke="#ffffff" stroke-width="3" fill="#444444" aria-hidden="true">1100 sec</text><text text-anchor="start" x="498" y="189.7" font-family="Arial" font-size="12" stroke="none" stroke-width="0" fill="#444444">1100 sec</text></g></g><g><g><text text-anchor="start" x="498" y="132.7" font-family="Arial" font-size="12" stroke="#ffffff" stroke-width="3" fill="#444444" aria-hidden="true">1600 sec</text><text text-anchor="start" x="498" y="132.7" font-family="Arial" font-size="12" stroke="none" stroke-width="0" fill="#444444">1600 sec</text></g></g><g><g><text text-anchor="start" x="498" y="75.7" font-family="Arial" font-size="12" stroke="#ffffff" stroke-width="3" fill="#444444" aria-hidden="true">2100 sec</text><text text-anchor="start" x="498" y="75.7" font-family="Arial" font-size="12" stroke="none" stroke-width="0" fill="#444444">2100 sec</text></g></g></g><g><g><g><rect x="135.5" y="274.5" width="12" height="14" stroke="none" stroke-width="0" fill-opacity="0" fill="#ffffff"></rect><g><text text-anchor="middle" x="141" y="285.2" font-family="Arial" font-size="12" stroke="#ffffff" stroke-width="3" fill="#6d9eeb" aria-hidden="true">0</text><text text-anchor="middle" x="141" y="285.2" font-family="Arial" font-size="12" stroke="none" stroke-width="0" fill="#6d9eeb">0</text></g><rect x="137.5" y="275" width="7" height="12" stroke="none" stroke-width="0" fill-opacity="0" fill="#ffffff"></rect></g></g><g><g><rect x="209.5" y="274.5" width="12" height="14" stroke="none" stroke-width="0" fill-opacity="0" fill="#ffffff"></rect><g><text text-anchor="middle" x="215" y="285.2" font-family="Arial" font-size="12" stroke="#ffffff" stroke-width="3" fill="#6d9eeb" aria-hidden="true">0</text><text text-anchor="middle" x="215" y="285.2" font-family="Arial" font-size="12" stroke="none" stroke-width="0" fill="#6d9eeb">0</text></g><rect x="211.5" y="275" width="7" height="12" stroke="none" stroke-width="0" fill-opacity="0" fill="#ffffff"></rect></g></g><g><g><rect x="283.5" y="274.5" width="12" height="14" stroke="none" stroke-width="0" fill-opacity="0" fill="#ffffff"></rect><g><text text-anchor="middle" x="289" y="285.2" font-family="Arial" font-size="12" stroke="#ffffff" stroke-width="3" fill="#6d9eeb" aria-hidden="true">0</text><text text-anchor="middle" x="289" y="285.2" font-family="Arial" font-size="12" stroke="none" stroke-width="0" fill="#6d9eeb">0</text></g><rect x="285.5" y="275" width="7" height="12" stroke="none" stroke-width="0" fill-opacity="0" fill="#ffffff"></rect></g></g><g><g><rect x="357.5" y="274.5" width="12" height="14" stroke="none" stroke-width="0" fill-opacity="0" fill="#ffffff"></rect><g><text text-anchor="middle" x="363" y="285.2" font-family="Arial" font-size="12" stroke="#ffffff" stroke-width="3" fill="#6d9eeb" aria-hidden="true">0</text><text text-anchor="middle" x="363" y="285.2" font-family="Arial" font-size="12" stroke="none" stroke-width="0" fill="#6d9eeb">0</text></g><rect x="359.5" y="275" width="7" height="12" stroke="none" stroke-width="0" fill-opacity="0" fill="#ffffff"></rect></g></g><g><g><rect x="431.5" y="274.5" width="12" height="14" stroke="none" stroke-width="0" fill-opacity="0" fill="#ffffff"></rect><g><text text-anchor="middle" x="437" y="285.2" font-family="Arial" font-size="12" stroke="#ffffff" stroke-width="3" fill="#6d9eeb" aria-hidden="true">0</text><text text-anchor="middle" x="437" y="285.2" font-family="Arial" font-size="12" stroke="none" stroke-width="0" fill="#6d9eeb">0</text></g><rect x="433.5" y="275" width="7" height="12" stroke="none" stroke-width="0" fill-opacity="0" fill="#ffffff"></rect></g></g><g><g><text text-anchor="middle" x="164" y="113.2" font-family="Arial" font-size="12" stroke="none" stroke-width="0" fill="#404040">14</text><rect x="157.5" y="103" width="13" height="12" stroke="none" stroke-width="0" fill-opacity="0" fill="#ffffff"></rect></g></g><g><g><text text-anchor="middle" x="238" y="212.2" font-family="Arial" font-size="12" stroke="none" stroke-width="0" fill="#404040">7</text><rect x="234.5" y="202" width="7" height="12" stroke="none" stroke-width="0" fill-opacity="0" fill="#ffffff"></rect></g></g><g><g><text text-anchor="middle" x="312" y="212.2" font-family="Arial" font-size="12" stroke="none" stroke-width="0" fill="#404040">7</text><rect x="308.5" y="202" width="7" height="12" stroke="none" stroke-width="0" fill-opacity="0" fill="#ffffff"></rect></g></g><g><g><text text-anchor="middle" x="386" y="212.2" font-family="Arial" font-size="12" stroke="none" stroke-width="0" fill="#404040">7</text><rect x="382.5" y="202" width="7" height="12" stroke="none" stroke-width="0" fill-opacity="0" fill="#ffffff"></rect></g></g><g><g><text text-anchor="middle" x="460" y="212.2" font-family="Arial" font-size="12" stroke="none" stroke-width="0" fill="#404040">7</text><rect x="456.5" y="202" width="7" height="12" stroke="none" stroke-width="0" fill-opacity="0" fill="#ffffff"></rect></g></g><g><g><rect x="128.5" y="231.5" width="49" height="14" stroke="none" stroke-width="0" fill-opacity="0" fill="#ffffff"></rect><g><text text-anchor="middle" x="152.5" y="243.13353999999998" font-family="Arial" font-size="12" stroke="#ffffff" stroke-width="3" fill="#980000" aria-hidden="true">473.39s</text><text text-anchor="middle" x="152.5" y="243.13353999999998" font-family="Arial" font-size="12" stroke="none" stroke-width="0" fill="#980000">473.39s</text></g><rect x="131" y="232.93354" width="43" height="12" stroke="none" stroke-width="0" fill-opacity="0" fill="#ffffff"></rect></g></g><g><g><rect x="202.5" y="270.5" width="49" height="14" stroke="none" stroke-width="0" fill-opacity="0" fill="#ffffff"></rect><g><text text-anchor="middle" x="226.5" y="282.15346" font-family="Arial" font-size="12" stroke="#ffffff" stroke-width="3" fill="#980000" aria-hidden="true">131.11s</text><text text-anchor="middle" x="226.5" y="282.15346" font-family="Arial" font-size="12" stroke="none" stroke-width="0" fill="#980000">131.11s</text></g><rect x="205" y="271.95346" width="43" height="12" stroke="none" stroke-width="0" fill-opacity="0" fill="#ffffff"></rect></g></g><g><g><rect x="276.5" y="253.5" width="49" height="14" stroke="none" stroke-width="0" fill-opacity="0" fill="#ffffff"></rect><g><text text-anchor="middle" x="300.5" y="264.65218" font-family="Arial" font-size="12" stroke="#ffffff" stroke-width="3" fill="#980000" aria-hidden="true">284.63s</text><text text-anchor="middle" x="300.5" y="264.65218" font-family="Arial" font-size="12" stroke="none" stroke-width="0" fill="#980000">284.63s</text></g><rect x="279" y="254.45218" width="43" height="12" stroke="none" stroke-width="0" fill-opacity="0" fill="#ffffff"></rect></g></g><g><g><rect x="347.5" y="84.5" width="55" height="14" stroke="none" stroke-width="0" fill-opacity="0" fill="#ffffff"></rect><g><text text-anchor="middle" x="374.5" y="95.27548" font-family="Arial" font-size="12" stroke="#ffffff" stroke-width="3" fill="#980000" aria-hidden="true">2086.18s</text><text text-anchor="middle" x="374.5" y="95.27548" font-family="Arial" font-size="12" stroke="none" stroke-width="0" fill="#980000">2086.18s</text></g><rect x="350" y="85.07548" width="49" height="12" stroke="none" stroke-width="0" fill-opacity="0" fill="#ffffff"></rect></g></g><g><g><rect x="424.5" y="239.5" width="49" height="14" stroke="none" stroke-width="0" fill-opacity="0" fill="#ffffff"></rect><g><text text-anchor="middle" x="448.5" y="250.97902" font-family="Arial" font-size="12" stroke="#ffffff" stroke-width="3" fill="#980000" aria-hidden="true">404.57s</text><text text-anchor="middle" x="448.5" y="250.97902" font-family="Arial" font-size="12" stroke="none" stroke-width="0" fill="#980000">404.57s</text></g><rect x="427" y="240.77902" width="43" height="12" stroke="none" stroke-width="0" fill-opacity="0" fill="#ffffff"></rect></g></g></g></g><g><g><g><text text-anchor="middle" x="49.2" y="185.5" font-family="Arial" font-size="12" font-style="italic" transform="rotate(-90 49.2 185.5)" stroke="#ffffff" stroke-width="3" fill="#222222" aria-hidden="true"># missing edges</text><text text-anchor="middle" x="49.2" y="185.5" font-family="Arial" font-size="12" font-style="italic" transform="rotate(-90 49.2 185.5)" stroke="none" stroke-width="0" fill="#222222"># missing edges</text></g></g></g><g></g></svg>
