<svg width="498" height="334" aria-label="A chart." style="overflow: hidden;"><defs id="defs"><clipPath id="_ABSTRACT_RENDERER_ID_1095"><rect x="95" y="64" width="308" height="206"></rect></clipPath></defs><rect x="0" y="0" width="498" height="334" stroke="none" stroke-width="0" fill="#ffffff"></rect><g><g><text text-anchor="start" x="95" y="42.6" font-family="Arial" font-size="16" font-weight="bold" stroke="#ffffff" stroke-width="3" fill="#000000" aria-hidden="true">avrora</text><text text-anchor="start" x="95" y="42.6" font-family="Arial" font-size="16" font-weight="bold" stroke="none" stroke-width="0" fill="#000000">avrora</text></g></g><g><rect x="95" y="64" width="308" height="206" stroke="none" stroke-width="0" fill-opacity="0" fill="#ffffff"></rect><g clip-path="url(#_ABSTRACT_RENDERER_ID_1095)"><g><rect x="95" y="269" width="308" height="1" stroke="none" stroke-width="0" fill="#cccccc"></rect><rect x="95" y="218" width="308" height="1" stroke="none" stroke-width="0" fill="#cccccc"></rect><rect x="95" y="167" width="308" height="1" stroke="none" stroke-width="0" fill="#cccccc"></rect><rect x="95" y="115" width="308" height="1" stroke="none" stroke-width="0" fill="#cccccc"></rect><rect x="95" y="64" width="308" height="1" stroke="none" stroke-width="0" fill="#cccccc"></rect><rect x="95" y="269" width="308" height="1" stroke="none" stroke-width="0" fill="#cccccc"></rect><rect x="95" y="218" width="308" height="1" stroke="none" stroke-width="0" fill="#cccccc"></rect><rect x="95" y="167" width="308" height="1" stroke="none" stroke-width="0" fill="#cccccc"></rect><rect x="95" y="115" width="308" height="1" stroke="none" stroke-width="0" fill="#cccccc"></rect><rect x="95" y="64" width="308" height="1" stroke="none" stroke-width="0" fill="#cccccc"></rect></g><g><g><path d="M126.2,269.5L126.2,90.125L187.6,90.125L249,90.125L310.4,90.125L371.8,90.125L371.8,269.5Z" stroke="none" stroke-width="0" fill-opacity="0.3" fill="#e06666"></path></g></g><g><g><rect x="95" y="269.5" width="61" height="0" stroke="none" stroke-width="0" fill-opacity="0.3" fill="#1155cc"></rect><path d="M95,269.5L156,269.5" stroke="#1155cc" stroke-width="2" fill-opacity="1" fill="none"></path></g><g><rect x="156" y="269.5" width="62" height="0" stroke="none" stroke-width="0" fill-opacity="0.3" fill="#1155cc"></rect><path d="M156,269.5L156,269.5L218,269.5" stroke="#1155cc" stroke-width="2" fill-opacity="1" fill="none"></path></g><g><rect x="218" y="269.5" width="61" height="0" stroke="none" stroke-width="0" fill-opacity="0.3" fill="#1155cc"></rect><path d="M218,269.5L218,269.5L279,269.5" stroke="#1155cc" stroke-width="2" fill-opacity="1" fill="none"></path></g><g><rect x="279" y="269.5" width="62" height="0" stroke="none" stroke-width="0" fill-opacity="0.3" fill="#1155cc"></rect><path d="M279,269.5L279,269.5L341,269.5" stroke="#1155cc" stroke-width="2" fill-opacity="1" fill="none"></path></g><g><rect x="341" y="269.5" width="61" height="0" stroke="none" stroke-width="0" fill-opacity="0.3" fill="#1155cc"></rect><path d="M341,269.5L341,269.5L402,269.5" stroke="#1155cc" stroke-width="2" fill-opacity="1" fill="none"></path></g></g><g><rect x="107" y="269" width="18" height="0" stroke="none" stroke-width="0" fill="#3366cc"></rect><rect x="169" y="269" width="18" height="0" stroke="none" stroke-width="0" fill="#3366cc"></rect><rect x="230" y="269" width="18" height="0" stroke="none" stroke-width="0" fill="#3366cc"></rect><rect x="291" y="269" width="18" height="0" stroke="none" stroke-width="0" fill="#3366cc"></rect><rect x="353" y="269" width="18" height="0" stroke="none" stroke-width="0" fill="#3366cc"></rect><rect x="126" y="91" width="18" height="178" stroke="none" stroke-width="0" fill="#e06666"></rect><rect x="188" y="180" width="18" height="89" stroke="none" stroke-width="0" fill="#e06666"></rect><rect x="249" y="180" width="18" height="89" stroke="none" stroke-width="0" fill="#e06666"></rect><rect x="310" y="180" width="18" height="89" stroke="none" stroke-width="0" fill="#e06666"></rect><rect x="372" y="180" width="18" height="89" stroke="none" stroke-width="0" fill="#e06666"></rect></g><g><rect x="95" y="269" width="308" height="1" stroke="none" stroke-width="0" fill="#333333"></rect><rect x="95" y="269" width="308" height="1" stroke="none" stroke-width="0" fill="#333333"></rect></g><g><path d="M126.2,90.125L187.6,90.125L249,90.125L310.4,90.125L371.8,90.125" stroke="#e06666" stroke-width="2" fill-opacity="1" fill="none"></path><path d="M126.2,231.227525L187.6,266.311225L249,250.575425L310.4,65.91655000000003L371.8,238.281575" stroke="#980000" stroke-width="2" fill-opacity="1" fill="none"></path></g><g><rect x="116" y="257" width="1" height="12" stroke="none" stroke-width="0" fill="#999999"></rect><rect x="178" y="257" width="1" height="12" stroke="none" stroke-width="0" fill="#999999"></rect><rect x="239" y="257" width="1" height="12" stroke="none" stroke-width="0" fill="#999999"></rect><rect x="300" y="257" width="1" height="12" stroke="none" stroke-width="0" fill="#999999"></rect><rect x="362" y="257" width="1" height="12" stroke="none" stroke-width="0" fill="#999999"></rect><rect x="135" y="91" width="1" height="0" stroke="none" stroke-width="0" fill="#999999"></rect><rect x="197" y="180" width="1" height="0" stroke="none" stroke-width="0" fill="#999999"></rect><rect x="258" y="180" width="1" height="0" stroke="none" stroke-width="0" fill="#999999"></rect><rect x="319" y="180" width="1" height="0" stroke="none" stroke-width="0" fill="#999999"></rect><rect x="381" y="180" width="1" height="0" stroke="none" stroke-width="0" fill="#999999"></rect><rect x="126.2" y="219.227525" width="1" height="12" stroke="none" stroke-width="0" fill="#999999"></rect><rect x="187.6" y="254.31122499999998" width="1" height="12" stroke="none" stroke-width="0" fill="#999999"></rect><rect x="249" y="238.575425" width="1" height="12" stroke="none" stroke-width="0" fill="#999999"></rect><rect x="310.4" y="65.91655000000003" width="1" height="12" stroke="none" stroke-width="0" fill="#999999"></rect><rect x="371.8" y="226.281575" width="1" height="12" stroke="none" stroke-width="0" fill="#999999"></rect></g></g><g><circle cx="126.2" cy="231.227525" r="2" stroke="none" stroke-width="0" fill="#980000"></circle><circle cx="187.6" cy="266.311225" r="2" stroke="none" stroke-width="0" fill="#980000"></circle><circle cx="249" cy="250.575425" r="2" stroke="none" stroke-width="0" fill="#980000"></circle><circle cx="310.4" cy="65.91655000000003" r="2" stroke="none" stroke-width="0" fill="#980000"></circle><circle cx="371.8" cy="238.281575" r="2" stroke="none" stroke-width="0" fill="#980000"></circle></g><g><g><g><text text-anchor="middle" x="126.2" y="287.2" font-family="Arial" font-size="12" stroke="#ffffff" stroke-width="3" fill="#222222" aria-hidden="true">elf</text><text text-anchor="middle" x="126.2" y="287.2" font-family="Arial" font-size="12" stroke="none" stroke-width="0" fill="#222222">elf</text></g></g><g><g><text text-anchor="middle" x="187.6" y="303.2" font-family="Arial" font-size="12" stroke="#ffffff" stroke-width="3" fill="#222222" aria-hidden="true">no substring</text><text text-anchor="middle" x="187.6" y="303.2" font-family="Arial" font-size="12" stroke="none" stroke-width="0" fill="#222222">no substring</text></g></g><g><g><text text-anchor="middle" x="249" y="287.2" font-family="Arial" font-size="12" stroke="#ffffff" stroke-width="3" fill="#222222" aria-hidden="true">substring</text><text text-anchor="middle" x="249" y="287.2" font-family="Arial" font-size="12" stroke="none" stroke-width="0" fill="#222222">substring</text></g></g><g><g><text text-anchor="middle" x="310.4" y="303.2" font-family="Arial" font-size="12" stroke="#ffffff" stroke-width="3" fill="#222222" aria-hidden="true">+invent</text><text text-anchor="middle" x="310.4" y="303.2" font-family="Arial" font-size="12" stroke="none" stroke-width="0" fill="#222222">+invent</text></g></g><g><g><text text-anchor="middle" x="371.8" y="287.2" font-family="Arial" font-size="12" stroke="#ffffff" stroke-width="3" fill="#222222" aria-hidden="true">+backwards</text><text text-anchor="middle" x="371.8" y="287.2" font-family="Arial" font-size="12" stroke="none" stroke-width="0" fill="#222222">+backwards</text></g></g><g><g><text text-anchor="end" x="83" y="273.7" font-family="Arial" font-size="12" stroke="#ffffff" stroke-width="3" fill="#444444" aria-hidden="true">0</text><text text-anchor="end" x="83" y="273.7" font-family="Arial" font-size="12" stroke="none" stroke-width="0" fill="#444444">0</text></g></g><g><g><text text-anchor="end" x="83" y="222.45" font-family="Arial" font-size="12" stroke="#ffffff" stroke-width="3" fill="#444444" aria-hidden="true">4</text><text text-anchor="end" x="83" y="222.45" font-family="Arial" font-size="12" stroke="none" stroke-width="0" fill="#444444">4</text></g></g><g><g><text text-anchor="end" x="83" y="171.2" font-family="Arial" font-size="12" stroke="#ffffff" stroke-width="3" fill="#444444" aria-hidden="true">8</text><text text-anchor="end" x="83" y="171.2" font-family="Arial" font-size="12" stroke="none" stroke-width="0" fill="#444444">8</text></g></g><g><g><text text-anchor="end" x="83" y="119.95" font-family="Arial" font-size="12" stroke="#ffffff" stroke-width="3" fill="#444444" aria-hidden="true">12</text><text text-anchor="end" x="83" y="119.95" font-family="Arial" font-size="12" stroke="none" stroke-width="0" fill="#444444">12</text></g></g><g><g><text text-anchor="end" x="83" y="68.7" font-family="Arial" font-size="12" stroke="#ffffff" stroke-width="3" fill="#444444" aria-hidden="true">16</text><text text-anchor="end" x="83" y="68.7" font-family="Arial" font-size="12" stroke="none" stroke-width="0" fill="#444444">16</text></g></g><g><g><text text-anchor="start" x="415" y="273.7" font-family="Arial" font-size="12" stroke="#ffffff" stroke-width="3" fill="#444444" aria-hidden="true">100 sec</text><text text-anchor="start" x="415" y="273.7" font-family="Arial" font-size="12" stroke="none" stroke-width="0" fill="#444444">100 sec</text></g></g><g><g><text text-anchor="start" x="415" y="222.45" font-family="Arial" font-size="12" stroke="#ffffff" stroke-width="3" fill="#444444" aria-hidden="true">600 sec</text><text text-anchor="start" x="415" y="222.45" font-family="Arial" font-size="12" stroke="none" stroke-width="0" fill="#444444">600 sec</text></g></g><g><g><text text-anchor="start" x="415" y="171.2" font-family="Arial" font-size="12" stroke="#ffffff" stroke-width="3" fill="#444444" aria-hidden="true">1100 sec</text><text text-anchor="start" x="415" y="171.2" font-family="Arial" font-size="12" stroke="none" stroke-width="0" fill="#444444">1100 sec</text></g></g><g><g><text text-anchor="start" x="415" y="119.95" font-family="Arial" font-size="12" stroke="#ffffff" stroke-width="3" fill="#444444" aria-hidden="true">1600 sec</text><text text-anchor="start" x="415" y="119.95" font-family="Arial" font-size="12" stroke="none" stroke-width="0" fill="#444444">1600 sec</text></g></g><g><g><text text-anchor="start" x="415" y="68.7" font-family="Arial" font-size="12" stroke="#ffffff" stroke-width="3" fill="#444444" aria-hidden="true">2100 sec</text><text text-anchor="start" x="415" y="68.7" font-family="Arial" font-size="12" stroke="none" stroke-width="0" fill="#444444">2100 sec</text></g></g></g><g><g><g><rect x="110.5" y="244.5" width="12" height="14" stroke="none" stroke-width="0" fill-opacity="0" fill="#ffffff"></rect><g><text text-anchor="middle" x="116" y="255.2" font-family="Arial" font-size="12" stroke="#ffffff" stroke-width="3" fill="#3366cc" aria-hidden="true">0</text><text text-anchor="middle" x="116" y="255.2" font-family="Arial" font-size="12" stroke="none" stroke-width="0" fill="#3366cc">0</text></g><rect x="112.5" y="245" width="7" height="12" stroke="none" stroke-width="0" fill-opacity="0" fill="#ffffff"></rect></g></g><g><g><rect x="172.5" y="244.5" width="12" height="14" stroke="none" stroke-width="0" fill-opacity="0" fill="#ffffff"></rect><g><text text-anchor="middle" x="178" y="255.2" font-family="Arial" font-size="12" stroke="#ffffff" stroke-width="3" fill="#3366cc" aria-hidden="true">0</text><text text-anchor="middle" x="178" y="255.2" font-family="Arial" font-size="12" stroke="none" stroke-width="0" fill="#3366cc">0</text></g><rect x="174.5" y="245" width="7" height="12" stroke="none" stroke-width="0" fill-opacity="0" fill="#ffffff"></rect></g></g><g><g><rect x="233.5" y="244.5" width="12" height="14" stroke="none" stroke-width="0" fill-opacity="0" fill="#ffffff"></rect><g><text text-anchor="middle" x="239" y="255.2" font-family="Arial" font-size="12" stroke="#ffffff" stroke-width="3" fill="#3366cc" aria-hidden="true">0</text><text text-anchor="middle" x="239" y="255.2" font-family="Arial" font-size="12" stroke="none" stroke-width="0" fill="#3366cc">0</text></g><rect x="235.5" y="245" width="7" height="12" stroke="none" stroke-width="0" fill-opacity="0" fill="#ffffff"></rect></g></g><g><g><rect x="294.5" y="244.5" width="12" height="14" stroke="none" stroke-width="0" fill-opacity="0" fill="#ffffff"></rect><g><text text-anchor="middle" x="300" y="255.2" font-family="Arial" font-size="12" stroke="#ffffff" stroke-width="3" fill="#3366cc" aria-hidden="true">0</text><text text-anchor="middle" x="300" y="255.2" font-family="Arial" font-size="12" stroke="none" stroke-width="0" fill="#3366cc">0</text></g><rect x="296.5" y="245" width="7" height="12" stroke="none" stroke-width="0" fill-opacity="0" fill="#ffffff"></rect></g></g><g><g><rect x="356.5" y="244.5" width="12" height="14" stroke="none" stroke-width="0" fill-opacity="0" fill="#ffffff"></rect><g><text text-anchor="middle" x="362" y="255.2" font-family="Arial" font-size="12" stroke="#ffffff" stroke-width="3" fill="#3366cc" aria-hidden="true">0</text><text text-anchor="middle" x="362" y="255.2" font-family="Arial" font-size="12" stroke="none" stroke-width="0" fill="#3366cc">0</text></g><rect x="358.5" y="245" width="7" height="12" stroke="none" stroke-width="0" fill-opacity="0" fill="#ffffff"></rect></g></g><g><g><text text-anchor="middle" x="135" y="103.2" font-family="Arial" font-size="12" stroke="none" stroke-width="0" fill="#ffffff">14</text><rect x="128.5" y="93" width="13" height="12" stroke="none" stroke-width="0" fill-opacity="0" fill="#ffffff"></rect></g></g><g><g><text text-anchor="middle" x="197" y="192.2" font-family="Arial" font-size="12" stroke="none" stroke-width="0" fill="#ffffff">7</text><rect x="193.5" y="182" width="7" height="12" stroke="none" stroke-width="0" fill-opacity="0" fill="#ffffff"></rect></g></g><g><g><text text-anchor="middle" x="258" y="192.2" font-family="Arial" font-size="12" stroke="none" stroke-width="0" fill="#ffffff">7</text><rect x="254.5" y="182" width="7" height="12" stroke="none" stroke-width="0" fill-opacity="0" fill="#ffffff"></rect></g></g><g><g><text text-anchor="middle" x="319" y="192.2" font-family="Arial" font-size="12" stroke="none" stroke-width="0" fill="#ffffff">7</text><rect x="315.5" y="182" width="7" height="12" stroke="none" stroke-width="0" fill-opacity="0" fill="#ffffff"></rect></g></g><g><g><text text-anchor="middle" x="381" y="192.2" font-family="Arial" font-size="12" stroke="none" stroke-width="0" fill="#ffffff">7</text><rect x="377.5" y="182" width="7" height="12" stroke="none" stroke-width="0" fill-opacity="0" fill="#ffffff"></rect></g></g><g><g><rect x="102.5" y="206.5" width="48" height="14" stroke="none" stroke-width="0" fill-opacity="0" fill="#ffffff"></rect><g><text text-anchor="middle" x="126.2" y="217.427525" font-family="Arial" font-size="12" stroke="#ffffff" stroke-width="3" fill="#980000" aria-hidden="true">473.39s</text><text text-anchor="middle" x="126.2" y="217.427525" font-family="Arial" font-size="12" stroke="none" stroke-width="0" fill="#980000">473.39s</text></g><rect x="104.7" y="207.227525" width="42.999999999999986" height="12" stroke="none" stroke-width="0" fill-opacity="0" fill="#ffffff"></rect></g></g><g><g><rect x="164.5" y="241.5" width="48" height="14" stroke="none" stroke-width="0" fill-opacity="0" fill="#ffffff"></rect><g><text text-anchor="middle" x="187.6" y="252.51122499999997" font-family="Arial" font-size="12" stroke="#ffffff" stroke-width="3" fill="#980000" aria-hidden="true">131.11s</text><text text-anchor="middle" x="187.6" y="252.51122499999997" font-family="Arial" font-size="12" stroke="none" stroke-width="0" fill="#980000">131.11s</text></g><rect x="166.1" y="242.31122499999998" width="43" height="12" stroke="none" stroke-width="0" fill-opacity="0" fill="#ffffff"></rect></g></g><g><g><rect x="225.5" y="225.5" width="48" height="14" stroke="none" stroke-width="0" fill-opacity="0" fill="#ffffff"></rect><g><text text-anchor="middle" x="249" y="236.77542499999998" font-family="Arial" font-size="12" stroke="#ffffff" stroke-width="3" fill="#980000" aria-hidden="true">284.63s</text><text text-anchor="middle" x="249" y="236.77542499999998" font-family="Arial" font-size="12" stroke="none" stroke-width="0" fill="#980000">284.63s</text></g><rect x="227.5" y="226.575425" width="43" height="12" stroke="none" stroke-width="0" fill-opacity="0" fill="#ffffff"></rect></g></g><g><g><rect x="283.5" y="76.5" width="54" height="14" stroke="none" stroke-width="0" fill-opacity="0" fill="#ffffff"></rect><g><text text-anchor="middle" x="310.4" y="88.11655000000003" font-family="Arial" font-size="12" stroke="#ffffff" stroke-width="3" fill="#980000" aria-hidden="true">2086.18s</text><text text-anchor="middle" x="310.4" y="88.11655000000003" font-family="Arial" font-size="12" stroke="none" stroke-width="0" fill="#980000">2086.18s</text></g><rect x="285.9" y="77.91655000000003" width="49" height="12" stroke="none" stroke-width="0" fill-opacity="0" fill="#ffffff"></rect></g></g><g><g><rect x="348.5" y="213.5" width="48" height="14" stroke="none" stroke-width="0" fill-opacity="0" fill="#ffffff"></rect><g><text text-anchor="middle" x="371.8" y="224.481575" font-family="Arial" font-size="12" stroke="#ffffff" stroke-width="3" fill="#980000" aria-hidden="true">404.57s</text><text text-anchor="middle" x="371.8" y="224.481575" font-family="Arial" font-size="12" stroke="none" stroke-width="0" fill="#980000">404.57s</text></g><rect x="350.3" y="214.281575" width="43" height="12" stroke="none" stroke-width="0" fill-opacity="0" fill="#ffffff"></rect></g></g></g></g><g><g><g><text text-anchor="middle" x="39.2" y="167" font-family="Arial" font-size="12" font-style="italic" transform="rotate(-90 39.2 167)" stroke="#ffffff" stroke-width="3" fill="#222222" aria-hidden="true"># missing edges</text><text text-anchor="middle" x="39.2" y="167" font-family="Arial" font-size="12" font-style="italic" transform="rotate(-90 39.2 167)" stroke="none" stroke-width="0" fill="#222222"># missing edges</text></g></g></g><g></g></svg>
