<svg width="561" height="289" aria-label="A chart." style="overflow: hidden;"><defs id="defs"><clipPath id="_ABSTRACT_RENDERER_ID_963"><rect x="95" y="55" width="371" height="179"></rect></clipPath></defs><rect x="0" y="0" width="561" height="289" stroke="none" stroke-width="0" fill="#ffffff"></rect><g><g><text text-anchor="start" x="95" y="33.6" font-family="Arial" font-size="16" font-weight="bold" stroke="#ffffff" stroke-width="3" fill="#000000" aria-hidden="true">batik</text><text text-anchor="start" x="95" y="33.6" font-family="Arial" font-size="16" font-weight="bold" stroke="none" stroke-width="0" fill="#000000">batik</text></g></g><g><rect x="95" y="55" width="371" height="179" stroke="none" stroke-width="0" fill-opacity="0" fill="#ffffff"></rect><g clip-path="url(#_ABSTRACT_RENDERER_ID_963)"><g><rect x="95" y="233" width="371" height="1" stroke="none" stroke-width="0" fill="#cccccc"></rect><rect x="95" y="189" width="371" height="1" stroke="none" stroke-width="0" fill="#cccccc"></rect><rect x="95" y="144" width="371" height="1" stroke="none" stroke-width="0" fill="#cccccc"></rect><rect x="95" y="100" width="371" height="1" stroke="none" stroke-width="0" fill="#cccccc"></rect><rect x="95" y="55" width="371" height="1" stroke="none" stroke-width="0" fill="#cccccc"></rect><rect x="95" y="233" width="371" height="1" stroke="none" stroke-width="0" fill="#cccccc"></rect><rect x="95" y="189" width="371" height="1" stroke="none" stroke-width="0" fill="#cccccc"></rect><rect x="95" y="144" width="371" height="1" stroke="none" stroke-width="0" fill="#cccccc"></rect><rect x="95" y="100" width="371" height="1" stroke="none" stroke-width="0" fill="#cccccc"></rect><rect x="95" y="55" width="371" height="1" stroke="none" stroke-width="0" fill="#cccccc"></rect></g><g><g><path d="M132.5,233.5L132.5,98.22L206.5,98.22L280.5,98.22L354.5,98.22L428.5,98.22L428.5,233.5Z" stroke="none" stroke-width="0" fill-opacity="0.3" fill="#e06666"></path></g></g><g><g><rect x="95" y="58.16999999999999" width="74" height="175.33" stroke="none" stroke-width="0" fill-opacity="0.3" fill="#1155cc"></rect><path d="M95,58.16999999999999L169,58.16999999999999" stroke="#1155cc" stroke-width="2" fill-opacity="1" fill="none"></path></g><g><rect x="169" y="58.16999999999999" width="74" height="175.33" stroke="none" stroke-width="0" fill-opacity="0.3" fill="#1155cc"></rect><path d="M169,58.16999999999999L169,58.16999999999999L243,58.16999999999999" stroke="#1155cc" stroke-width="2" fill-opacity="1" fill="none"></path></g><g><rect x="243" y="58.16999999999999" width="74" height="175.33" stroke="none" stroke-width="0" fill-opacity="0.3" fill="#1155cc"></rect><path d="M243,58.16999999999999L243,58.16999999999999L317,58.16999999999999" stroke="#1155cc" stroke-width="2" fill-opacity="1" fill="none"></path></g><g><rect x="317" y="58.16999999999999" width="74" height="175.33" stroke="none" stroke-width="0" fill-opacity="0.3" fill="#1155cc"></rect><path d="M317,58.16999999999999L317,58.16999999999999L391,58.16999999999999" stroke="#1155cc" stroke-width="2" fill-opacity="1" fill="none"></path></g><g><rect x="391" y="58.16999999999999" width="74" height="175.33" stroke="none" stroke-width="0" fill-opacity="0.3" fill="#1155cc"></rect><path d="M391,58.16999999999999L391,58.16999999999999L465,58.16999999999999" stroke="#1155cc" stroke-width="2" fill-opacity="1" fill="none"></path></g></g><g><rect x="110" y="59" width="22" height="174" stroke="none" stroke-width="0" fill="#3366cc"></rect><rect x="184" y="59" width="22" height="174" stroke="none" stroke-width="0" fill="#3366cc"></rect><rect x="258" y="63" width="22" height="170" stroke="none" stroke-width="0" fill="#3366cc"></rect><rect x="332" y="66" width="22" height="167" stroke="none" stroke-width="0" fill="#3366cc"></rect><rect x="406" y="156" width="22" height="77" stroke="none" stroke-width="0" fill="#3366cc"></rect><rect x="133" y="99" width="22" height="134" stroke="none" stroke-width="0" fill="#e06666"></rect><rect x="207" y="105" width="22" height="128" stroke="none" stroke-width="0" fill="#e06666"></rect><rect x="281" y="109" width="22" height="124" stroke="none" stroke-width="0" fill="#e06666"></rect><rect x="355" y="113" width="22" height="120" stroke="none" stroke-width="0" fill="#e06666"></rect><rect x="429" y="164" width="22" height="69" stroke="none" stroke-width="0" fill="#e06666"></rect></g><g><rect x="95" y="233" width="371" height="1" stroke="none" stroke-width="0" fill="#333333"></rect><rect x="95" y="233" width="371" height="1" stroke="none" stroke-width="0" fill="#333333"></rect></g><g><path d="M132.5,98.22L206.5,98.22L280.5,98.22L354.5,98.22L428.5,98.22" stroke="#e06666" stroke-width="2" fill-opacity="1" fill="none"></path><path d="M132.5,186.572525L206.5,225.12777L280.5,214.014785L354.5,102.75321500000001L428.5,204.721405" stroke="#980000" stroke-width="2" fill-opacity="1" fill="none"></path></g><g><rect x="121" y="59" width="1" height="0" stroke="none" stroke-width="0" fill="#999999"></rect><rect x="195" y="59" width="1" height="0" stroke="none" stroke-width="0" fill="#999999"></rect><rect x="269" y="63" width="1" height="0" stroke="none" stroke-width="0" fill="#999999"></rect><rect x="343" y="66" width="1" height="0" stroke="none" stroke-width="0" fill="#999999"></rect><rect x="417" y="156" width="1" height="0" stroke="none" stroke-width="0" fill="#999999"></rect><rect x="144" y="99" width="1" height="0" stroke="none" stroke-width="0" fill="#999999"></rect><rect x="218" y="105" width="1" height="0" stroke="none" stroke-width="0" fill="#999999"></rect><rect x="292" y="109" width="1" height="0" stroke="none" stroke-width="0" fill="#999999"></rect><rect x="366" y="113" width="1" height="0" stroke="none" stroke-width="0" fill="#999999"></rect><rect x="440" y="164" width="1" height="0" stroke="none" stroke-width="0" fill="#999999"></rect><rect x="132.5" y="174.572525" width="1" height="12" stroke="none" stroke-width="0" fill="#999999"></rect><rect x="206.5" y="213.12777" width="1" height="12" stroke="none" stroke-width="0" fill="#999999"></rect><rect x="280.5" y="202.014785" width="1" height="12" stroke="none" stroke-width="0" fill="#999999"></rect><rect x="354.5" y="90.75321500000001" width="1" height="12" stroke="none" stroke-width="0" fill="#999999"></rect><rect x="428.5" y="192.721405" width="1" height="12" stroke="none" stroke-width="0" fill="#999999"></rect></g></g><g><circle cx="132.5" cy="186.572525" r="2" stroke="none" stroke-width="0" fill="#980000"></circle><circle cx="206.5" cy="225.12777" r="2" stroke="none" stroke-width="0" fill="#980000"></circle><circle cx="280.5" cy="214.014785" r="2" stroke="none" stroke-width="0" fill="#980000"></circle><circle cx="354.5" cy="102.75321500000001" r="2" stroke="none" stroke-width="0" fill="#980000"></circle><circle cx="428.5" cy="204.721405" r="2" stroke="none" stroke-width="0" fill="#980000"></circle></g><g><g><g><text text-anchor="middle" x="132.5" y="251.2" font-family="Arial" font-size="12" stroke="#ffffff" stroke-width="3" fill="#222222" aria-hidden="true">elf</text><text text-anchor="middle" x="132.5" y="251.2" font-family="Arial" font-size="12" stroke="none" stroke-width="0" fill="#222222">elf</text></g></g><g><g><text text-anchor="middle" x="206.5" y="267.2" font-family="Arial" font-size="12" stroke="#ffffff" stroke-width="3" fill="#222222" aria-hidden="true">no substring</text><text text-anchor="middle" x="206.5" y="267.2" font-family="Arial" font-size="12" stroke="none" stroke-width="0" fill="#222222">no substring</text></g></g><g><g><text text-anchor="middle" x="280.5" y="251.2" font-family="Arial" font-size="12" stroke="#ffffff" stroke-width="3" fill="#222222" aria-hidden="true">substring</text><text text-anchor="middle" x="280.5" y="251.2" font-family="Arial" font-size="12" stroke="none" stroke-width="0" fill="#222222">substring</text></g></g><g><g><text text-anchor="middle" x="354.5" y="267.2" font-family="Arial" font-size="12" stroke="#ffffff" stroke-width="3" fill="#222222" aria-hidden="true">+invent</text><text text-anchor="middle" x="354.5" y="267.2" font-family="Arial" font-size="12" stroke="none" stroke-width="0" fill="#222222">+invent</text></g></g><g><g><text text-anchor="middle" x="428.5" y="251.2" font-family="Arial" font-size="12" stroke="#ffffff" stroke-width="3" fill="#222222" aria-hidden="true">+backwards</text><text text-anchor="middle" x="428.5" y="251.2" font-family="Arial" font-size="12" stroke="none" stroke-width="0" fill="#222222">+backwards</text></g></g><g><g><text text-anchor="end" x="83" y="237.7" font-family="Arial" font-size="12" stroke="#ffffff" stroke-width="3" fill="#444444" aria-hidden="true">0</text><text text-anchor="end" x="83" y="237.7" font-family="Arial" font-size="12" stroke="none" stroke-width="0" fill="#444444">0</text></g></g><g><g><text text-anchor="end" x="83" y="193.2" font-family="Arial" font-size="12" stroke="#ffffff" stroke-width="3" fill="#444444" aria-hidden="true">100</text><text text-anchor="end" x="83" y="193.2" font-family="Arial" font-size="12" stroke="none" stroke-width="0" fill="#444444">100</text></g></g><g><g><text text-anchor="end" x="83" y="148.7" font-family="Arial" font-size="12" stroke="#ffffff" stroke-width="3" fill="#444444" aria-hidden="true">200</text><text text-anchor="end" x="83" y="148.7" font-family="Arial" font-size="12" stroke="none" stroke-width="0" fill="#444444">200</text></g></g><g><g><text text-anchor="end" x="83" y="104.2" font-family="Arial" font-size="12" stroke="#ffffff" stroke-width="3" fill="#444444" aria-hidden="true">300</text><text text-anchor="end" x="83" y="104.2" font-family="Arial" font-size="12" stroke="none" stroke-width="0" fill="#444444">300</text></g></g><g><g><text text-anchor="end" x="83" y="59.7" font-family="Arial" font-size="12" stroke="#ffffff" stroke-width="3" fill="#444444" aria-hidden="true">400</text><text text-anchor="end" x="83" y="59.7" font-family="Arial" font-size="12" stroke="none" stroke-width="0" fill="#444444">400</text></g></g><g><g><text text-anchor="start" x="478" y="237.7" font-family="Arial" font-size="12" stroke="#ffffff" stroke-width="3" fill="#444444" aria-hidden="true">0 sec</text><text text-anchor="start" x="478" y="237.7" font-family="Arial" font-size="12" stroke="none" stroke-width="0" fill="#444444">0 sec</text></g></g><g><g><text text-anchor="start" x="478" y="193.2" font-family="Arial" font-size="12" stroke="#ffffff" stroke-width="3" fill="#444444" aria-hidden="true">1000 sec</text><text text-anchor="start" x="478" y="193.2" font-family="Arial" font-size="12" stroke="none" stroke-width="0" fill="#444444">1000 sec</text></g></g><g><g><text text-anchor="start" x="478" y="148.7" font-family="Arial" font-size="12" stroke="#ffffff" stroke-width="3" fill="#444444" aria-hidden="true">2000 sec</text><text text-anchor="start" x="478" y="148.7" font-family="Arial" font-size="12" stroke="none" stroke-width="0" fill="#444444">2000 sec</text></g></g><g><g><text text-anchor="start" x="478" y="104.2" font-family="Arial" font-size="12" stroke="#ffffff" stroke-width="3" fill="#444444" aria-hidden="true">3000 sec</text><text text-anchor="start" x="478" y="104.2" font-family="Arial" font-size="12" stroke="none" stroke-width="0" fill="#444444">3000 sec</text></g></g><g><g><text text-anchor="start" x="478" y="59.7" font-family="Arial" font-size="12" stroke="#ffffff" stroke-width="3" fill="#444444" aria-hidden="true">4000 sec</text><text text-anchor="start" x="478" y="59.7" font-family="Arial" font-size="12" stroke="none" stroke-width="0" fill="#444444">4000 sec</text></g></g></g><g><g><g><text text-anchor="middle" x="121" y="71.2" font-family="Arial" font-size="12" stroke="none" stroke-width="0" fill="#ffffff">394</text><rect x="111" y="61" width="20" height="12" stroke="none" stroke-width="0" fill-opacity="0" fill="#ffffff"></rect></g></g><g><g><text text-anchor="middle" x="195" y="71.2" font-family="Arial" font-size="12" stroke="none" stroke-width="0" fill="#ffffff">393</text><rect x="185" y="61" width="20" height="12" stroke="none" stroke-width="0" fill-opacity="0" fill="#ffffff"></rect></g></g><g><g><text text-anchor="middle" x="269" y="75.2" font-family="Arial" font-size="12" stroke="none" stroke-width="0" fill="#ffffff">385</text><rect x="259" y="65" width="20" height="12" stroke="none" stroke-width="0" fill-opacity="0" fill="#ffffff"></rect></g></g><g><g><text text-anchor="middle" x="343" y="78.2" font-family="Arial" font-size="12" stroke="none" stroke-width="0" fill="#ffffff">378</text><rect x="333" y="68" width="20" height="12" stroke="none" stroke-width="0" fill-opacity="0" fill="#ffffff"></rect></g></g><g><g><text text-anchor="middle" x="417" y="168.2" font-family="Arial" font-size="12" stroke="none" stroke-width="0" fill="#ffffff">176</text><rect x="407" y="158" width="20" height="12" stroke="none" stroke-width="0" fill-opacity="0" fill="#ffffff"></rect></g></g><g><g><text text-anchor="middle" x="144" y="111.2" font-family="Arial" font-size="12" stroke="none" stroke-width="0" fill="#ffffff">304</text><rect x="134" y="101" width="20" height="12" stroke="none" stroke-width="0" fill-opacity="0" fill="#ffffff"></rect></g></g><g><g><text text-anchor="middle" x="218" y="117.2" font-family="Arial" font-size="12" stroke="none" stroke-width="0" fill="#ffffff">291</text><rect x="208" y="107" width="20" height="12" stroke="none" stroke-width="0" fill-opacity="0" fill="#ffffff"></rect></g></g><g><g><text text-anchor="middle" x="292" y="121.2" font-family="Arial" font-size="12" stroke="none" stroke-width="0" fill="#ffffff">282</text><rect x="282" y="111" width="20" height="12" stroke="none" stroke-width="0" fill-opacity="0" fill="#ffffff"></rect></g></g><g><g><text text-anchor="middle" x="366" y="125.2" font-family="Arial" font-size="12" stroke="none" stroke-width="0" fill="#ffffff">273</text><rect x="356" y="115" width="20" height="12" stroke="none" stroke-width="0" fill-opacity="0" fill="#ffffff"></rect></g></g><g><g><text text-anchor="middle" x="440" y="176.2" font-family="Arial" font-size="12" stroke="none" stroke-width="0" fill="#ffffff">158</text><rect x="430" y="166" width="20" height="12" stroke="none" stroke-width="0" fill-opacity="0" fill="#ffffff"></rect></g></g><g><g><rect x="105.5" y="161.5" width="55" height="14" stroke="none" stroke-width="0" fill-opacity="0" fill="#ffffff"></rect><g><text text-anchor="middle" x="132.5" y="172.772525" font-family="Arial" font-size="12" stroke="#ffffff" stroke-width="3" fill="#980000" aria-hidden="true">1054.55s</text><text text-anchor="middle" x="132.5" y="172.772525" font-family="Arial" font-size="12" stroke="none" stroke-width="0" fill="#980000">1054.55s</text></g><rect x="108" y="162.572525" width="49" height="12" stroke="none" stroke-width="0" fill-opacity="0" fill="#ffffff"></rect></g></g><g><g><rect x="182.5" y="200.5" width="49" height="14" stroke="none" stroke-width="0" fill-opacity="0" fill="#ffffff"></rect><g><text text-anchor="middle" x="206.5" y="211.32777" font-family="Arial" font-size="12" stroke="#ffffff" stroke-width="3" fill="#980000" aria-hidden="true">188.14s</text><text text-anchor="middle" x="206.5" y="211.32777" font-family="Arial" font-size="12" stroke="none" stroke-width="0" fill="#980000">188.14s</text></g><rect x="185" y="201.12777" width="43" height="12" stroke="none" stroke-width="0" fill-opacity="0" fill="#ffffff"></rect></g></g><g><g><rect x="256.5" y="189.5" width="49" height="14" stroke="none" stroke-width="0" fill-opacity="0" fill="#ffffff"></rect><g><text text-anchor="middle" x="280.5" y="200.21478499999998" font-family="Arial" font-size="12" stroke="#ffffff" stroke-width="3" fill="#980000" aria-hidden="true">437.87s</text><text text-anchor="middle" x="280.5" y="200.21478499999998" font-family="Arial" font-size="12" stroke="none" stroke-width="0" fill="#980000">437.87s</text></g><rect x="259" y="190.014785" width="43" height="12" stroke="none" stroke-width="0" fill-opacity="0" fill="#ffffff"></rect></g></g><g><g><rect x="327.5" y="77.5" width="55" height="14" stroke="none" stroke-width="0" fill-opacity="0" fill="#ffffff"></rect><g><text text-anchor="middle" x="354.5" y="88.95321500000001" font-family="Arial" font-size="12" stroke="#ffffff" stroke-width="3" fill="#980000" aria-hidden="true">2938.13s</text><text text-anchor="middle" x="354.5" y="88.95321500000001" font-family="Arial" font-size="12" stroke="none" stroke-width="0" fill="#980000">2938.13s</text></g><rect x="330" y="78.75321500000001" width="49" height="12" stroke="none" stroke-width="0" fill-opacity="0" fill="#ffffff"></rect></g></g><g><g><rect x="404.5" y="179.5" width="49" height="14" stroke="none" stroke-width="0" fill-opacity="0" fill="#ffffff"></rect><g><text text-anchor="middle" x="428.5" y="190.921405" font-family="Arial" font-size="12" stroke="#ffffff" stroke-width="3" fill="#980000" aria-hidden="true">646.71s</text><text text-anchor="middle" x="428.5" y="190.921405" font-family="Arial" font-size="12" stroke="none" stroke-width="0" fill="#980000">646.71s</text></g><rect x="407" y="180.721405" width="43" height="12" stroke="none" stroke-width="0" fill-opacity="0" fill="#ffffff"></rect></g></g></g></g><g><g><g><text text-anchor="middle" x="35.7" y="144.5" font-family="Arial" font-size="12" font-style="italic" transform="rotate(-90 35.7 144.5)" stroke="#ffffff" stroke-width="3" fill="#222222" aria-hidden="true"># missing edges</text><text text-anchor="middle" x="35.7" y="144.5" font-family="Arial" font-size="12" font-style="italic" transform="rotate(-90 35.7 144.5)" stroke="none" stroke-width="0" fill="#222222"># missing edges</text></g></g></g><g></g></svg>
