<svg width="600" height="371" aria-label="A chart." style="overflow: hidden;"><defs id="defs"><clipPath id="_ABSTRACT_RENDERER_ID_605"><rect x="115" y="71" width="371" height="229"></rect></clipPath></defs><rect x="0" y="0" width="600" height="371" stroke="none" stroke-width="0" fill="#ffffff"></rect><g><text text-anchor="start" x="115" y="49.6" font-family="Arial" font-size="16" font-weight="bold" stroke="none" stroke-width="0" fill="#000000">batik</text></g><g><rect x="115" y="71" width="371" height="229" stroke="none" stroke-width="0" fill-opacity="0" fill="#ffffff"></rect><g clip-path="url(#_ABSTRACT_RENDERER_ID_605)"><g><rect x="115" y="299" width="371" height="1" stroke="none" stroke-width="0" fill="#cccccc"></rect><rect x="115" y="242" width="371" height="1" stroke="none" stroke-width="0" fill="#cccccc"></rect><rect x="115" y="185" width="371" height="1" stroke="none" stroke-width="0" fill="#cccccc"></rect><rect x="115" y="128" width="371" height="1" stroke="none" stroke-width="0" fill="#cccccc"></rect><rect x="115" y="71" width="371" height="1" stroke="none" stroke-width="0" fill="#cccccc"></rect><rect x="115" y="299" width="371" height="1" stroke="none" stroke-width="0" fill="#cccccc"></rect><rect x="115" y="242" width="371" height="1" stroke="none" stroke-width="0" fill="#cccccc"></rect><rect x="115" y="185" width="371" height="1" stroke="none" stroke-width="0" fill="#cccccc"></rect><rect x="115" y="128" width="371" height="1" stroke="none" stroke-width="0" fill="#cccccc"></rect><rect x="115" y="71" width="371" height="1" stroke="none" stroke-width="0" fill="#cccccc"></rect></g><g><g><rect x="115" y="74.92000000000002" width="74" height="224.57999999999998" stroke="none" stroke-width="0" fill-opacity="0" fill="#1155cc"></rect><path d="M115,74.92000000000002L189,74.92000000000002" stroke="#1155cc" stroke-width="2" fill-opacity="1" fill="none"></path></g><g><rect x="189" y="74.92000000000002" width="74" height="224.57999999999998" stroke="none" stroke-width="0" fill-opacity="0" fill="#1155cc"></rect><path d="M189,74.92000000000002L189,74.92000000000002L263,74.92000000000002" stroke="#1155cc" stroke-width="2" fill-opacity="1" fill="none"></path></g><g><rect x="263" y="74.92000000000002" width="74" height="224.57999999999998" stroke="none" stroke-width="0" fill-opacity="0" fill="#1155cc"></rect><path d="M263,74.92000000000002L263,74.92000000000002L337,74.92000000000002" stroke="#1155cc" stroke-width="2" fill-opacity="1" fill="none"></path></g><g><rect x="337" y="74.92000000000002" width="74" height="224.57999999999998" stroke="none" stroke-width="0" fill-opacity="0" fill="#1155cc"></rect><path d="M337,74.92000000000002L337,74.92000000000002L411,74.92000000000002" stroke="#1155cc" stroke-width="2" fill-opacity="1" fill="none"></path></g><g><rect x="411" y="74.92000000000002" width="74" height="224.57999999999998" stroke="none" stroke-width="0" fill-opacity="0" fill="#1155cc"></rect><path d="M411,74.92000000000002L411,74.92000000000002L485,74.92000000000002" stroke="#1155cc" stroke-width="2" fill-opacity="1" fill="none"></path></g></g><g><rect x="130" y="75" width="22" height="224" stroke="none" stroke-width="0" fill="#1155cc"></rect><rect x="204" y="76" width="22" height="223" stroke="none" stroke-width="0" fill="#1155cc"></rect><rect x="278" y="81" width="22" height="218" stroke="none" stroke-width="0" fill="#1155cc"></rect><rect x="352" y="85" width="22" height="214" stroke="none" stroke-width="0" fill="#1155cc"></rect><rect x="426" y="200" width="22" height="99" stroke="none" stroke-width="0" fill="#1155cc"></rect><rect x="153" y="127" width="22" height="172" stroke="none" stroke-width="0" fill="#ea9999"></rect><rect x="227" y="134" width="22" height="165" stroke="none" stroke-width="0" fill="#ea9999"></rect><rect x="301" y="139" width="22" height="160" stroke="none" stroke-width="0" fill="#ea9999"></rect><rect x="375" y="144" width="22" height="155" stroke="none" stroke-width="0" fill="#ea9999"></rect><rect x="449" y="210" width="22" height="89" stroke="none" stroke-width="0" fill="#ea9999"></rect></g><g><rect x="115" y="299" width="371" height="1" stroke="none" stroke-width="0" fill="#333333"></rect><rect x="115" y="299" width="371" height="1" stroke="none" stroke-width="0" fill="#333333"></rect></g><g><path d="M152.5,126.22000000000003L226.5,126.22000000000003L300.5,126.22000000000003L374.5,126.22000000000003L448.5,126.22000000000003" stroke="#ea9999" stroke-width="2" fill-opacity="1" fill="none"></path><path d="M152.5,239.39065L226.5,288.77602L300.5,274.54141L374.5,132.02659L448.5,262.63752999999997" stroke="#5b0f00" stroke-width="2" fill-opacity="1" fill="none"></path></g><g><rect x="141" y="75" width="1" height="0" stroke="none" stroke-width="0" fill="#999999"></rect><rect x="215" y="76" width="1" height="0" stroke="none" stroke-width="0" fill="#999999"></rect><rect x="289" y="81" width="1" height="0" stroke="none" stroke-width="0" fill="#999999"></rect><rect x="363" y="85" width="1" height="0" stroke="none" stroke-width="0" fill="#999999"></rect><rect x="437" y="200" width="1" height="0" stroke="none" stroke-width="0" fill="#999999"></rect><rect x="164" y="127" width="1" height="0" stroke="none" stroke-width="0" fill="#999999"></rect><rect x="238" y="134" width="1" height="0" stroke="none" stroke-width="0" fill="#999999"></rect><rect x="312" y="139" width="1" height="0" stroke="none" stroke-width="0" fill="#999999"></rect><rect x="386" y="144" width="1" height="0" stroke="none" stroke-width="0" fill="#999999"></rect><rect x="460" y="210" width="1" height="0" stroke="none" stroke-width="0" fill="#999999"></rect><rect x="152.5" y="227.39065" width="1" height="12" stroke="none" stroke-width="0" fill="#999999"></rect><rect x="226.5" y="276.77602" width="1" height="12" stroke="none" stroke-width="0" fill="#999999"></rect><rect x="300.5" y="262.54141" width="1" height="12" stroke="none" stroke-width="0" fill="#999999"></rect><rect x="374.5" y="120.02659" width="1" height="12" stroke="none" stroke-width="0" fill="#999999"></rect><rect x="448.5" y="250.63752999999997" width="1" height="12" stroke="none" stroke-width="0" fill="#999999"></rect></g></g><g><circle cx="152.5" cy="239.39065" r="2" stroke="none" stroke-width="0" fill="#5b0f00"></circle><circle cx="226.5" cy="288.77602" r="2" stroke="none" stroke-width="0" fill="#5b0f00"></circle><circle cx="300.5" cy="274.54141" r="2" stroke="none" stroke-width="0" fill="#5b0f00"></circle><circle cx="374.5" cy="132.02659" r="2" stroke="none" stroke-width="0" fill="#5b0f00"></circle><circle cx="448.5" cy="262.63752999999997" r="2" stroke="none" stroke-width="0" fill="#5b0f00"></circle></g><g><g><text text-anchor="middle" x="152.5" y="317.2" font-family="Arial" font-size="12" stroke="none" stroke-width="0" fill="#222222">elf</text></g><g><text text-anchor="middle" x="226.5" y="333.2" font-family="Arial" font-size="12" stroke="none" stroke-width="0" fill="#222222">no substring</text></g><g><text text-anchor="middle" x="300.5" y="317.2" font-family="Arial" font-size="12" stroke="none" stroke-width="0" fill="#222222">substring</text></g><g><text text-anchor="middle" x="374.5" y="333.2" font-family="Arial" font-size="12" stroke="none" stroke-width="0" fill="#222222">+invent</text></g><g><text text-anchor="middle" x="448.5" y="317.2" font-family="Arial" font-size="12" stroke="none" stroke-width="0" fill="#222222">+backwards</text></g><g><text text-anchor="end" x="103" y="303.7" font-family="Arial" font-size="12" stroke="none" stroke-width="0" fill="#444444">0</text></g><g><text text-anchor="end" x="103" y="246.7" font-family="Arial" font-size="12" stroke="none" stroke-width="0" fill="#444444">100</text></g><g><text text-anchor="end" x="103" y="189.7" font-family="Arial" font-size="12" stroke="none" stroke-width="0" fill="#444444">200</text></g><g><text text-anchor="end" x="103" y="132.70000000000002" font-family="Arial" font-size="12" stroke="none" stroke-width="0" fill="#444444">300</text></g><g><text text-anchor="end" x="103" y="75.70000000000003" font-family="Arial" font-size="12" stroke="none" stroke-width="0" fill="#444444">400</text></g><g><text text-anchor="start" x="498" y="303.7" font-family="Arial" font-size="12" stroke="none" stroke-width="0" fill="#444444">0 sec</text></g><g><text text-anchor="start" x="498" y="246.7" font-family="Arial" font-size="12" stroke="none" stroke-width="0" fill="#444444">1000 sec</text></g><g><text text-anchor="start" x="498" y="189.7" font-family="Arial" font-size="12" stroke="none" stroke-width="0" fill="#444444">2000 sec</text></g><g><text text-anchor="start" x="498" y="132.7" font-family="Arial" font-size="12" stroke="none" stroke-width="0" fill="#444444">3000 sec</text></g><g><text text-anchor="start" x="498" y="75.7" font-family="Arial" font-size="12" stroke="none" stroke-width="0" fill="#444444">4000 sec</text></g></g><g><g><g><text text-anchor="middle" x="141" y="87.2" font-family="Arial" font-size="12" stroke="none" stroke-width="0" fill="#ffffff">394</text><rect x="131" y="77" width="20" height="12" stroke="none" stroke-width="0" fill-opacity="0" fill="#ffffff"></rect></g></g><g><g><text text-anchor="middle" x="215" y="88.2" font-family="Arial" font-size="12" stroke="none" stroke-width="0" fill="#ffffff">393</text><rect x="205" y="78" width="20" height="12" stroke="none" stroke-width="0" fill-opacity="0" fill="#ffffff"></rect></g></g><g><g><text text-anchor="middle" x="289" y="93.2" font-family="Arial" font-size="12" stroke="none" stroke-width="0" fill="#ffffff">385</text><rect x="279" y="83" width="20" height="12" stroke="none" stroke-width="0" fill-opacity="0" fill="#ffffff"></rect></g></g><g><g><text text-anchor="middle" x="363" y="97.2" font-family="Arial" font-size="12" stroke="none" stroke-width="0" fill="#ffffff">378</text><rect x="353" y="87" width="20" height="12" stroke="none" stroke-width="0" fill-opacity="0" fill="#ffffff"></rect></g></g><g><g><text text-anchor="middle" x="437" y="212.2" font-family="Arial" font-size="12" stroke="none" stroke-width="0" fill="#ffffff">176</text><rect x="427" y="202" width="20" height="12" stroke="none" stroke-width="0" fill-opacity="0" fill="#ffffff"></rect></g></g><g><g><text text-anchor="middle" x="164" y="139.2" font-family="Arial" font-size="12" stroke="none" stroke-width="0" fill="#404040">304</text><rect x="154" y="129" width="20" height="12" stroke="none" stroke-width="0" fill-opacity="0" fill="#ffffff"></rect></g></g><g><g><text text-anchor="middle" x="238" y="146.2" font-family="Arial" font-size="12" stroke="none" stroke-width="0" fill="#404040">291</text><rect x="228" y="136" width="20" height="12" stroke="none" stroke-width="0" fill-opacity="0" fill="#ffffff"></rect></g></g><g><g><text text-anchor="middle" x="312" y="151.2" font-family="Arial" font-size="12" stroke="none" stroke-width="0" fill="#404040">282</text><rect x="302" y="141" width="20" height="12" stroke="none" stroke-width="0" fill-opacity="0" fill="#ffffff"></rect></g></g><g><g><text text-anchor="middle" x="386" y="156.2" font-family="Arial" font-size="12" stroke="none" stroke-width="0" fill="#404040">273</text><rect x="376" y="146" width="20" height="12" stroke="none" stroke-width="0" fill-opacity="0" fill="#ffffff"></rect></g></g><g><g><text text-anchor="middle" x="460" y="222.2" font-family="Arial" font-size="12" stroke="none" stroke-width="0" fill="#404040">158</text><rect x="450" y="212" width="20" height="12" stroke="none" stroke-width="0" fill-opacity="0" fill="#ffffff"></rect></g></g><g><g><rect x="125.5" y="214.5" width="55" height="14" stroke="none" stroke-width="0" fill-opacity="0" fill="#ffffff"></rect><g><text text-anchor="middle" x="152.5" y="225.59064999999998" font-family="Arial" font-size="12" stroke="#ffffff" stroke-width="3" fill="#5b0f00" aria-hidden="true">1054.55s</text><text text-anchor="middle" x="152.5" y="225.59064999999998" font-family="Arial" font-size="12" stroke="none" stroke-width="0" fill="#5b0f00">1054.55s</text></g><rect x="128" y="215.39065" width="49" height="12" stroke="none" stroke-width="0" fill-opacity="0" fill="#ffffff"></rect></g></g><g><g><rect x="202.5" y="263.5" width="49" height="14" stroke="none" stroke-width="0" fill-opacity="0" fill="#ffffff"></rect><g><text text-anchor="middle" x="226.5" y="274.97602" font-family="Arial" font-size="12" stroke="#ffffff" stroke-width="3" fill="#5b0f00" aria-hidden="true">188.14s</text><text text-anchor="middle" x="226.5" y="274.97602" font-family="Arial" font-size="12" stroke="none" stroke-width="0" fill="#5b0f00">188.14s</text></g><rect x="205" y="264.77602" width="43" height="12" stroke="none" stroke-width="0" fill-opacity="0" fill="#ffffff"></rect></g></g><g><g><rect x="276.5" y="249.5" width="49" height="14" stroke="none" stroke-width="0" fill-opacity="0" fill="#ffffff"></rect><g><text text-anchor="middle" x="300.5" y="260.74141" font-family="Arial" font-size="12" stroke="#ffffff" stroke-width="3" fill="#5b0f00" aria-hidden="true">437.87s</text><text text-anchor="middle" x="300.5" y="260.74141" font-family="Arial" font-size="12" stroke="none" stroke-width="0" fill="#5b0f00">437.87s</text></g><rect x="279" y="250.54140999999998" width="43" height="12" stroke="none" stroke-width="0" fill-opacity="0" fill="#ffffff"></rect></g></g><g><g><rect x="347.5" y="107.5" width="55" height="14" stroke="none" stroke-width="0" fill-opacity="0" fill="#ffffff"></rect><g><text text-anchor="middle" x="374.5" y="118.22659" font-family="Arial" font-size="12" stroke="#ffffff" stroke-width="3" fill="#5b0f00" aria-hidden="true">2938.13s</text><text text-anchor="middle" x="374.5" y="118.22659" font-family="Arial" font-size="12" stroke="none" stroke-width="0" fill="#5b0f00">2938.13s</text></g><rect x="350" y="108.02659" width="49" height="12" stroke="none" stroke-width="0" fill-opacity="0" fill="#ffffff"></rect></g></g><g><g><rect x="424.5" y="237.5" width="49" height="14" stroke="none" stroke-width="0" fill-opacity="0" fill="#ffffff"></rect><g><text text-anchor="middle" x="448.5" y="248.83752999999996" font-family="Arial" font-size="12" stroke="#ffffff" stroke-width="3" fill="#5b0f00" aria-hidden="true">646.71s</text><text text-anchor="middle" x="448.5" y="248.83752999999996" font-family="Arial" font-size="12" stroke="none" stroke-width="0" fill="#5b0f00">646.71s</text></g><rect x="427" y="238.63752999999997" width="43" height="12" stroke="none" stroke-width="0" fill-opacity="0" fill="#ffffff"></rect></g></g></g></g><g><g><text text-anchor="middle" x="45.7" y="185.5" font-family="Arial" font-size="12" font-style="italic" transform="rotate(-90 45.7 185.5)" stroke="none" stroke-width="0" fill="#222222"># missing call-graph edges</text></g></g><g></g></svg>