<svg width="600" height="371" aria-label="A chart." style="overflow: hidden;"><defs id="defs"><clipPath id="_ABSTRACT_RENDERER_ID_1314"><rect x="115" y="71" width="371" height="229"></rect></clipPath></defs><rect x="0" y="0" width="600" height="371" stroke="none" stroke-width="0" fill="#ffffff"></rect><g><g><text text-anchor="start" x="115" y="31.6" font-family="Arial" font-size="16" font-weight="bold" stroke="#ffffff" stroke-width="3" fill="#000000" aria-hidden="true">eclipse</text><text text-anchor="start" x="115" y="31.6" font-family="Arial" font-size="16" font-weight="bold" stroke="none" stroke-width="0" fill="#000000">eclipse</text></g></g><g><rect x="115" y="41" width="361" height="12" stroke="none" stroke-width="0" fill-opacity="0" fill="#ffffff"></rect><g><rect x="115" y="41" width="75" height="12" stroke="none" stroke-width="0" fill-opacity="0" fill="#ffffff"></rect><g><text text-anchor="start" x="132" y="51.2" font-family="Arial" font-size="12" stroke="none" stroke-width="0" fill="#222222">app-to-app</text></g><rect x="115" y="41" width="12" height="12" stroke="none" stroke-width="0" fill="#3366cc"></rect></g><g><rect x="209" y="41" width="67" height="12" stroke="none" stroke-width="0" fill-opacity="0" fill="#ffffff"></rect><g><text text-anchor="start" x="226" y="51.2" font-family="Arial" font-size="12" stroke="none" stroke-width="0" fill="#222222">app-to-lib</text></g><rect x="209" y="41" width="12" height="12" stroke="none" stroke-width="0" fill="#e06666"></rect></g><g><rect x="295" y="41" width="39" height="12" stroke="none" stroke-width="0" fill-opacity="0" fill="#ffffff"></rect><g><text text-anchor="start" x="312" y="51.2" font-family="Arial" font-size="12" stroke="none" stroke-width="0" fill="#222222">time</text></g><rect x="295" y="41" width="12" height="12" stroke="none" stroke-width="0" fill="#980000"></rect></g></g><g><rect x="115" y="71" width="371" height="229" stroke="none" stroke-width="0" fill-opacity="0" fill="#ffffff"></rect><g clip-path="url(#_ABSTRACT_RENDERER_ID_1314)"><g><rect x="115" y="299" width="371" height="1" stroke="none" stroke-width="0" fill="#cccccc"></rect><rect x="115" y="242" width="371" height="1" stroke="none" stroke-width="0" fill="#cccccc"></rect><rect x="115" y="185" width="371" height="1" stroke="none" stroke-width="0" fill="#cccccc"></rect><rect x="115" y="128" width="371" height="1" stroke="none" stroke-width="0" fill="#cccccc"></rect><rect x="115" y="71" width="371" height="1" stroke="none" stroke-width="0" fill="#cccccc"></rect><rect x="115" y="299" width="371" height="1" stroke="none" stroke-width="0" fill="#cccccc"></rect><rect x="115" y="242" width="371" height="1" stroke="none" stroke-width="0" fill="#cccccc"></rect><rect x="115" y="185" width="371" height="1" stroke="none" stroke-width="0" fill="#cccccc"></rect><rect x="115" y="128" width="371" height="1" stroke="none" stroke-width="0" fill="#cccccc"></rect><rect x="115" y="71" width="371" height="1" stroke="none" stroke-width="0" fill="#cccccc"></rect></g><g><g><path d="M152.5,299.5L152.5,265.4596L226.5,265.4596L300.5,265.4596L374.5,265.4596L448.5,265.4596L448.5,299.5Z" stroke="none" stroke-width="0" fill-opacity="0.3" fill="#e06666"></path></g></g><g><g><rect x="115" y="133.6642" width="74" height="165.8358" stroke="none" stroke-width="0" fill-opacity="0.3" fill="#1155cc"></rect><path d="M115,133.6642L189,133.6642" stroke="#1155cc" stroke-width="2" fill-opacity="1" fill="none"></path></g><g><rect x="189" y="133.6642" width="74" height="165.8358" stroke="none" stroke-width="0" fill-opacity="0.3" fill="#1155cc"></rect><path d="M189,133.6642L189,133.6642L263,133.6642" stroke="#1155cc" stroke-width="2" fill-opacity="1" fill="none"></path></g><g><rect x="263" y="133.6642" width="74" height="165.8358" stroke="none" stroke-width="0" fill-opacity="0.3" fill="#1155cc"></rect><path d="M263,133.6642L263,133.6642L337,133.6642" stroke="#1155cc" stroke-width="2" fill-opacity="1" fill="none"></path></g><g><rect x="337" y="133.6642" width="74" height="165.8358" stroke="none" stroke-width="0" fill-opacity="0.3" fill="#1155cc"></rect><path d="M337,133.6642L337,133.6642L411,133.6642" stroke="#1155cc" stroke-width="2" fill-opacity="1" fill="none"></path></g><g><rect x="411" y="133.6642" width="74" height="165.8358" stroke="none" stroke-width="0" fill-opacity="0.3" fill="#1155cc"></rect><path d="M411,133.6642L411,133.6642L485,133.6642" stroke="#1155cc" stroke-width="2" fill-opacity="1" fill="none"></path></g></g><g><rect x="130" y="134" width="22" height="165" stroke="none" stroke-width="0" fill="#3366cc"></rect><rect x="204" y="134" width="22" height="165" stroke="none" stroke-width="0" fill="#3366cc"></rect><rect x="278" y="244" width="22" height="55" stroke="none" stroke-width="0" fill="#3366cc"></rect><rect x="352" y="244" width="22" height="55" stroke="none" stroke-width="0" fill="#3366cc"></rect><rect x="426" y="244" width="22" height="55" stroke="none" stroke-width="0" fill="#3366cc"></rect><rect x="153" y="266" width="22" height="33" stroke="none" stroke-width="0" fill="#e06666"></rect><rect x="227" y="266" width="22" height="33" stroke="none" stroke-width="0" fill="#e06666"></rect><rect x="301" y="280" width="22" height="19" stroke="none" stroke-width="0" fill="#e06666"></rect><rect x="375" y="280" width="22" height="19" stroke="none" stroke-width="0" fill="#e06666"></rect><rect x="449" y="280" width="22" height="19" stroke="none" stroke-width="0" fill="#e06666"></rect></g><g><rect x="115" y="299" width="371" height="1" stroke="none" stroke-width="0" fill="#333333"></rect><rect x="115" y="299" width="371" height="1" stroke="none" stroke-width="0" fill="#333333"></rect></g><g><path d="M152.5,265.4596L226.5,265.4596L300.5,265.4596L374.5,265.4596L448.5,265.4596" stroke="#e06666" stroke-width="2" fill-opacity="1" fill="none"></path><path d="M152.5,81.59089999999998L226.5,284.51375L300.5,154.47490000000002L374.5,142.0299L448.5,99.36255" stroke="#980000" stroke-width="2" fill-opacity="1" fill="none"></path></g><g><rect x="141" y="122" width="1" height="12" stroke="none" stroke-width="0" fill="#999999"></rect><rect x="215" y="122" width="1" height="12" stroke="none" stroke-width="0" fill="#999999"></rect><rect x="289" y="232" width="1" height="12" stroke="none" stroke-width="0" fill="#999999"></rect><rect x="363" y="232" width="1" height="12" stroke="none" stroke-width="0" fill="#999999"></rect><rect x="437" y="232" width="1" height="12" stroke="none" stroke-width="0" fill="#999999"></rect><rect x="164" y="254" width="1" height="12" stroke="none" stroke-width="0" fill="#999999"></rect><rect x="238" y="254" width="1" height="12" stroke="none" stroke-width="0" fill="#999999"></rect><rect x="312" y="268" width="1" height="12" stroke="none" stroke-width="0" fill="#999999"></rect><rect x="386" y="268" width="1" height="12" stroke="none" stroke-width="0" fill="#999999"></rect><rect x="460" y="268" width="1" height="12" stroke="none" stroke-width="0" fill="#999999"></rect><rect x="152.5" y="81.59089999999998" width="1" height="12" stroke="none" stroke-width="0" fill="#999999"></rect><rect x="226.5" y="272.51375" width="1" height="12" stroke="none" stroke-width="0" fill="#999999"></rect><rect x="300.5" y="142.47490000000002" width="1" height="12" stroke="none" stroke-width="0" fill="#999999"></rect><rect x="374.5" y="130.0299" width="1" height="12" stroke="none" stroke-width="0" fill="#999999"></rect><rect x="448.5" y="87.36255" width="1" height="12" stroke="none" stroke-width="0" fill="#999999"></rect></g></g><g><circle cx="152.5" cy="81.59089999999998" r="2" stroke="none" stroke-width="0" fill="#980000"></circle><circle cx="226.5" cy="284.51375" r="2" stroke="none" stroke-width="0" fill="#980000"></circle><circle cx="300.5" cy="154.47490000000002" r="2" stroke="none" stroke-width="0" fill="#980000"></circle><circle cx="374.5" cy="142.0299" r="2" stroke="none" stroke-width="0" fill="#980000"></circle><circle cx="448.5" cy="99.36255" r="2" stroke="none" stroke-width="0" fill="#980000"></circle></g><g><g><g><text text-anchor="middle" x="152.5" y="317.2" font-family="Arial" font-size="12" stroke="#ffffff" stroke-width="3" fill="#222222" aria-hidden="true">elf</text><text text-anchor="middle" x="152.5" y="317.2" font-family="Arial" font-size="12" stroke="none" stroke-width="0" fill="#222222">elf</text></g></g><g><g><text text-anchor="middle" x="226.5" y="333.2" font-family="Arial" font-size="12" stroke="#ffffff" stroke-width="3" fill="#222222" aria-hidden="true">no substring</text><text text-anchor="middle" x="226.5" y="333.2" font-family="Arial" font-size="12" stroke="none" stroke-width="0" fill="#222222">no substring</text></g></g><g><g><text text-anchor="middle" x="300.5" y="317.2" font-family="Arial" font-size="12" stroke="#ffffff" stroke-width="3" fill="#222222" aria-hidden="true">substring</text><text text-anchor="middle" x="300.5" y="317.2" font-family="Arial" font-size="12" stroke="none" stroke-width="0" fill="#222222">substring</text></g></g><g><g><text text-anchor="middle" x="374.5" y="333.2" font-family="Arial" font-size="12" stroke="#ffffff" stroke-width="3" fill="#222222" aria-hidden="true">+invent</text><text text-anchor="middle" x="374.5" y="333.2" font-family="Arial" font-size="12" stroke="none" stroke-width="0" fill="#222222">+invent</text></g></g><g><g><text text-anchor="middle" x="448.5" y="317.2" font-family="Arial" font-size="12" stroke="#ffffff" stroke-width="3" fill="#222222" aria-hidden="true">+backwards</text><text text-anchor="middle" x="448.5" y="317.2" font-family="Arial" font-size="12" stroke="none" stroke-width="0" fill="#222222">+backwards</text></g></g><g><g><text text-anchor="end" x="103" y="303.7" font-family="Arial" font-size="12" stroke="#ffffff" stroke-width="3" fill="#444444" aria-hidden="true">0</text><text text-anchor="end" x="103" y="303.7" font-family="Arial" font-size="12" stroke="none" stroke-width="0" fill="#444444">0</text></g></g><g><g><text text-anchor="end" x="103" y="246.7" font-family="Arial" font-size="12" stroke="#ffffff" stroke-width="3" fill="#444444" aria-hidden="true">10000</text><text text-anchor="end" x="103" y="246.7" font-family="Arial" font-size="12" stroke="none" stroke-width="0" fill="#444444">10000</text></g></g><g><g><text text-anchor="end" x="103" y="189.7" font-family="Arial" font-size="12" stroke="#ffffff" stroke-width="3" fill="#444444" aria-hidden="true">20000</text><text text-anchor="end" x="103" y="189.7" font-family="Arial" font-size="12" stroke="none" stroke-width="0" fill="#444444">20000</text></g></g><g><g><text text-anchor="end" x="103" y="132.7" font-family="Arial" font-size="12" stroke="#ffffff" stroke-width="3" fill="#444444" aria-hidden="true">30000</text><text text-anchor="end" x="103" y="132.7" font-family="Arial" font-size="12" stroke="none" stroke-width="0" fill="#444444">30000</text></g></g><g><g><text text-anchor="end" x="103" y="75.7" font-family="Arial" font-size="12" stroke="#ffffff" stroke-width="3" fill="#444444" aria-hidden="true">40000</text><text text-anchor="end" x="103" y="75.7" font-family="Arial" font-size="12" stroke="none" stroke-width="0" fill="#444444">40000</text></g></g><g><g><text text-anchor="start" x="498" y="303.7" font-family="Arial" font-size="12" stroke="#ffffff" stroke-width="3" fill="#444444" aria-hidden="true">0 sec</text><text text-anchor="start" x="498" y="303.7" font-family="Arial" font-size="12" stroke="none" stroke-width="0" fill="#444444">0 sec</text></g></g><g><g><text text-anchor="start" x="498" y="246.7" font-family="Arial" font-size="12" stroke="#ffffff" stroke-width="3" fill="#444444" aria-hidden="true">600 sec</text><text text-anchor="start" x="498" y="246.7" font-family="Arial" font-size="12" stroke="none" stroke-width="0" fill="#444444">600 sec</text></g></g><g><g><text text-anchor="start" x="498" y="189.7" font-family="Arial" font-size="12" stroke="#ffffff" stroke-width="3" fill="#444444" aria-hidden="true">1200 sec</text><text text-anchor="start" x="498" y="189.7" font-family="Arial" font-size="12" stroke="none" stroke-width="0" fill="#444444">1200 sec</text></g></g><g><g><text text-anchor="start" x="498" y="132.7" font-family="Arial" font-size="12" stroke="#ffffff" stroke-width="3" fill="#444444" aria-hidden="true">1800 sec</text><text text-anchor="start" x="498" y="132.7" font-family="Arial" font-size="12" stroke="none" stroke-width="0" fill="#444444">1800 sec</text></g></g><g><g><text text-anchor="start" x="498" y="75.7" font-family="Arial" font-size="12" stroke="#ffffff" stroke-width="3" fill="#444444" aria-hidden="true">2400 sec</text><text text-anchor="start" x="498" y="75.7" font-family="Arial" font-size="12" stroke="none" stroke-width="0" fill="#444444">2400 sec</text></g></g></g><g><g><g><rect x="111.5" y="109.5" width="38" height="14" stroke="none" stroke-width="0" fill-opacity="0" fill="#ffffff"></rect><g><text text-anchor="middle" x="130" y="120.2" font-family="Arial" font-size="12" stroke="#ffffff" stroke-width="3" fill="#3366cc" aria-hidden="true">29094</text><text text-anchor="middle" x="130" y="120.2" font-family="Arial" font-size="12" stroke="none" stroke-width="0" fill="#3366cc">29094</text></g><rect x="113.5" y="110" width="33" height="12" stroke="none" stroke-width="0" fill-opacity="0" fill="#ffffff"></rect></g></g><g><g><rect x="185.5" y="109.5" width="38" height="14" stroke="none" stroke-width="0" fill-opacity="0" fill="#ffffff"></rect><g><text text-anchor="middle" x="204" y="120.2" font-family="Arial" font-size="12" stroke="#ffffff" stroke-width="3" fill="#3366cc" aria-hidden="true">29099</text><text text-anchor="middle" x="204" y="120.2" font-family="Arial" font-size="12" stroke="none" stroke-width="0" fill="#3366cc">29099</text></g><rect x="187.5" y="110" width="33" height="12" stroke="none" stroke-width="0" fill-opacity="0" fill="#ffffff"></rect></g></g><g><g><rect x="262.5" y="219.5" width="32" height="14" stroke="none" stroke-width="0" fill-opacity="0" fill="#ffffff"></rect><g><text text-anchor="middle" x="278" y="230.2" font-family="Arial" font-size="12" stroke="#ffffff" stroke-width="3" fill="#3366cc" aria-hidden="true">9794</text><text text-anchor="middle" x="278" y="230.2" font-family="Arial" font-size="12" stroke="none" stroke-width="0" fill="#3366cc">9794</text></g><rect x="264.5" y="220" width="27" height="12" stroke="none" stroke-width="0" fill-opacity="0" fill="#ffffff"></rect></g></g><g><g><rect x="336.5" y="219.5" width="32" height="14" stroke="none" stroke-width="0" fill-opacity="0" fill="#ffffff"></rect><g><text text-anchor="middle" x="352" y="230.2" font-family="Arial" font-size="12" stroke="#ffffff" stroke-width="3" fill="#3366cc" aria-hidden="true">9775</text><text text-anchor="middle" x="352" y="230.2" font-family="Arial" font-size="12" stroke="none" stroke-width="0" fill="#3366cc">9775</text></g><rect x="338.5" y="220" width="27" height="12" stroke="none" stroke-width="0" fill-opacity="0" fill="#ffffff"></rect></g></g><g><g><rect x="410.5" y="219.5" width="32" height="14" stroke="none" stroke-width="0" fill-opacity="0" fill="#ffffff"></rect><g><text text-anchor="middle" x="426" y="230.2" font-family="Arial" font-size="12" stroke="#ffffff" stroke-width="3" fill="#3366cc" aria-hidden="true">9793</text><text text-anchor="middle" x="426" y="230.2" font-family="Arial" font-size="12" stroke="none" stroke-width="0" fill="#3366cc">9793</text></g><rect x="412.5" y="220" width="27" height="12" stroke="none" stroke-width="0" fill-opacity="0" fill="#ffffff"></rect></g></g><g><g><rect x="137.5" y="241.5" width="32" height="14" stroke="none" stroke-width="0" fill-opacity="0" fill="#ffffff"></rect><g><text text-anchor="middle" x="153" y="252.2" font-family="Arial" font-size="12" stroke="#ffffff" stroke-width="3" fill="#e06666" aria-hidden="true">5972</text><text text-anchor="middle" x="153" y="252.2" font-family="Arial" font-size="12" stroke="none" stroke-width="0" fill="#e06666">5972</text></g><rect x="139.5" y="242" width="27" height="12" stroke="none" stroke-width="0" fill-opacity="0" fill="#ffffff"></rect></g></g><g><g><rect x="211.5" y="241.5" width="32" height="14" stroke="none" stroke-width="0" fill-opacity="0" fill="#ffffff"></rect><g><text text-anchor="middle" x="227" y="252.2" font-family="Arial" font-size="12" stroke="#ffffff" stroke-width="3" fill="#e06666" aria-hidden="true">5980</text><text text-anchor="middle" x="227" y="252.2" font-family="Arial" font-size="12" stroke="none" stroke-width="0" fill="#e06666">5980</text></g><rect x="213.5" y="242" width="27" height="12" stroke="none" stroke-width="0" fill-opacity="0" fill="#ffffff"></rect></g></g><g><g><rect x="285.5" y="255.5" width="32" height="14" stroke="none" stroke-width="0" fill-opacity="0" fill="#ffffff"></rect><g><text text-anchor="middle" x="301" y="266.2" font-family="Arial" font-size="12" stroke="#ffffff" stroke-width="3" fill="#e06666" aria-hidden="true">3465</text><text text-anchor="middle" x="301" y="266.2" font-family="Arial" font-size="12" stroke="none" stroke-width="0" fill="#e06666">3465</text></g><rect x="287.5" y="256" width="27" height="12" stroke="none" stroke-width="0" fill-opacity="0" fill="#ffffff"></rect></g></g><g><g><rect x="359.5" y="255.5" width="32" height="14" stroke="none" stroke-width="0" fill-opacity="0" fill="#ffffff"></rect><g><text text-anchor="middle" x="375" y="266.2" font-family="Arial" font-size="12" stroke="#ffffff" stroke-width="3" fill="#e06666" aria-hidden="true">3455</text><text text-anchor="middle" x="375" y="266.2" font-family="Arial" font-size="12" stroke="none" stroke-width="0" fill="#e06666">3455</text></g><rect x="361.5" y="256" width="27" height="12" stroke="none" stroke-width="0" fill-opacity="0" fill="#ffffff"></rect></g></g><g><g><rect x="433.5" y="255.5" width="32" height="14" stroke="none" stroke-width="0" fill-opacity="0" fill="#ffffff"></rect><g><text text-anchor="middle" x="449" y="266.2" font-family="Arial" font-size="12" stroke="#ffffff" stroke-width="3" fill="#e06666" aria-hidden="true">3439</text><text text-anchor="middle" x="449" y="266.2" font-family="Arial" font-size="12" stroke="none" stroke-width="0" fill="#e06666">3439</text></g><rect x="435.5" y="256" width="27" height="12" stroke="none" stroke-width="0" fill-opacity="0" fill="#ffffff"></rect></g></g><g><g><rect x="125.5" y="92.5" width="55" height="14" stroke="none" stroke-width="0" fill-opacity="0" fill="#ffffff"></rect><g><text text-anchor="middle" x="152.5" y="103.79089999999998" font-family="Arial" font-size="12" stroke="#ffffff" stroke-width="3" fill="#980000" aria-hidden="true">2293.78s</text><text text-anchor="middle" x="152.5" y="103.79089999999998" font-family="Arial" font-size="12" stroke="none" stroke-width="0" fill="#980000">2293.78s</text></g><rect x="128" y="93.59089999999998" width="49" height="12" stroke="none" stroke-width="0" fill-opacity="0" fill="#ffffff"></rect></g></g><g><g><rect x="202.5" y="259.5" width="49" height="14" stroke="none" stroke-width="0" fill-opacity="0" fill="#ffffff"></rect><g><text text-anchor="middle" x="226.5" y="270.71375" font-family="Arial" font-size="12" stroke="#ffffff" stroke-width="3" fill="#980000" aria-hidden="true">157.75s</text><text text-anchor="middle" x="226.5" y="270.71375" font-family="Arial" font-size="12" stroke="none" stroke-width="0" fill="#980000">157.75s</text></g><rect x="205" y="260.51375" width="43" height="12" stroke="none" stroke-width="0" fill-opacity="0" fill="#ffffff"></rect></g></g><g><g><rect x="273.5" y="129.5" width="55" height="14" stroke="none" stroke-width="0" fill-opacity="0" fill="#ffffff"></rect><g><text text-anchor="middle" x="300.5" y="140.6749" font-family="Arial" font-size="12" stroke="#ffffff" stroke-width="3" fill="#980000" aria-hidden="true">1526.58s</text><text text-anchor="middle" x="300.5" y="140.6749" font-family="Arial" font-size="12" stroke="none" stroke-width="0" fill="#980000">1526.58s</text></g><rect x="276" y="130.47490000000002" width="49" height="12" stroke="none" stroke-width="0" fill-opacity="0" fill="#ffffff"></rect></g></g><g><g><rect x="347.5" y="117.5" width="55" height="14" stroke="none" stroke-width="0" fill-opacity="0" fill="#ffffff"></rect><g><text text-anchor="middle" x="374.5" y="128.2299" font-family="Arial" font-size="12" stroke="#ffffff" stroke-width="3" fill="#980000" aria-hidden="true">1657.58s</text><text text-anchor="middle" x="374.5" y="128.2299" font-family="Arial" font-size="12" stroke="none" stroke-width="0" fill="#980000">1657.58s</text></g><rect x="350" y="118.0299" width="49" height="12" stroke="none" stroke-width="0" fill-opacity="0" fill="#ffffff"></rect></g></g><g><g><rect x="421.5" y="74.5" width="55" height="14" stroke="none" stroke-width="0" fill-opacity="0" fill="#ffffff"></rect><g><text text-anchor="middle" x="448.5" y="85.56255" font-family="Arial" font-size="12" stroke="#ffffff" stroke-width="3" fill="#980000" aria-hidden="true">2106.71s</text><text text-anchor="middle" x="448.5" y="85.56255" font-family="Arial" font-size="12" stroke="none" stroke-width="0" fill="#980000">2106.71s</text></g><rect x="424" y="75.36255" width="49" height="12" stroke="none" stroke-width="0" fill-opacity="0" fill="#ffffff"></rect></g></g></g></g><g><g><g><text text-anchor="middle" x="39.2" y="185.5" font-family="Arial" font-size="12" font-style="italic" transform="rotate(-90 39.2 185.5)" stroke="#ffffff" stroke-width="3" fill="#222222" aria-hidden="true"># missing edges</text><text text-anchor="middle" x="39.2" y="185.5" font-family="Arial" font-size="12" font-style="italic" transform="rotate(-90 39.2 185.5)" stroke="none" stroke-width="0" fill="#222222"># missing edges</text></g></g></g><g></g></svg>
