<svg width="600" height="371" aria-label="A chart." style="overflow: hidden;"><defs id="defs"><clipPath id="_ABSTRACT_RENDERER_ID_1591"><rect x="115" y="71" width="371" height="229"></rect></clipPath></defs><rect x="0" y="0" width="600" height="371" stroke="none" stroke-width="0" fill="#ffffff"></rect><g><g><text text-anchor="start" x="115" y="31.6" font-family="Arial" font-size="16" font-weight="bold" stroke="#ffffff" stroke-width="3" fill="#000000" aria-hidden="true">h2</text><text text-anchor="start" x="115" y="31.6" font-family="Arial" font-size="16" font-weight="bold" stroke="none" stroke-width="0" fill="#000000">h2</text></g></g><g><rect x="115" y="41" width="361" height="12" stroke="none" stroke-width="0" fill-opacity="0" fill="#ffffff"></rect><g><rect x="115" y="41" width="75" height="12" stroke="none" stroke-width="0" fill-opacity="0" fill="#ffffff"></rect><g><text text-anchor="start" x="132" y="51.2" font-family="Arial" font-size="12" stroke="none" stroke-width="0" fill="#222222">app-to-app</text></g><rect x="115" y="41" width="12" height="12" stroke="none" stroke-width="0" fill="#3366cc"></rect></g><g><rect x="209" y="41" width="67" height="12" stroke="none" stroke-width="0" fill-opacity="0" fill="#ffffff"></rect><g><text text-anchor="start" x="226" y="51.2" font-family="Arial" font-size="12" stroke="none" stroke-width="0" fill="#222222">app-to-lib</text></g><rect x="209" y="41" width="12" height="12" stroke="none" stroke-width="0" fill="#e06666"></rect></g><g><rect x="295" y="41" width="39" height="12" stroke="none" stroke-width="0" fill-opacity="0" fill="#ffffff"></rect><g><text text-anchor="start" x="312" y="51.2" font-family="Arial" font-size="12" stroke="none" stroke-width="0" fill="#222222">time</text></g><rect x="295" y="41" width="12" height="12" stroke="none" stroke-width="0" fill="#980000"></rect></g></g><g><rect x="115" y="71" width="371" height="229" stroke="none" stroke-width="0" fill-opacity="0" fill="#ffffff"></rect><g clip-path="url(#_ABSTRACT_RENDERER_ID_1591)"><g><rect x="115" y="299" width="371" height="1" stroke="none" stroke-width="0" fill="#cccccc"></rect><rect x="115" y="242" width="371" height="1" stroke="none" stroke-width="0" fill="#cccccc"></rect><rect x="115" y="185" width="371" height="1" stroke="none" stroke-width="0" fill="#cccccc"></rect><rect x="115" y="128" width="371" height="1" stroke="none" stroke-width="0" fill="#cccccc"></rect><rect x="115" y="71" width="371" height="1" stroke="none" stroke-width="0" fill="#cccccc"></rect><rect x="115" y="299" width="371" height="1" stroke="none" stroke-width="0" fill="#cccccc"></rect><rect x="115" y="242" width="371" height="1" stroke="none" stroke-width="0" fill="#cccccc"></rect><rect x="115" y="185" width="371" height="1" stroke="none" stroke-width="0" fill="#cccccc"></rect><rect x="115" y="128" width="371" height="1" stroke="none" stroke-width="0" fill="#cccccc"></rect><rect x="115" y="71" width="371" height="1" stroke="none" stroke-width="0" fill="#cccccc"></rect></g><g><g><path d="M152.5,299.5L152.5,128.5L226.5,128.5L300.5,128.5L374.5,128.5L448.5,128.5L448.5,299.5Z" stroke="none" stroke-width="0" fill-opacity="0.3" fill="#e06666"></path></g></g><g><g><rect x="115" y="299.5" width="74" height="0" stroke="none" stroke-width="0" fill-opacity="0.3" fill="#1155cc"></rect><path d="M115,299.5L189,299.5" stroke="#1155cc" stroke-width="2" fill-opacity="1" fill="none"></path></g><g><rect x="189" y="299.5" width="74" height="0" stroke="none" stroke-width="0" fill-opacity="0.3" fill="#1155cc"></rect><path d="M189,299.5L189,299.5L263,299.5" stroke="#1155cc" stroke-width="2" fill-opacity="1" fill="none"></path></g><g><rect x="263" y="299.5" width="74" height="0" stroke="none" stroke-width="0" fill-opacity="0.3" fill="#1155cc"></rect><path d="M263,299.5L263,299.5L337,299.5" stroke="#1155cc" stroke-width="2" fill-opacity="1" fill="none"></path></g><g><rect x="337" y="299.5" width="74" height="0" stroke="none" stroke-width="0" fill-opacity="0.3" fill="#1155cc"></rect><path d="M337,299.5L337,299.5L411,299.5" stroke="#1155cc" stroke-width="2" fill-opacity="1" fill="none"></path></g><g><rect x="411" y="299.5" width="74" height="0" stroke="none" stroke-width="0" fill-opacity="0.3" fill="#1155cc"></rect><path d="M411,299.5L411,299.5L485,299.5" stroke="#1155cc" stroke-width="2" fill-opacity="1" fill="none"></path></g></g><g><rect x="130" y="299" width="22" height="0" stroke="none" stroke-width="0" fill="#3366cc"></rect><rect x="204" y="299" width="22" height="0" stroke="none" stroke-width="0" fill="#3366cc"></rect><rect x="278" y="299" width="22" height="0" stroke="none" stroke-width="0" fill="#3366cc"></rect><rect x="352" y="299" width="22" height="0" stroke="none" stroke-width="0" fill="#3366cc"></rect><rect x="426" y="299" width="22" height="0" stroke="none" stroke-width="0" fill="#3366cc"></rect><rect x="153" y="129" width="22" height="170" stroke="none" stroke-width="0" fill="#e06666"></rect><rect x="227" y="209" width="22" height="90" stroke="none" stroke-width="0" fill="#e06666"></rect><rect x="301" y="209" width="22" height="90" stroke="none" stroke-width="0" fill="#e06666"></rect><rect x="375" y="209" width="22" height="90" stroke="none" stroke-width="0" fill="#e06666"></rect><rect x="449" y="209" width="22" height="90" stroke="none" stroke-width="0" fill="#e06666"></rect></g><g><rect x="115" y="299" width="371" height="1" stroke="none" stroke-width="0" fill="#333333"></rect><rect x="115" y="299" width="371" height="1" stroke="none" stroke-width="0" fill="#333333"></rect></g><g><path d="M152.5,128.5L226.5,128.5L300.5,128.5L374.5,128.5L448.5,128.5" stroke="#e06666" stroke-width="2" fill-opacity="1" fill="none"></path><path d="M152.5,126.09744999999998L226.5,285.88669L300.5,285.9625L374.5,285.20212L448.5,172.3216" stroke="#980000" stroke-width="2" fill-opacity="1" fill="none"></path></g><g><rect x="141" y="287" width="1" height="12" stroke="none" stroke-width="0" fill="#999999"></rect><rect x="215" y="287" width="1" height="12" stroke="none" stroke-width="0" fill="#999999"></rect><rect x="289" y="287" width="1" height="12" stroke="none" stroke-width="0" fill="#999999"></rect><rect x="363" y="287" width="1" height="12" stroke="none" stroke-width="0" fill="#999999"></rect><rect x="437" y="287" width="1" height="12" stroke="none" stroke-width="0" fill="#999999"></rect><rect x="164" y="129" width="1" height="0" stroke="none" stroke-width="0" fill="#999999"></rect><rect x="238" y="209" width="1" height="0" stroke="none" stroke-width="0" fill="#999999"></rect><rect x="312" y="209" width="1" height="0" stroke="none" stroke-width="0" fill="#999999"></rect><rect x="386" y="209" width="1" height="0" stroke="none" stroke-width="0" fill="#999999"></rect><rect x="460" y="209" width="1" height="0" stroke="none" stroke-width="0" fill="#999999"></rect><rect x="152.5" y="114.09744999999998" width="1" height="12" stroke="none" stroke-width="0" fill="#999999"></rect><rect x="226.5" y="273.88669" width="1" height="12" stroke="none" stroke-width="0" fill="#999999"></rect><rect x="300.5" y="273.9625" width="1" height="12" stroke="none" stroke-width="0" fill="#999999"></rect><rect x="374.5" y="273.20212" width="1" height="12" stroke="none" stroke-width="0" fill="#999999"></rect><rect x="448.5" y="160.3216" width="1" height="12" stroke="none" stroke-width="0" fill="#999999"></rect></g></g><g><circle cx="152.5" cy="126.09744999999998" r="2" stroke="none" stroke-width="0" fill="#980000"></circle><circle cx="226.5" cy="285.88669" r="2" stroke="none" stroke-width="0" fill="#980000"></circle><circle cx="300.5" cy="285.9625" r="2" stroke="none" stroke-width="0" fill="#980000"></circle><circle cx="374.5" cy="285.20212" r="2" stroke="none" stroke-width="0" fill="#980000"></circle><circle cx="448.5" cy="172.3216" r="2" stroke="none" stroke-width="0" fill="#980000"></circle></g><g><g><g><text text-anchor="middle" x="152.5" y="317.2" font-family="Arial" font-size="12" stroke="#ffffff" stroke-width="3" fill="#222222" aria-hidden="true">elf</text><text text-anchor="middle" x="152.5" y="317.2" font-family="Arial" font-size="12" stroke="none" stroke-width="0" fill="#222222">elf</text></g></g><g><g><text text-anchor="middle" x="226.5" y="333.2" font-family="Arial" font-size="12" stroke="#ffffff" stroke-width="3" fill="#222222" aria-hidden="true">no substring</text><text text-anchor="middle" x="226.5" y="333.2" font-family="Arial" font-size="12" stroke="none" stroke-width="0" fill="#222222">no substring</text></g></g><g><g><text text-anchor="middle" x="300.5" y="317.2" font-family="Arial" font-size="12" stroke="#ffffff" stroke-width="3" fill="#222222" aria-hidden="true">substring</text><text text-anchor="middle" x="300.5" y="317.2" font-family="Arial" font-size="12" stroke="none" stroke-width="0" fill="#222222">substring</text></g></g><g><g><text text-anchor="middle" x="374.5" y="333.2" font-family="Arial" font-size="12" stroke="#ffffff" stroke-width="3" fill="#222222" aria-hidden="true">+invent</text><text text-anchor="middle" x="374.5" y="333.2" font-family="Arial" font-size="12" stroke="none" stroke-width="0" fill="#222222">+invent</text></g></g><g><g><text text-anchor="middle" x="448.5" y="317.2" font-family="Arial" font-size="12" stroke="#ffffff" stroke-width="3" fill="#222222" aria-hidden="true">+backwards</text><text text-anchor="middle" x="448.5" y="317.2" font-family="Arial" font-size="12" stroke="none" stroke-width="0" fill="#222222">+backwards</text></g></g><g><g><text text-anchor="end" x="103" y="303.7" font-family="Arial" font-size="12" stroke="#ffffff" stroke-width="3" fill="#444444" aria-hidden="true">0</text><text text-anchor="end" x="103" y="303.7" font-family="Arial" font-size="12" stroke="none" stroke-width="0" fill="#444444">0</text></g></g><g><g><text text-anchor="end" x="103" y="246.7" font-family="Arial" font-size="12" stroke="#ffffff" stroke-width="3" fill="#444444" aria-hidden="true">5</text><text text-anchor="end" x="103" y="246.7" font-family="Arial" font-size="12" stroke="none" stroke-width="0" fill="#444444">5</text></g></g><g><g><text text-anchor="end" x="103" y="189.7" font-family="Arial" font-size="12" stroke="#ffffff" stroke-width="3" fill="#444444" aria-hidden="true">10</text><text text-anchor="end" x="103" y="189.7" font-family="Arial" font-size="12" stroke="none" stroke-width="0" fill="#444444">10</text></g></g><g><g><text text-anchor="end" x="103" y="132.7" font-family="Arial" font-size="12" stroke="#ffffff" stroke-width="3" fill="#444444" aria-hidden="true">15</text><text text-anchor="end" x="103" y="132.7" font-family="Arial" font-size="12" stroke="none" stroke-width="0" fill="#444444">15</text></g></g><g><g><text text-anchor="end" x="103" y="75.7" font-family="Arial" font-size="12" stroke="#ffffff" stroke-width="3" fill="#444444" aria-hidden="true">20</text><text text-anchor="end" x="103" y="75.7" font-family="Arial" font-size="12" stroke="none" stroke-width="0" fill="#444444">20</text></g></g><g><g><text text-anchor="start" x="498" y="303.7" font-family="Arial" font-size="12" stroke="#ffffff" stroke-width="3" fill="#444444" aria-hidden="true">0 sec</text><text text-anchor="start" x="498" y="303.7" font-family="Arial" font-size="12" stroke="none" stroke-width="0" fill="#444444">0 sec</text></g></g><g><g><text text-anchor="start" x="498" y="246.7" font-family="Arial" font-size="12" stroke="#ffffff" stroke-width="3" fill="#444444" aria-hidden="true">1000 sec</text><text text-anchor="start" x="498" y="246.7" font-family="Arial" font-size="12" stroke="none" stroke-width="0" fill="#444444">1000 sec</text></g></g><g><g><text text-anchor="start" x="498" y="189.7" font-family="Arial" font-size="12" stroke="#ffffff" stroke-width="3" fill="#444444" aria-hidden="true">2000 sec</text><text text-anchor="start" x="498" y="189.7" font-family="Arial" font-size="12" stroke="none" stroke-width="0" fill="#444444">2000 sec</text></g></g><g><g><text text-anchor="start" x="498" y="132.7" font-family="Arial" font-size="12" stroke="#ffffff" stroke-width="3" fill="#444444" aria-hidden="true">3000 sec</text><text text-anchor="start" x="498" y="132.7" font-family="Arial" font-size="12" stroke="none" stroke-width="0" fill="#444444">3000 sec</text></g></g><g><g><text text-anchor="start" x="498" y="75.7" font-family="Arial" font-size="12" stroke="#ffffff" stroke-width="3" fill="#444444" aria-hidden="true">4000 sec</text><text text-anchor="start" x="498" y="75.7" font-family="Arial" font-size="12" stroke="none" stroke-width="0" fill="#444444">4000 sec</text></g></g></g><g><g><g><rect x="135.5" y="274.5" width="12" height="14" stroke="none" stroke-width="0" fill-opacity="0" fill="#ffffff"></rect><g><text text-anchor="middle" x="141" y="285.2" font-family="Arial" font-size="12" stroke="#ffffff" stroke-width="3" fill="#3366cc" aria-hidden="true">0</text><text text-anchor="middle" x="141" y="285.2" font-family="Arial" font-size="12" stroke="none" stroke-width="0" fill="#3366cc">0</text></g><rect x="137.5" y="275" width="7" height="12" stroke="none" stroke-width="0" fill-opacity="0" fill="#ffffff"></rect></g></g><g><g><rect x="209.5" y="274.5" width="12" height="14" stroke="none" stroke-width="0" fill-opacity="0" fill="#ffffff"></rect><g><text text-anchor="middle" x="215" y="285.2" font-family="Arial" font-size="12" stroke="#ffffff" stroke-width="3" fill="#3366cc" aria-hidden="true">0</text><text text-anchor="middle" x="215" y="285.2" font-family="Arial" font-size="12" stroke="none" stroke-width="0" fill="#3366cc">0</text></g><rect x="211.5" y="275" width="7" height="12" stroke="none" stroke-width="0" fill-opacity="0" fill="#ffffff"></rect></g></g><g><g><rect x="283.5" y="274.5" width="12" height="14" stroke="none" stroke-width="0" fill-opacity="0" fill="#ffffff"></rect><g><text text-anchor="middle" x="289" y="285.2" font-family="Arial" font-size="12" stroke="#ffffff" stroke-width="3" fill="#3366cc" aria-hidden="true">0</text><text text-anchor="middle" x="289" y="285.2" font-family="Arial" font-size="12" stroke="none" stroke-width="0" fill="#3366cc">0</text></g><rect x="285.5" y="275" width="7" height="12" stroke="none" stroke-width="0" fill-opacity="0" fill="#ffffff"></rect></g></g><g><g><rect x="357.5" y="274.5" width="12" height="14" stroke="none" stroke-width="0" fill-opacity="0" fill="#ffffff"></rect><g><text text-anchor="middle" x="363" y="285.2" font-family="Arial" font-size="12" stroke="#ffffff" stroke-width="3" fill="#3366cc" aria-hidden="true">0</text><text text-anchor="middle" x="363" y="285.2" font-family="Arial" font-size="12" stroke="none" stroke-width="0" fill="#3366cc">0</text></g><rect x="359.5" y="275" width="7" height="12" stroke="none" stroke-width="0" fill-opacity="0" fill="#ffffff"></rect></g></g><g><g><rect x="431.5" y="274.5" width="12" height="14" stroke="none" stroke-width="0" fill-opacity="0" fill="#ffffff"></rect><g><text text-anchor="middle" x="437" y="285.2" font-family="Arial" font-size="12" stroke="#ffffff" stroke-width="3" fill="#3366cc" aria-hidden="true">0</text><text text-anchor="middle" x="437" y="285.2" font-family="Arial" font-size="12" stroke="none" stroke-width="0" fill="#3366cc">0</text></g><rect x="433.5" y="275" width="7" height="12" stroke="none" stroke-width="0" fill-opacity="0" fill="#ffffff"></rect></g></g><g><g><text text-anchor="middle" x="164" y="141.2" font-family="Arial" font-size="12" stroke="none" stroke-width="0" fill="#ffffff">15</text><rect x="157.5" y="131" width="13" height="12" stroke="none" stroke-width="0" fill-opacity="0" fill="#ffffff"></rect></g></g><g><g><text text-anchor="middle" x="238" y="221.2" font-family="Arial" font-size="12" stroke="none" stroke-width="0" fill="#ffffff">8</text><rect x="234.5" y="211" width="7" height="12" stroke="none" stroke-width="0" fill-opacity="0" fill="#ffffff"></rect></g></g><g><g><text text-anchor="middle" x="312" y="221.2" font-family="Arial" font-size="12" stroke="none" stroke-width="0" fill="#ffffff">8</text><rect x="308.5" y="211" width="7" height="12" stroke="none" stroke-width="0" fill-opacity="0" fill="#ffffff"></rect></g></g><g><g><text text-anchor="middle" x="386" y="221.2" font-family="Arial" font-size="12" stroke="none" stroke-width="0" fill="#ffffff">8</text><rect x="382.5" y="211" width="7" height="12" stroke="none" stroke-width="0" fill-opacity="0" fill="#ffffff"></rect></g></g><g><g><text text-anchor="middle" x="460" y="221.2" font-family="Arial" font-size="12" stroke="none" stroke-width="0" fill="#ffffff">8</text><rect x="456.5" y="211" width="7" height="12" stroke="none" stroke-width="0" fill-opacity="0" fill="#ffffff"></rect></g></g><g><g><rect x="125.5" y="101.5" width="55" height="14" stroke="none" stroke-width="0" fill-opacity="0" fill="#ffffff"></rect><g><text text-anchor="middle" x="152.5" y="112.29744999999998" font-family="Arial" font-size="12" stroke="#ffffff" stroke-width="3" fill="#980000" aria-hidden="true">3042.15s</text><text text-anchor="middle" x="152.5" y="112.29744999999998" font-family="Arial" font-size="12" stroke="none" stroke-width="0" fill="#980000">3042.15s</text></g><rect x="128" y="102.09744999999998" width="49" height="12" stroke="none" stroke-width="0" fill-opacity="0" fill="#ffffff"></rect></g></g><g><g><rect x="202.5" y="260.5" width="49" height="14" stroke="none" stroke-width="0" fill-opacity="0" fill="#ffffff"></rect><g><text text-anchor="middle" x="226.5" y="272.08669" font-family="Arial" font-size="12" stroke="#ffffff" stroke-width="3" fill="#980000" aria-hidden="true">238.83s</text><text text-anchor="middle" x="226.5" y="272.08669" font-family="Arial" font-size="12" stroke="none" stroke-width="0" fill="#980000">238.83s</text></g><rect x="205" y="261.88669" width="43" height="12" stroke="none" stroke-width="0" fill-opacity="0" fill="#ffffff"></rect></g></g><g><g><rect x="276.5" y="260.5" width="49" height="14" stroke="none" stroke-width="0" fill-opacity="0" fill="#ffffff"></rect><g><text text-anchor="middle" x="300.5" y="272.16249999999997" font-family="Arial" font-size="12" stroke="#ffffff" stroke-width="3" fill="#980000" aria-hidden="true">237.50s</text><text text-anchor="middle" x="300.5" y="272.16249999999997" font-family="Arial" font-size="12" stroke="none" stroke-width="0" fill="#980000">237.50s</text></g><rect x="279" y="261.9625" width="43" height="12" stroke="none" stroke-width="0" fill-opacity="0" fill="#ffffff"></rect></g></g><g><g><rect x="350.5" y="260.5" width="49" height="14" stroke="none" stroke-width="0" fill-opacity="0" fill="#ffffff"></rect><g><text text-anchor="middle" x="374.5" y="271.40211999999997" font-family="Arial" font-size="12" stroke="#ffffff" stroke-width="3" fill="#980000" aria-hidden="true">250.84s</text><text text-anchor="middle" x="374.5" y="271.40211999999997" font-family="Arial" font-size="12" stroke="none" stroke-width="0" fill="#980000">250.84s</text></g><rect x="353" y="261.20212" width="43" height="12" stroke="none" stroke-width="0" fill-opacity="0" fill="#ffffff"></rect></g></g><g><g><rect x="421.5" y="147.5" width="55" height="14" stroke="none" stroke-width="0" fill-opacity="0" fill="#ffffff"></rect><g><text text-anchor="middle" x="448.5" y="158.52159999999998" font-family="Arial" font-size="12" stroke="#ffffff" stroke-width="3" fill="#980000" aria-hidden="true">2231.20s</text><text text-anchor="middle" x="448.5" y="158.52159999999998" font-family="Arial" font-size="12" stroke="none" stroke-width="0" fill="#980000">2231.20s</text></g><rect x="424" y="148.3216" width="49" height="12" stroke="none" stroke-width="0" fill-opacity="0" fill="#ffffff"></rect></g></g></g></g><g><g><g><text text-anchor="middle" x="49.2" y="185.5" font-family="Arial" font-size="12" font-style="italic" transform="rotate(-90 49.2 185.5)" stroke="#ffffff" stroke-width="3" fill="#222222" aria-hidden="true"># missing edges</text><text text-anchor="middle" x="49.2" y="185.5" font-family="Arial" font-size="12" font-style="italic" transform="rotate(-90 49.2 185.5)" stroke="none" stroke-width="0" fill="#222222"># missing edges</text></g></g></g><g></g></svg>
