<svg width="600" height="371" aria-label="A chart." style="overflow: hidden;"><defs id="defs"><clipPath id="_ABSTRACT_RENDERER_ID_632"><rect x="115" y="71" width="371" height="229"></rect></clipPath></defs><rect x="0" y="0" width="600" height="371" stroke="none" stroke-width="0" fill="#ffffff"></rect><g><text text-anchor="start" x="115" y="49.6" font-family="Arial" font-size="16" font-weight="bold" stroke="none" stroke-width="0" fill="#000000">jython</text></g><g><rect x="115" y="71" width="371" height="229" stroke="none" stroke-width="0" fill-opacity="0" fill="#ffffff"></rect><g clip-path="url(#_ABSTRACT_RENDERER_ID_632)"><g><rect x="115" y="299" width="371" height="1" stroke="none" stroke-width="0" fill="#cccccc"></rect><rect x="115" y="242" width="371" height="1" stroke="none" stroke-width="0" fill="#cccccc"></rect><rect x="115" y="185" width="371" height="1" stroke="none" stroke-width="0" fill="#cccccc"></rect><rect x="115" y="128" width="371" height="1" stroke="none" stroke-width="0" fill="#cccccc"></rect><rect x="115" y="71" width="371" height="1" stroke="none" stroke-width="0" fill="#cccccc"></rect><rect x="115" y="299" width="371" height="1" stroke="none" stroke-width="0" fill="#cccccc"></rect><rect x="115" y="242" width="371" height="1" stroke="none" stroke-width="0" fill="#cccccc"></rect><rect x="115" y="185" width="371" height="1" stroke="none" stroke-width="0" fill="#cccccc"></rect><rect x="115" y="128" width="371" height="1" stroke="none" stroke-width="0" fill="#cccccc"></rect><rect x="115" y="71" width="371" height="1" stroke="none" stroke-width="0" fill="#cccccc"></rect></g><g><g><rect x="115" y="81.19" width="74" height="218.31" stroke="none" stroke-width="0" fill-opacity="0" fill="#1155cc"></rect><path d="M115,81.19L189,81.19" stroke="#1155cc" stroke-width="2" fill-opacity="1" fill="none"></path></g><g><rect x="189" y="81.19" width="74" height="218.31" stroke="none" stroke-width="0" fill-opacity="0" fill="#1155cc"></rect><path d="M189,81.19L189,81.19L263,81.19" stroke="#1155cc" stroke-width="2" fill-opacity="1" fill="none"></path></g><g><rect x="263" y="81.19" width="74" height="218.31" stroke="none" stroke-width="0" fill-opacity="0" fill="#1155cc"></rect><path d="M263,81.19L263,81.19L337,81.19" stroke="#1155cc" stroke-width="2" fill-opacity="1" fill="none"></path></g><g><rect x="337" y="81.19" width="74" height="218.31" stroke="none" stroke-width="0" fill-opacity="0" fill="#1155cc"></rect><path d="M337,81.19L337,81.19L411,81.19" stroke="#1155cc" stroke-width="2" fill-opacity="1" fill="none"></path></g><g><rect x="411" y="81.19" width="74" height="218.31" stroke="none" stroke-width="0" fill-opacity="0" fill="#1155cc"></rect><path d="M411,81.19L411,81.19L485,81.19" stroke="#1155cc" stroke-width="2" fill-opacity="1" fill="none"></path></g></g><g><rect x="130" y="82" width="22" height="217" stroke="none" stroke-width="0" fill="#1155cc"></rect><rect x="204" y="85" width="22" height="214" stroke="none" stroke-width="0" fill="#1155cc"></rect><rect x="278" y="299" width="22" height="0" stroke="none" stroke-width="0" fill="#1155cc"></rect><rect x="352" y="299" width="22" height="0" stroke="none" stroke-width="0" fill="#1155cc"></rect><rect x="426" y="299" width="22" height="0" stroke="none" stroke-width="0" fill="#1155cc"></rect><rect x="153" y="258" width="22" height="41" stroke="none" stroke-width="0" fill="#ea9999"></rect><rect x="227" y="258" width="22" height="41" stroke="none" stroke-width="0" fill="#ea9999"></rect><rect x="301" y="299" width="22" height="0" stroke="none" stroke-width="0" fill="#ea9999"></rect><rect x="375" y="299" width="22" height="0" stroke="none" stroke-width="0" fill="#ea9999"></rect><rect x="449" y="299" width="22" height="0" stroke="none" stroke-width="0" fill="#ea9999"></rect></g><g><rect x="115" y="299" width="371" height="1" stroke="none" stroke-width="0" fill="#333333"></rect><rect x="115" y="299" width="371" height="1" stroke="none" stroke-width="0" fill="#333333"></rect></g><g><path d="M152.5,257.985L226.5,257.985L300.5,257.985L374.5,257.985L448.5,257.985" stroke="#ea9999" stroke-width="2" fill-opacity="1" fill="none"></path><path d="M152.5,73.97569999999999L226.5,277.3289" stroke="#5b0f00" stroke-width="2" fill-opacity="1" fill="none"></path></g><g><rect x="141" y="82" width="1" height="12" stroke="none" stroke-width="0" fill="#999999"></rect><rect x="215" y="85" width="1" height="12" stroke="none" stroke-width="0" fill="#999999"></rect><rect x="289" y="287" width="1" height="12" stroke="none" stroke-width="0" fill="#999999"></rect><rect x="363" y="287" width="1" height="12" stroke="none" stroke-width="0" fill="#999999"></rect><rect x="437" y="287" width="1" height="12" stroke="none" stroke-width="0" fill="#999999"></rect><rect x="164" y="258" width="1" height="0" stroke="none" stroke-width="0" fill="#999999"></rect><rect x="238" y="258" width="1" height="0" stroke="none" stroke-width="0" fill="#999999"></rect><rect x="312" y="287" width="1" height="12" stroke="none" stroke-width="0" fill="#999999"></rect><rect x="386" y="287" width="1" height="12" stroke="none" stroke-width="0" fill="#999999"></rect><rect x="460" y="287" width="1" height="12" stroke="none" stroke-width="0" fill="#999999"></rect><rect x="152.5" y="73.97569999999999" width="1" height="12" stroke="none" stroke-width="0" fill="#999999"></rect><rect x="226.5" y="265.3289" width="1" height="12" stroke="none" stroke-width="0" fill="#999999"></rect></g></g><g><circle cx="152.5" cy="73.97569999999999" r="2" stroke="none" stroke-width="0" fill="#5b0f00"></circle><circle cx="226.5" cy="277.3289" r="2" stroke="none" stroke-width="0" fill="#5b0f00"></circle></g><g><g><text text-anchor="middle" x="152.5" y="317.2" font-family="Arial" font-size="12" stroke="none" stroke-width="0" fill="#222222">elf</text></g><g><text text-anchor="middle" x="226.5" y="333.2" font-family="Arial" font-size="12" stroke="none" stroke-width="0" fill="#222222">no substring</text></g><g><text text-anchor="middle" x="300.5" y="317.2" font-family="Arial" font-size="12" stroke="none" stroke-width="0" fill="#222222">substring</text></g><g><text text-anchor="middle" x="374.5" y="333.2" font-family="Arial" font-size="12" stroke="none" stroke-width="0" fill="#222222">+invent</text></g><g><text text-anchor="middle" x="448.5" y="317.2" font-family="Arial" font-size="12" stroke="none" stroke-width="0" fill="#222222">+backwards</text></g><g><text text-anchor="end" x="103" y="303.7" font-family="Arial" font-size="12" stroke="none" stroke-width="0" fill="#444444">0</text></g><g><text text-anchor="end" x="103" y="246.7" font-family="Arial" font-size="12" stroke="none" stroke-width="0" fill="#444444">600</text></g><g><text text-anchor="end" x="103" y="189.7" font-family="Arial" font-size="12" stroke="none" stroke-width="0" fill="#444444">1200</text></g><g><text text-anchor="end" x="103" y="132.7" font-family="Arial" font-size="12" stroke="none" stroke-width="0" fill="#444444">1800</text></g><g><text text-anchor="end" x="103" y="75.7" font-family="Arial" font-size="12" stroke="none" stroke-width="0" fill="#444444">2400</text></g><g><text text-anchor="start" x="498" y="303.7" font-family="Arial" font-size="12" stroke="none" stroke-width="0" fill="#444444">0 sec</text></g><g><text text-anchor="start" x="498" y="246.7" font-family="Arial" font-size="12" stroke="none" stroke-width="0" fill="#444444">600 sec</text></g><g><text text-anchor="start" x="498" y="189.7" font-family="Arial" font-size="12" stroke="none" stroke-width="0" fill="#444444">1200 sec</text></g><g><text text-anchor="start" x="498" y="132.7" font-family="Arial" font-size="12" stroke="none" stroke-width="0" fill="#444444">1800 sec</text></g><g><text text-anchor="start" x="498" y="75.7" font-family="Arial" font-size="12" stroke="none" stroke-width="0" fill="#444444">2400 sec</text></g></g><g><g><g><rect x="114.5" y="93.5" width="32" height="14" stroke="none" stroke-width="0" fill-opacity="0" fill="#ffffff"></rect><g><text text-anchor="middle" x="130" y="104.2" font-family="Arial" font-size="12" stroke="#ffffff" stroke-width="3" fill="#1155cc" aria-hidden="true">2298</text><text text-anchor="middle" x="130" y="104.2" font-family="Arial" font-size="12" stroke="none" stroke-width="0" fill="#1155cc">2298</text></g><rect x="116.5" y="94" width="27" height="12" stroke="none" stroke-width="0" fill-opacity="0" fill="#ffffff"></rect></g></g><g><g><rect x="188.5" y="96.5" width="32" height="14" stroke="none" stroke-width="0" fill-opacity="0" fill="#ffffff"></rect><g><text text-anchor="middle" x="204" y="107.2" font-family="Arial" font-size="12" stroke="#ffffff" stroke-width="3" fill="#1155cc" aria-hidden="true">2264</text><text text-anchor="middle" x="204" y="107.2" font-family="Arial" font-size="12" stroke="none" stroke-width="0" fill="#1155cc">2264</text></g><rect x="190.5" y="97" width="27" height="12" stroke="none" stroke-width="0" fill-opacity="0" fill="#ffffff"></rect></g></g><g><g><rect x="278.5" y="274.5" width="22" height="14" stroke="none" stroke-width="0" fill-opacity="0" fill="#ffffff"></rect><g><text text-anchor="middle" x="289" y="285.2" font-family="Arial" font-size="12" stroke="#ffffff" stroke-width="3" fill="#1155cc" aria-hidden="true">n/a</text><text text-anchor="middle" x="289" y="285.2" font-family="Arial" font-size="12" stroke="none" stroke-width="0" fill="#1155cc">n/a</text></g><rect x="280.5" y="275" width="17" height="12" stroke="none" stroke-width="0" fill-opacity="0" fill="#ffffff"></rect></g></g><g><g><rect x="352.5" y="274.5" width="22" height="14" stroke="none" stroke-width="0" fill-opacity="0" fill="#ffffff"></rect><g><text text-anchor="middle" x="363" y="285.2" font-family="Arial" font-size="12" stroke="#ffffff" stroke-width="3" fill="#1155cc" aria-hidden="true">n/a</text><text text-anchor="middle" x="363" y="285.2" font-family="Arial" font-size="12" stroke="none" stroke-width="0" fill="#1155cc">n/a</text></g><rect x="354.5" y="275" width="17" height="12" stroke="none" stroke-width="0" fill-opacity="0" fill="#ffffff"></rect></g></g><g><g><rect x="426.5" y="274.5" width="22" height="14" stroke="none" stroke-width="0" fill-opacity="0" fill="#ffffff"></rect><g><text text-anchor="middle" x="437" y="285.2" font-family="Arial" font-size="12" stroke="#ffffff" stroke-width="3" fill="#1155cc" aria-hidden="true">n/a</text><text text-anchor="middle" x="437" y="285.2" font-family="Arial" font-size="12" stroke="none" stroke-width="0" fill="#1155cc">n/a</text></g><rect x="428.5" y="275" width="17" height="12" stroke="none" stroke-width="0" fill-opacity="0" fill="#ffffff"></rect></g></g><g><g><text text-anchor="middle" x="164" y="270.2" font-family="Arial" font-size="12" stroke="none" stroke-width="0" fill="#404040">437</text><rect x="154" y="260" width="20" height="12" stroke="none" stroke-width="0" fill-opacity="0" fill="#ffffff"></rect></g></g><g><g><text text-anchor="middle" x="238" y="270.2" font-family="Arial" font-size="12" stroke="none" stroke-width="0" fill="#404040">441</text><rect x="228" y="260" width="20" height="12" stroke="none" stroke-width="0" fill-opacity="0" fill="#ffffff"></rect></g></g><g><g><rect x="301.5" y="274.5" width="22" height="14" stroke="none" stroke-width="0" fill-opacity="0" fill="#ffffff"></rect><g><text text-anchor="middle" x="312" y="285.2" font-family="Arial" font-size="12" stroke="#ffffff" stroke-width="3" fill="#ea9999" aria-hidden="true">n/a</text><text text-anchor="middle" x="312" y="285.2" font-family="Arial" font-size="12" stroke="none" stroke-width="0" fill="#ea9999">n/a</text></g><rect x="303.5" y="275" width="17" height="12" stroke="none" stroke-width="0" fill-opacity="0" fill="#ffffff"></rect></g></g><g><g><rect x="375.5" y="274.5" width="22" height="14" stroke="none" stroke-width="0" fill-opacity="0" fill="#ffffff"></rect><g><text text-anchor="middle" x="386" y="285.2" font-family="Arial" font-size="12" stroke="#ffffff" stroke-width="3" fill="#ea9999" aria-hidden="true">n/a</text><text text-anchor="middle" x="386" y="285.2" font-family="Arial" font-size="12" stroke="none" stroke-width="0" fill="#ea9999">n/a</text></g><rect x="377.5" y="275" width="17" height="12" stroke="none" stroke-width="0" fill-opacity="0" fill="#ffffff"></rect></g></g><g><g><rect x="449.5" y="274.5" width="22" height="14" stroke="none" stroke-width="0" fill-opacity="0" fill="#ffffff"></rect><g><text text-anchor="middle" x="460" y="285.2" font-family="Arial" font-size="12" stroke="#ffffff" stroke-width="3" fill="#ea9999" aria-hidden="true">n/a</text><text text-anchor="middle" x="460" y="285.2" font-family="Arial" font-size="12" stroke="none" stroke-width="0" fill="#ea9999">n/a</text></g><rect x="451.5" y="275" width="17" height="12" stroke="none" stroke-width="0" fill-opacity="0" fill="#ffffff"></rect></g></g><g><g><rect x="125.5" y="84.5" width="55" height="14" stroke="none" stroke-width="0" fill-opacity="0" fill="#ffffff"></rect><g><text text-anchor="middle" x="152.5" y="96.17569999999999" font-family="Arial" font-size="12" stroke="#ffffff" stroke-width="3" fill="#5b0f00" aria-hidden="true">2373.94s</text><text text-anchor="middle" x="152.5" y="96.17569999999999" font-family="Arial" font-size="12" stroke="none" stroke-width="0" fill="#5b0f00">2373.94s</text></g><rect x="128" y="85.97569999999999" width="49" height="12" stroke="none" stroke-width="0" fill-opacity="0" fill="#ffffff"></rect></g></g><g><g><rect x="202.5" y="252.5" width="49" height="14" stroke="none" stroke-width="0" fill-opacity="0" fill="#ffffff"></rect><g><text text-anchor="middle" x="226.5" y="263.52889999999996" font-family="Arial" font-size="12" stroke="#ffffff" stroke-width="3" fill="#5b0f00" aria-hidden="true">233.38s</text><text text-anchor="middle" x="226.5" y="263.52889999999996" font-family="Arial" font-size="12" stroke="none" stroke-width="0" fill="#5b0f00">233.38s</text></g><rect x="205" y="253.32889999999998" width="43" height="12" stroke="none" stroke-width="0" fill-opacity="0" fill="#ffffff"></rect></g></g></g></g><g><g><text text-anchor="middle" x="42.2" y="185.5" font-family="Arial" font-size="12" font-style="italic" transform="rotate(-90 42.2 185.5)" stroke="none" stroke-width="0" fill="#222222"># missing call-graph edges</text></g></g><g></g></svg>