<svg width="600" height="371" aria-label="A chart." style="overflow: hidden;"><defs id="defs"><clipPath id="_ABSTRACT_RENDERER_ID_357"><rect x="115" y="71" width="371" height="229"></rect></clipPath></defs><rect x="0" y="0" width="600" height="371" stroke="none" stroke-width="0" fill="#ffffff"></rect><g><g><text text-anchor="start" x="115" y="49.6" font-family="Arial" font-size="16" font-weight="bold" stroke="#ffffff" stroke-width="3" fill="#000000" aria-hidden="true">luindex</text><text text-anchor="start" x="115" y="49.6" font-family="Arial" font-size="16" font-weight="bold" stroke="none" stroke-width="0" fill="#000000">luindex</text></g></g><g><rect x="115" y="71" width="371" height="229" stroke="none" stroke-width="0" fill-opacity="0" fill="#ffffff"></rect><g clip-path="url(#_ABSTRACT_RENDERER_ID_357)"><g><rect x="115" y="299" width="371" height="1" stroke="none" stroke-width="0" fill="#cccccc"></rect><rect x="115" y="242" width="371" height="1" stroke="none" stroke-width="0" fill="#cccccc"></rect><rect x="115" y="185" width="371" height="1" stroke="none" stroke-width="0" fill="#cccccc"></rect><rect x="115" y="128" width="371" height="1" stroke="none" stroke-width="0" fill="#cccccc"></rect><rect x="115" y="71" width="371" height="1" stroke="none" stroke-width="0" fill="#cccccc"></rect><rect x="115" y="299" width="371" height="1" stroke="none" stroke-width="0" fill="#cccccc"></rect><rect x="115" y="242" width="371" height="1" stroke="none" stroke-width="0" fill="#cccccc"></rect><rect x="115" y="185" width="371" height="1" stroke="none" stroke-width="0" fill="#cccccc"></rect><rect x="115" y="128" width="371" height="1" stroke="none" stroke-width="0" fill="#cccccc"></rect><rect x="115" y="71" width="371" height="1" stroke="none" stroke-width="0" fill="#cccccc"></rect></g><g><g><path d="M152.5,299.5L152.5,161.56L226.5,161.56L300.5,161.56L374.5,161.56L448.5,161.56L448.5,299.5Z" stroke="none" stroke-width="0" fill-opacity="0.3" fill="#e06666"></path></g></g><g><g><rect x="115" y="109.12" width="74" height="190.38" stroke="none" stroke-width="0" fill-opacity="0.3" fill="#1155cc"></rect><path d="M115,109.12L189,109.12" stroke="#1155cc" stroke-width="2" fill-opacity="1" fill="none"></path></g><g><rect x="189" y="109.12" width="74" height="190.38" stroke="none" stroke-width="0" fill-opacity="0.3" fill="#1155cc"></rect><path d="M189,109.12L189,109.12L263,109.12" stroke="#1155cc" stroke-width="2" fill-opacity="1" fill="none"></path></g><g><rect x="263" y="109.12" width="74" height="190.38" stroke="none" stroke-width="0" fill-opacity="0.3" fill="#1155cc"></rect><path d="M263,109.12L263,109.12L337,109.12" stroke="#1155cc" stroke-width="2" fill-opacity="1" fill="none"></path></g><g><rect x="337" y="109.12" width="74" height="190.38" stroke="none" stroke-width="0" fill-opacity="0.3" fill="#1155cc"></rect><path d="M337,109.12L337,109.12L411,109.12" stroke="#1155cc" stroke-width="2" fill-opacity="1" fill="none"></path></g><g><rect x="411" y="109.12" width="74" height="190.38" stroke="none" stroke-width="0" fill-opacity="0.3" fill="#1155cc"></rect><path d="M411,109.12L411,109.12L485,109.12" stroke="#1155cc" stroke-width="2" fill-opacity="1" fill="none"></path></g></g><g><rect x="130" y="110" width="22" height="189" stroke="none" stroke-width="0" fill="#3366cc"></rect><rect x="204" y="128" width="22" height="171" stroke="none" stroke-width="0" fill="#3366cc"></rect><rect x="278" y="128" width="22" height="171" stroke="none" stroke-width="0" fill="#3366cc"></rect><rect x="352" y="295" width="22" height="4" stroke="none" stroke-width="0" fill="#3366cc"></rect><rect x="426" y="299" width="22" height="0" stroke="none" stroke-width="0" fill="#3366cc"></rect><rect x="153" y="162" width="22" height="137" stroke="none" stroke-width="0" fill="#e06666"></rect><rect x="227" y="175" width="22" height="124" stroke="none" stroke-width="0" fill="#e06666"></rect><rect x="301" y="175" width="22" height="124" stroke="none" stroke-width="0" fill="#e06666"></rect><rect x="375" y="209" width="22" height="90" stroke="none" stroke-width="0" fill="#e06666"></rect><rect x="449" y="216" width="22" height="83" stroke="none" stroke-width="0" fill="#e06666"></rect></g><g><rect x="115" y="299" width="371" height="1" stroke="none" stroke-width="0" fill="#333333"></rect><rect x="115" y="299" width="371" height="1" stroke="none" stroke-width="0" fill="#333333"></rect></g><g><path d="M152.5,161.56L226.5,161.56L300.5,161.56L374.5,161.56L448.5,161.56" stroke="#e06666" stroke-width="2" fill-opacity="1" fill="none"></path><path d="M152.5,102.50799999999998L226.5,274.41999999999996L300.5,248.998L374.5,237.31300000000002L448.5,185.329" stroke="#980000" stroke-width="2" fill-opacity="1" fill="none"></path></g><g><rect x="141" y="110" width="1" height="0" stroke="none" stroke-width="0" fill="#999999"></rect><rect x="215" y="128" width="1" height="0" stroke="none" stroke-width="0" fill="#999999"></rect><rect x="289" y="128" width="1" height="0" stroke="none" stroke-width="0" fill="#999999"></rect><rect x="363" y="283" width="1" height="12" stroke="none" stroke-width="0" fill="#999999"></rect><rect x="437" y="287" width="1" height="12" stroke="none" stroke-width="0" fill="#999999"></rect><rect x="164" y="162" width="1" height="0" stroke="none" stroke-width="0" fill="#999999"></rect><rect x="238" y="175" width="1" height="0" stroke="none" stroke-width="0" fill="#999999"></rect><rect x="312" y="175" width="1" height="0" stroke="none" stroke-width="0" fill="#999999"></rect><rect x="386" y="209" width="1" height="0" stroke="none" stroke-width="0" fill="#999999"></rect><rect x="460" y="216" width="1" height="0" stroke="none" stroke-width="0" fill="#999999"></rect><rect x="152.5" y="90.50799999999998" width="1" height="12" stroke="none" stroke-width="0" fill="#999999"></rect><rect x="226.5" y="262.41999999999996" width="1" height="12" stroke="none" stroke-width="0" fill="#999999"></rect><rect x="300.5" y="236.998" width="1" height="12" stroke="none" stroke-width="0" fill="#999999"></rect><rect x="374.5" y="225.31300000000002" width="1" height="12" stroke="none" stroke-width="0" fill="#999999"></rect><rect x="448.5" y="173.329" width="1" height="12" stroke="none" stroke-width="0" fill="#999999"></rect></g></g><g><circle cx="152.5" cy="102.50799999999998" r="2" stroke="none" stroke-width="0" fill="#980000"></circle><circle cx="226.5" cy="274.41999999999996" r="2" stroke="none" stroke-width="0" fill="#980000"></circle><circle cx="300.5" cy="248.998" r="2" stroke="none" stroke-width="0" fill="#980000"></circle><circle cx="374.5" cy="237.31300000000002" r="2" stroke="none" stroke-width="0" fill="#980000"></circle><circle cx="448.5" cy="185.329" r="2" stroke="none" stroke-width="0" fill="#980000"></circle></g><g><g><g><text text-anchor="middle" x="152.5" y="317.2" font-family="Arial" font-size="12" stroke="#ffffff" stroke-width="3" fill="#222222" aria-hidden="true">elf</text><text text-anchor="middle" x="152.5" y="317.2" font-family="Arial" font-size="12" stroke="none" stroke-width="0" fill="#222222">elf</text></g></g><g><g><text text-anchor="middle" x="226.5" y="333.2" font-family="Arial" font-size="12" stroke="#ffffff" stroke-width="3" fill="#222222" aria-hidden="true">no substring</text><text text-anchor="middle" x="226.5" y="333.2" font-family="Arial" font-size="12" stroke="none" stroke-width="0" fill="#222222">no substring</text></g></g><g><g><text text-anchor="middle" x="300.5" y="317.2" font-family="Arial" font-size="12" stroke="#ffffff" stroke-width="3" fill="#222222" aria-hidden="true">substring</text><text text-anchor="middle" x="300.5" y="317.2" font-family="Arial" font-size="12" stroke="none" stroke-width="0" fill="#222222">substring</text></g></g><g><g><text text-anchor="middle" x="374.5" y="333.2" font-family="Arial" font-size="12" stroke="#ffffff" stroke-width="3" fill="#222222" aria-hidden="true">+invent</text><text text-anchor="middle" x="374.5" y="333.2" font-family="Arial" font-size="12" stroke="none" stroke-width="0" fill="#222222">+invent</text></g></g><g><g><text text-anchor="middle" x="448.5" y="317.2" font-family="Arial" font-size="12" stroke="#ffffff" stroke-width="3" fill="#222222" aria-hidden="true">+backwards</text><text text-anchor="middle" x="448.5" y="317.2" font-family="Arial" font-size="12" stroke="none" stroke-width="0" fill="#222222">+backwards</text></g></g><g><g><text text-anchor="end" x="103" y="303.7" font-family="Arial" font-size="12" stroke="#ffffff" stroke-width="3" fill="#444444" aria-hidden="true">0</text><text text-anchor="end" x="103" y="303.7" font-family="Arial" font-size="12" stroke="none" stroke-width="0" fill="#444444">0</text></g></g><g><g><text text-anchor="end" x="103" y="246.7" font-family="Arial" font-size="12" stroke="#ffffff" stroke-width="3" fill="#444444" aria-hidden="true">100</text><text text-anchor="end" x="103" y="246.7" font-family="Arial" font-size="12" stroke="none" stroke-width="0" fill="#444444">100</text></g></g><g><g><text text-anchor="end" x="103" y="189.7" font-family="Arial" font-size="12" stroke="#ffffff" stroke-width="3" fill="#444444" aria-hidden="true">200</text><text text-anchor="end" x="103" y="189.7" font-family="Arial" font-size="12" stroke="none" stroke-width="0" fill="#444444">200</text></g></g><g><g><text text-anchor="end" x="103" y="132.70000000000002" font-family="Arial" font-size="12" stroke="#ffffff" stroke-width="3" fill="#444444" aria-hidden="true">300</text><text text-anchor="end" x="103" y="132.70000000000002" font-family="Arial" font-size="12" stroke="none" stroke-width="0" fill="#444444">300</text></g></g><g><g><text text-anchor="end" x="103" y="75.70000000000003" font-family="Arial" font-size="12" stroke="#ffffff" stroke-width="3" fill="#444444" aria-hidden="true">400</text><text text-anchor="end" x="103" y="75.70000000000003" font-family="Arial" font-size="12" stroke="none" stroke-width="0" fill="#444444">400</text></g></g><g><g><text text-anchor="start" x="498" y="303.7" font-family="Arial" font-size="12" stroke="#ffffff" stroke-width="3" fill="#444444" aria-hidden="true">70 sec</text><text text-anchor="start" x="498" y="303.7" font-family="Arial" font-size="12" stroke="none" stroke-width="0" fill="#444444">70 sec</text></g></g><g><g><text text-anchor="start" x="498" y="246.7" font-family="Arial" font-size="12" stroke="#ffffff" stroke-width="3" fill="#444444" aria-hidden="true">80 sec</text><text text-anchor="start" x="498" y="246.7" font-family="Arial" font-size="12" stroke="none" stroke-width="0" fill="#444444">80 sec</text></g></g><g><g><text text-anchor="start" x="498" y="189.7" font-family="Arial" font-size="12" stroke="#ffffff" stroke-width="3" fill="#444444" aria-hidden="true">90 sec</text><text text-anchor="start" x="498" y="189.7" font-family="Arial" font-size="12" stroke="none" stroke-width="0" fill="#444444">90 sec</text></g></g><g><g><text text-anchor="start" x="498" y="132.7" font-family="Arial" font-size="12" stroke="#ffffff" stroke-width="3" fill="#444444" aria-hidden="true">100 sec</text><text text-anchor="start" x="498" y="132.7" font-family="Arial" font-size="12" stroke="none" stroke-width="0" fill="#444444">100 sec</text></g></g><g><g><text text-anchor="start" x="498" y="75.7" font-family="Arial" font-size="12" stroke="#ffffff" stroke-width="3" fill="#444444" aria-hidden="true">110 sec</text><text text-anchor="start" x="498" y="75.7" font-family="Arial" font-size="12" stroke="none" stroke-width="0" fill="#444444">110 sec</text></g></g></g><g><g><g><text text-anchor="middle" x="141" y="122.2" font-family="Arial" font-size="12" stroke="none" stroke-width="0" fill="#ffffff">334</text><rect x="131" y="112" width="20" height="12" stroke="none" stroke-width="0" fill-opacity="0" fill="#ffffff"></rect></g></g><g><g><text text-anchor="middle" x="215" y="140.2" font-family="Arial" font-size="12" stroke="none" stroke-width="0" fill="#ffffff">302</text><rect x="205" y="130" width="20" height="12" stroke="none" stroke-width="0" fill-opacity="0" fill="#ffffff"></rect></g></g><g><g><text text-anchor="middle" x="289" y="140.2" font-family="Arial" font-size="12" stroke="none" stroke-width="0" fill="#ffffff">302</text><rect x="279" y="130" width="20" height="12" stroke="none" stroke-width="0" fill-opacity="0" fill="#ffffff"></rect></g></g><g><g><rect x="357.5" y="270.5" width="12" height="14" stroke="none" stroke-width="0" fill-opacity="0" fill="#ffffff"></rect><g><text text-anchor="middle" x="363" y="281.2" font-family="Arial" font-size="12" stroke="#ffffff" stroke-width="3" fill="#3366cc" aria-hidden="true">8</text><text text-anchor="middle" x="363" y="281.2" font-family="Arial" font-size="12" stroke="none" stroke-width="0" fill="#3366cc">8</text></g><rect x="359.5" y="271" width="7" height="12" stroke="none" stroke-width="0" fill-opacity="0" fill="#ffffff"></rect></g></g><g><g><rect x="431.5" y="274.5" width="12" height="14" stroke="none" stroke-width="0" fill-opacity="0" fill="#ffffff"></rect><g><text text-anchor="middle" x="437" y="285.2" font-family="Arial" font-size="12" stroke="#ffffff" stroke-width="3" fill="#3366cc" aria-hidden="true">0</text><text text-anchor="middle" x="437" y="285.2" font-family="Arial" font-size="12" stroke="none" stroke-width="0" fill="#3366cc">0</text></g><rect x="433.5" y="275" width="7" height="12" stroke="none" stroke-width="0" fill-opacity="0" fill="#ffffff"></rect></g></g><g><g><text text-anchor="middle" x="164" y="174.2" font-family="Arial" font-size="12" stroke="none" stroke-width="0" fill="#ffffff">242</text><rect x="154" y="164" width="20" height="12" stroke="none" stroke-width="0" fill-opacity="0" fill="#ffffff"></rect></g></g><g><g><text text-anchor="middle" x="238" y="187.2" font-family="Arial" font-size="12" stroke="none" stroke-width="0" fill="#ffffff">220</text><rect x="228" y="177" width="20" height="12" stroke="none" stroke-width="0" fill-opacity="0" fill="#ffffff"></rect></g></g><g><g><text text-anchor="middle" x="312" y="187.2" font-family="Arial" font-size="12" stroke="none" stroke-width="0" fill="#ffffff">220</text><rect x="302" y="177" width="20" height="12" stroke="none" stroke-width="0" fill-opacity="0" fill="#ffffff"></rect></g></g><g><g><text text-anchor="middle" x="386" y="221.2" font-family="Arial" font-size="12" stroke="none" stroke-width="0" fill="#ffffff">159</text><rect x="376" y="211" width="20" height="12" stroke="none" stroke-width="0" fill-opacity="0" fill="#ffffff"></rect></g></g><g><g><text text-anchor="middle" x="460" y="228.2" font-family="Arial" font-size="12" stroke="none" stroke-width="0" fill="#ffffff">148</text><rect x="450" y="218" width="20" height="12" stroke="none" stroke-width="0" fill-opacity="0" fill="#ffffff"></rect></g></g><g><g><rect x="128.5" y="77.5" width="49" height="14" stroke="none" stroke-width="0" fill-opacity="0" fill="#ffffff"></rect><g><text text-anchor="middle" x="152.5" y="88.70799999999998" font-family="Arial" font-size="12" stroke="#ffffff" stroke-width="3" fill="#980000" aria-hidden="true">104.56s</text><text text-anchor="middle" x="152.5" y="88.70799999999998" font-family="Arial" font-size="12" stroke="none" stroke-width="0" fill="#980000">104.56s</text></g><rect x="131" y="78.50799999999998" width="43" height="12" stroke="none" stroke-width="0" fill-opacity="0" fill="#ffffff"></rect></g></g><g><g><rect x="206.5" y="249.5" width="41" height="14" stroke="none" stroke-width="0" fill-opacity="0" fill="#ffffff"></rect><g><text text-anchor="middle" x="226.5" y="260.61999999999995" font-family="Arial" font-size="12" stroke="#ffffff" stroke-width="3" fill="#980000" aria-hidden="true">74.40s</text><text text-anchor="middle" x="226.5" y="260.61999999999995" font-family="Arial" font-size="12" stroke="none" stroke-width="0" fill="#980000">74.40s</text></g><rect x="208.5" y="250.41999999999996" width="36" height="12" stroke="none" stroke-width="0" fill-opacity="0" fill="#ffffff"></rect></g></g><g><g><rect x="280.5" y="223.5" width="41" height="14" stroke="none" stroke-width="0" fill-opacity="0" fill="#ffffff"></rect><g><text text-anchor="middle" x="300.5" y="235.19799999999998" font-family="Arial" font-size="12" stroke="#ffffff" stroke-width="3" fill="#980000" aria-hidden="true">78.86s</text><text text-anchor="middle" x="300.5" y="235.19799999999998" font-family="Arial" font-size="12" stroke="none" stroke-width="0" fill="#980000">78.86s</text></g><rect x="282.5" y="224.998" width="36" height="12" stroke="none" stroke-width="0" fill-opacity="0" fill="#ffffff"></rect></g></g><g><g><rect x="354.5" y="212.5" width="41" height="14" stroke="none" stroke-width="0" fill-opacity="0" fill="#ffffff"></rect><g><text text-anchor="middle" x="374.5" y="223.513" font-family="Arial" font-size="12" stroke="#ffffff" stroke-width="3" fill="#980000" aria-hidden="true">80.91s</text><text text-anchor="middle" x="374.5" y="223.513" font-family="Arial" font-size="12" stroke="none" stroke-width="0" fill="#980000">80.91s</text></g><rect x="356.5" y="213.31300000000002" width="36" height="12" stroke="none" stroke-width="0" fill-opacity="0" fill="#ffffff"></rect></g></g><g><g><rect x="428.5" y="160.5" width="41" height="14" stroke="none" stroke-width="0" fill-opacity="0" fill="#ffffff"></rect><g><text text-anchor="middle" x="448.5" y="171.529" font-family="Arial" font-size="12" stroke="#ffffff" stroke-width="3" fill="#980000" aria-hidden="true">90.03s</text><text text-anchor="middle" x="448.5" y="171.529" font-family="Arial" font-size="12" stroke="none" stroke-width="0" fill="#980000">90.03s</text></g><rect x="430.5" y="161.329" width="36" height="12" stroke="none" stroke-width="0" fill-opacity="0" fill="#ffffff"></rect></g></g></g></g><g><g><g><text text-anchor="middle" x="45.7" y="185.5" font-family="Arial" font-size="12" font-style="italic" transform="rotate(-90 45.7 185.5)" stroke="#ffffff" stroke-width="3" fill="#222222" aria-hidden="true"># missing edges</text><text text-anchor="middle" x="45.7" y="185.5" font-family="Arial" font-size="12" font-style="italic" transform="rotate(-90 45.7 185.5)" stroke="none" stroke-width="0" fill="#222222"># missing edges</text></g></g></g><g></g></svg>
