<svg width="600" height="371" aria-label="A chart." style="overflow: hidden;"><defs id="defs"><clipPath id="_ABSTRACT_RENDERER_ID_444"><rect x="115" y="71" width="371" height="229"></rect></clipPath></defs><rect x="0" y="0" width="600" height="371" stroke="none" stroke-width="0" fill="#ffffff"></rect><g><text text-anchor="start" x="115" y="49.6" font-family="Arial" font-size="16" font-weight="bold" stroke="none" stroke-width="0" fill="#000000">lusearch</text></g><g><rect x="115" y="71" width="371" height="229" stroke="none" stroke-width="0" fill-opacity="0" fill="#ffffff"></rect><g clip-path="url(#_ABSTRACT_RENDERER_ID_444)"><g><rect x="115" y="299" width="371" height="1" stroke="none" stroke-width="0" fill="#cccccc"></rect><rect x="115" y="242" width="371" height="1" stroke="none" stroke-width="0" fill="#cccccc"></rect><rect x="115" y="185" width="371" height="1" stroke="none" stroke-width="0" fill="#cccccc"></rect><rect x="115" y="128" width="371" height="1" stroke="none" stroke-width="0" fill="#cccccc"></rect><rect x="115" y="71" width="371" height="1" stroke="none" stroke-width="0" fill="#cccccc"></rect><rect x="115" y="299" width="371" height="1" stroke="none" stroke-width="0" fill="#cccccc"></rect><rect x="115" y="242" width="371" height="1" stroke="none" stroke-width="0" fill="#cccccc"></rect><rect x="115" y="185" width="371" height="1" stroke="none" stroke-width="0" fill="#cccccc"></rect><rect x="115" y="128" width="371" height="1" stroke="none" stroke-width="0" fill="#cccccc"></rect><rect x="115" y="71" width="371" height="1" stroke="none" stroke-width="0" fill="#cccccc"></rect></g><g><g><rect x="115" y="76.06" width="74" height="223.44" stroke="none" stroke-width="0" fill-opacity="0" fill="#1155cc"></rect><path d="M115,76.06L189,76.06" stroke="#1155cc" stroke-width="2" fill-opacity="1" fill="none"></path></g><g><rect x="189" y="76.06" width="74" height="223.44" stroke="none" stroke-width="0" fill-opacity="0" fill="#1155cc"></rect><path d="M189,76.06L189,76.06L263,76.06" stroke="#1155cc" stroke-width="2" fill-opacity="1" fill="none"></path></g><g><rect x="263" y="76.06" width="74" height="223.44" stroke="none" stroke-width="0" fill-opacity="0" fill="#1155cc"></rect><path d="M263,76.06L263,76.06L337,76.06" stroke="#1155cc" stroke-width="2" fill-opacity="1" fill="none"></path></g><g><rect x="337" y="76.06" width="74" height="223.44" stroke="none" stroke-width="0" fill-opacity="0" fill="#1155cc"></rect><path d="M337,76.06L337,76.06L411,76.06" stroke="#1155cc" stroke-width="2" fill-opacity="1" fill="none"></path></g><g><rect x="411" y="76.06" width="74" height="223.44" stroke="none" stroke-width="0" fill-opacity="0" fill="#1155cc"></rect><path d="M411,76.06L411,76.06L485,76.06" stroke="#1155cc" stroke-width="2" fill-opacity="1" fill="none"></path></g></g><g><rect x="130" y="77" width="22" height="222" stroke="none" stroke-width="0" fill="#1155cc"></rect><rect x="204" y="105" width="22" height="194" stroke="none" stroke-width="0" fill="#1155cc"></rect><rect x="278" y="105" width="22" height="194" stroke="none" stroke-width="0" fill="#1155cc"></rect><rect x="352" y="294" width="22" height="5" stroke="none" stroke-width="0" fill="#1155cc"></rect><rect x="426" y="299" width="22" height="0" stroke="none" stroke-width="0" fill="#1155cc"></rect><rect x="153" y="191" width="22" height="108" stroke="none" stroke-width="0" fill="#ea9999"></rect><rect x="227" y="213" width="22" height="86" stroke="none" stroke-width="0" fill="#ea9999"></rect><rect x="301" y="213" width="22" height="86" stroke="none" stroke-width="0" fill="#ea9999"></rect><rect x="375" y="257" width="22" height="42" stroke="none" stroke-width="0" fill="#ea9999"></rect><rect x="449" y="265" width="22" height="34" stroke="none" stroke-width="0" fill="#ea9999"></rect></g><g><rect x="115" y="299" width="371" height="1" stroke="none" stroke-width="0" fill="#333333"></rect><rect x="115" y="299" width="371" height="1" stroke="none" stroke-width="0" fill="#333333"></rect></g><g><path d="M152.5,190.06L226.5,190.06L300.5,190.06L374.5,190.06L448.5,190.06" stroke="#ea9999" stroke-width="2" fill-opacity="1" fill="none"></path><path d="M152.5,90.88000000000005L226.5,259.22L300.5,246.58500000000006L374.5,201.08L448.5,125.74499999999995" stroke="#5b0f00" stroke-width="2" fill-opacity="1" fill="none"></path></g><g><rect x="141" y="77" width="1" height="0" stroke="none" stroke-width="0" fill="#999999"></rect><rect x="215" y="105" width="1" height="0" stroke="none" stroke-width="0" fill="#999999"></rect><rect x="289" y="105" width="1" height="0" stroke="none" stroke-width="0" fill="#999999"></rect><rect x="363" y="282" width="1" height="12" stroke="none" stroke-width="0" fill="#999999"></rect><rect x="437" y="287" width="1" height="12" stroke="none" stroke-width="0" fill="#999999"></rect><rect x="164" y="191" width="1" height="0" stroke="none" stroke-width="0" fill="#999999"></rect><rect x="238" y="213" width="1" height="0" stroke="none" stroke-width="0" fill="#999999"></rect><rect x="312" y="213" width="1" height="0" stroke="none" stroke-width="0" fill="#999999"></rect><rect x="386" y="257" width="1" height="0" stroke="none" stroke-width="0" fill="#999999"></rect><rect x="460" y="265" width="1" height="0" stroke="none" stroke-width="0" fill="#999999"></rect><rect x="152.5" y="90.88000000000005" width="1" height="12" stroke="none" stroke-width="0" fill="#999999"></rect><rect x="226.5" y="247.22000000000003" width="1" height="12" stroke="none" stroke-width="0" fill="#999999"></rect><rect x="300.5" y="234.58500000000006" width="1" height="12" stroke="none" stroke-width="0" fill="#999999"></rect><rect x="374.5" y="189.08" width="1" height="12" stroke="none" stroke-width="0" fill="#999999"></rect><rect x="448.5" y="113.74499999999995" width="1" height="12" stroke="none" stroke-width="0" fill="#999999"></rect></g></g><g><circle cx="152.5" cy="90.88000000000005" r="2" stroke="none" stroke-width="0" fill="#5b0f00"></circle><circle cx="226.5" cy="259.22" r="2" stroke="none" stroke-width="0" fill="#5b0f00"></circle><circle cx="300.5" cy="246.58500000000006" r="2" stroke="none" stroke-width="0" fill="#5b0f00"></circle><circle cx="374.5" cy="201.08" r="2" stroke="none" stroke-width="0" fill="#5b0f00"></circle><circle cx="448.5" cy="125.74499999999995" r="2" stroke="none" stroke-width="0" fill="#5b0f00"></circle></g><g><g><text text-anchor="middle" x="152.5" y="317.2" font-family="Arial" font-size="12" stroke="none" stroke-width="0" fill="#222222">elf</text></g><g><text text-anchor="middle" x="226.5" y="333.2" font-family="Arial" font-size="12" stroke="none" stroke-width="0" fill="#222222">no substring</text></g><g><text text-anchor="middle" x="300.5" y="317.2" font-family="Arial" font-size="12" stroke="none" stroke-width="0" fill="#222222">substring</text></g><g><text text-anchor="middle" x="374.5" y="333.2" font-family="Arial" font-size="12" stroke="none" stroke-width="0" fill="#222222">+invent</text></g><g><text text-anchor="middle" x="448.5" y="317.2" font-family="Arial" font-size="12" stroke="none" stroke-width="0" fill="#222222">+backwards</text></g><g><text text-anchor="end" x="103" y="303.7" font-family="Arial" font-size="12" stroke="none" stroke-width="0" fill="#444444">0</text></g><g><text text-anchor="end" x="103" y="246.7" font-family="Arial" font-size="12" stroke="none" stroke-width="0" fill="#444444">75</text></g><g><text text-anchor="end" x="103" y="189.7" font-family="Arial" font-size="12" stroke="none" stroke-width="0" fill="#444444">150</text></g><g><text text-anchor="end" x="103" y="132.7" font-family="Arial" font-size="12" stroke="none" stroke-width="0" fill="#444444">225</text></g><g><text text-anchor="end" x="103" y="75.7" font-family="Arial" font-size="12" stroke="none" stroke-width="0" fill="#444444">300</text></g><g><text text-anchor="start" x="498" y="303.7" font-family="Arial" font-size="12" stroke="none" stroke-width="0" fill="#444444">70 sec</text></g><g><text text-anchor="start" x="498" y="246.7" font-family="Arial" font-size="12" stroke="none" stroke-width="0" fill="#444444">76 sec</text></g><g><text text-anchor="start" x="498" y="189.7" font-family="Arial" font-size="12" stroke="none" stroke-width="0" fill="#444444">82 sec</text></g><g><text text-anchor="start" x="498" y="132.7" font-family="Arial" font-size="12" stroke="none" stroke-width="0" fill="#444444">88 sec</text></g><g><text text-anchor="start" x="498" y="75.7" font-family="Arial" font-size="12" stroke="none" stroke-width="0" fill="#444444">94 sec</text></g></g><g><g><g><text text-anchor="middle" x="141" y="89.2" font-family="Arial" font-size="12" stroke="none" stroke-width="0" fill="#ffffff">294</text><rect x="131" y="79" width="20" height="12" stroke="none" stroke-width="0" fill-opacity="0" fill="#ffffff"></rect></g></g><g><g><text text-anchor="middle" x="215" y="117.2" font-family="Arial" font-size="12" stroke="none" stroke-width="0" fill="#ffffff">256</text><rect x="205" y="107" width="20" height="12" stroke="none" stroke-width="0" fill-opacity="0" fill="#ffffff"></rect></g></g><g><g><text text-anchor="middle" x="289" y="117.2" font-family="Arial" font-size="12" stroke="none" stroke-width="0" fill="#ffffff">256</text><rect x="279" y="107" width="20" height="12" stroke="none" stroke-width="0" fill-opacity="0" fill="#ffffff"></rect></g></g><g><g><rect x="357.5" y="269.5" width="12" height="14" stroke="none" stroke-width="0" fill-opacity="0" fill="#ffffff"></rect><g><text text-anchor="middle" x="363" y="280.2" font-family="Arial" font-size="12" stroke="#ffffff" stroke-width="3" fill="#1155cc" aria-hidden="true">8</text><text text-anchor="middle" x="363" y="280.2" font-family="Arial" font-size="12" stroke="none" stroke-width="0" fill="#1155cc">8</text></g><rect x="359.5" y="270" width="7" height="12" stroke="none" stroke-width="0" fill-opacity="0" fill="#ffffff"></rect></g></g><g><g><rect x="431.5" y="274.5" width="12" height="14" stroke="none" stroke-width="0" fill-opacity="0" fill="#ffffff"></rect><g><text text-anchor="middle" x="437" y="285.2" font-family="Arial" font-size="12" stroke="#ffffff" stroke-width="3" fill="#1155cc" aria-hidden="true">0</text><text text-anchor="middle" x="437" y="285.2" font-family="Arial" font-size="12" stroke="none" stroke-width="0" fill="#1155cc">0</text></g><rect x="433.5" y="275" width="7" height="12" stroke="none" stroke-width="0" fill-opacity="0" fill="#ffffff"></rect></g></g><g><g><text text-anchor="middle" x="164" y="203.2" font-family="Arial" font-size="12" stroke="none" stroke-width="0" fill="#404040">144</text><rect x="154" y="193" width="20" height="12" stroke="none" stroke-width="0" fill-opacity="0" fill="#ffffff"></rect></g></g><g><g><text text-anchor="middle" x="238" y="225.2" font-family="Arial" font-size="12" stroke="none" stroke-width="0" fill="#404040">115</text><rect x="228" y="215" width="20" height="12" stroke="none" stroke-width="0" fill-opacity="0" fill="#ffffff"></rect></g></g><g><g><text text-anchor="middle" x="312" y="225.2" font-family="Arial" font-size="12" stroke="none" stroke-width="0" fill="#404040">115</text><rect x="302" y="215" width="20" height="12" stroke="none" stroke-width="0" fill-opacity="0" fill="#ffffff"></rect></g></g><g><g><text text-anchor="middle" x="386" y="269.2" font-family="Arial" font-size="12" stroke="none" stroke-width="0" fill="#404040">56</text><rect x="379.5" y="259" width="13" height="12" stroke="none" stroke-width="0" fill-opacity="0" fill="#ffffff"></rect></g></g><g><g><text text-anchor="middle" x="460" y="277.2" font-family="Arial" font-size="12" stroke="none" stroke-width="0" fill="#404040">46</text><rect x="453.5" y="267" width="13" height="12" stroke="none" stroke-width="0" fill-opacity="0" fill="#ffffff"></rect></g></g><g><g><rect x="132.5" y="101.5" width="41" height="14" stroke="none" stroke-width="0" fill-opacity="0" fill="#ffffff"></rect><g><text text-anchor="middle" x="152.5" y="113.08000000000006" font-family="Arial" font-size="12" stroke="#ffffff" stroke-width="3" fill="#5b0f00" aria-hidden="true">91.96s</text><text text-anchor="middle" x="152.5" y="113.08000000000006" font-family="Arial" font-size="12" stroke="none" stroke-width="0" fill="#5b0f00">91.96s</text></g><rect x="134.5" y="102.88000000000005" width="36" height="12" stroke="none" stroke-width="0" fill-opacity="0" fill="#ffffff"></rect></g></g><g><g><rect x="206.5" y="234.5" width="41" height="14" stroke="none" stroke-width="0" fill-opacity="0" fill="#ffffff"></rect><g><text text-anchor="middle" x="226.5" y="245.42000000000002" font-family="Arial" font-size="12" stroke="#ffffff" stroke-width="3" fill="#5b0f00" aria-hidden="true">74.24s</text><text text-anchor="middle" x="226.5" y="245.42000000000002" font-family="Arial" font-size="12" stroke="none" stroke-width="0" fill="#5b0f00">74.24s</text></g><rect x="208.5" y="235.22000000000003" width="36" height="12" stroke="none" stroke-width="0" fill-opacity="0" fill="#ffffff"></rect></g></g><g><g><rect x="280.5" y="221.5" width="41" height="14" stroke="none" stroke-width="0" fill-opacity="0" fill="#ffffff"></rect><g><text text-anchor="middle" x="300.5" y="232.78500000000005" font-family="Arial" font-size="12" stroke="#ffffff" stroke-width="3" fill="#5b0f00" aria-hidden="true">75.57s</text><text text-anchor="middle" x="300.5" y="232.78500000000005" font-family="Arial" font-size="12" stroke="none" stroke-width="0" fill="#5b0f00">75.57s</text></g><rect x="282.5" y="222.58500000000006" width="36" height="12" stroke="none" stroke-width="0" fill-opacity="0" fill="#ffffff"></rect></g></g><g><g><rect x="354.5" y="176.5" width="41" height="14" stroke="none" stroke-width="0" fill-opacity="0" fill="#ffffff"></rect><g><text text-anchor="middle" x="374.5" y="187.28" font-family="Arial" font-size="12" stroke="#ffffff" stroke-width="3" fill="#5b0f00" aria-hidden="true">80.36s</text><text text-anchor="middle" x="374.5" y="187.28" font-family="Arial" font-size="12" stroke="none" stroke-width="0" fill="#5b0f00">80.36s</text></g><rect x="356.5" y="177.08" width="36" height="12" stroke="none" stroke-width="0" fill-opacity="0" fill="#ffffff"></rect></g></g><g><g><rect x="428.5" y="100.5" width="41" height="14" stroke="none" stroke-width="0" fill-opacity="0" fill="#ffffff"></rect><g><text text-anchor="middle" x="448.5" y="111.94499999999995" font-family="Arial" font-size="12" stroke="#ffffff" stroke-width="3" fill="#5b0f00" aria-hidden="true">88.29s</text><text text-anchor="middle" x="448.5" y="111.94499999999995" font-family="Arial" font-size="12" stroke="none" stroke-width="0" fill="#5b0f00">88.29s</text></g><rect x="430.5" y="101.74499999999995" width="36" height="12" stroke="none" stroke-width="0" fill-opacity="0" fill="#ffffff"></rect></g></g></g></g><g><g><text text-anchor="middle" x="45.7" y="185.5" font-family="Arial" font-size="12" font-style="italic" transform="rotate(-90 45.7 185.5)" stroke="none" stroke-width="0" fill="#222222"># missing call-graph edges</text></g></g><g></g></svg>