<svg width="600" height="371" aria-label="A chart." style="overflow: hidden;"><defs id="defs"><clipPath id="_ABSTRACT_RENDERER_ID_32"><rect x="115" y="71" width="371" height="229"></rect></clipPath></defs><rect x="0" y="0" width="600" height="371" stroke="none" stroke-width="0" fill="#ffffff"></rect><g><text text-anchor="start" x="115" y="49.6" font-family="Arial" font-size="16" font-weight="bold" stroke="none" stroke-width="0" fill="#000000">pmd</text></g><g><rect x="115" y="71" width="371" height="229" stroke="none" stroke-width="0" fill-opacity="0" fill="#ffffff"></rect><g clip-path="url(#_ABSTRACT_RENDERER_ID_32)"><g><rect x="115" y="299" width="371" height="1" stroke="none" stroke-width="0" fill="#cccccc"></rect><rect x="115" y="242" width="371" height="1" stroke="none" stroke-width="0" fill="#cccccc"></rect><rect x="115" y="185" width="371" height="1" stroke="none" stroke-width="0" fill="#cccccc"></rect><rect x="115" y="128" width="371" height="1" stroke="none" stroke-width="0" fill="#cccccc"></rect><rect x="115" y="71" width="371" height="1" stroke="none" stroke-width="0" fill="#cccccc"></rect><rect x="115" y="299" width="371" height="1" stroke="none" stroke-width="0" fill="#cccccc"></rect><rect x="115" y="242" width="371" height="1" stroke="none" stroke-width="0" fill="#cccccc"></rect><rect x="115" y="185" width="371" height="1" stroke="none" stroke-width="0" fill="#cccccc"></rect><rect x="115" y="128" width="371" height="1" stroke="none" stroke-width="0" fill="#cccccc"></rect><rect x="115" y="71" width="371" height="1" stroke="none" stroke-width="0" fill="#cccccc"></rect></g><g><g><rect x="115" y="98.1" width="74" height="201.4" stroke="none" stroke-width="0" fill-opacity="0" fill="#1155cc"></rect><path d="M115,98.1L189,98.1" stroke="#1155cc" stroke-width="2" fill-opacity="1" fill="none"></path></g><g><rect x="189" y="98.1" width="74" height="201.4" stroke="none" stroke-width="0" fill-opacity="0" fill="#1155cc"></rect><path d="M189,98.1L189,98.1L263,98.1" stroke="#1155cc" stroke-width="2" fill-opacity="1" fill="none"></path></g><g><rect x="263" y="98.1" width="74" height="201.4" stroke="none" stroke-width="0" fill-opacity="0" fill="#1155cc"></rect><path d="M263,98.1L263,98.1L337,98.1" stroke="#1155cc" stroke-width="2" fill-opacity="1" fill="none"></path></g><g><rect x="337" y="98.1" width="74" height="201.4" stroke="none" stroke-width="0" fill-opacity="0" fill="#1155cc"></rect><path d="M337,98.1L337,98.1L411,98.1" stroke="#1155cc" stroke-width="2" fill-opacity="1" fill="none"></path></g><g><rect x="411" y="98.1" width="74" height="201.4" stroke="none" stroke-width="0" fill-opacity="0" fill="#1155cc"></rect><path d="M411,98.1L411,98.1L485,98.1" stroke="#1155cc" stroke-width="2" fill-opacity="1" fill="none"></path></g></g><g><rect x="130" y="99" width="22" height="200" stroke="none" stroke-width="0" fill="#1155cc"></rect><rect x="204" y="99" width="22" height="200" stroke="none" stroke-width="0" fill="#1155cc"></rect><rect x="278" y="202" width="22" height="97" stroke="none" stroke-width="0" fill="#1155cc"></rect><rect x="352" y="202" width="22" height="97" stroke="none" stroke-width="0" fill="#1155cc"></rect><rect x="426" y="202" width="22" height="97" stroke="none" stroke-width="0" fill="#1155cc"></rect><rect x="153" y="197" width="22" height="102" stroke="none" stroke-width="0" fill="#ea9999"></rect><rect x="227" y="201" width="22" height="98" stroke="none" stroke-width="0" fill="#ea9999"></rect><rect x="301" y="219" width="22" height="80" stroke="none" stroke-width="0" fill="#ea9999"></rect><rect x="375" y="219" width="22" height="80" stroke="none" stroke-width="0" fill="#ea9999"></rect><rect x="449" y="219" width="22" height="80" stroke="none" stroke-width="0" fill="#ea9999"></rect></g><g><rect x="115" y="299" width="371" height="1" stroke="none" stroke-width="0" fill="#333333"></rect><rect x="115" y="299" width="371" height="1" stroke="none" stroke-width="0" fill="#333333"></rect></g><g><path d="M152.5,196.14L226.5,196.14L300.5,196.14L374.5,196.14L448.5,196.14" stroke="#ea9999" stroke-width="2" fill-opacity="1" fill="none"></path><path d="M152.5,106.555L226.5,276.3751L300.5,275.3928L374.5,273.774L448.5,270.9297" stroke="#5b0f00" stroke-width="2" fill-opacity="1" fill="none"></path></g><g><rect x="141" y="99" width="1" height="0" stroke="none" stroke-width="0" fill="#999999"></rect><rect x="215" y="99" width="1" height="0" stroke="none" stroke-width="0" fill="#999999"></rect><rect x="289" y="202" width="1" height="0" stroke="none" stroke-width="0" fill="#999999"></rect><rect x="363" y="202" width="1" height="0" stroke="none" stroke-width="0" fill="#999999"></rect><rect x="437" y="202" width="1" height="0" stroke="none" stroke-width="0" fill="#999999"></rect><rect x="164" y="197" width="1" height="0" stroke="none" stroke-width="0" fill="#999999"></rect><rect x="238" y="201" width="1" height="0" stroke="none" stroke-width="0" fill="#999999"></rect><rect x="312" y="219" width="1" height="0" stroke="none" stroke-width="0" fill="#999999"></rect><rect x="386" y="219" width="1" height="0" stroke="none" stroke-width="0" fill="#999999"></rect><rect x="460" y="219" width="1" height="0" stroke="none" stroke-width="0" fill="#999999"></rect><rect x="152.5" y="94.555" width="1" height="12" stroke="none" stroke-width="0" fill="#999999"></rect><rect x="226.5" y="264.3751" width="1" height="12" stroke="none" stroke-width="0" fill="#999999"></rect><rect x="300.5" y="263.3928" width="1" height="12" stroke="none" stroke-width="0" fill="#999999"></rect><rect x="374.5" y="261.774" width="1" height="12" stroke="none" stroke-width="0" fill="#999999"></rect><rect x="448.5" y="258.9297" width="1" height="12" stroke="none" stroke-width="0" fill="#999999"></rect></g></g><g><circle cx="152.5" cy="106.555" r="2" stroke="none" stroke-width="0" fill="#5b0f00"></circle><circle cx="226.5" cy="276.3751" r="2" stroke="none" stroke-width="0" fill="#5b0f00"></circle><circle cx="300.5" cy="275.3928" r="2" stroke="none" stroke-width="0" fill="#5b0f00"></circle><circle cx="374.5" cy="273.774" r="2" stroke="none" stroke-width="0" fill="#5b0f00"></circle><circle cx="448.5" cy="270.9297" r="2" stroke="none" stroke-width="0" fill="#5b0f00"></circle></g><g><g><text text-anchor="middle" x="152.5" y="317.2" font-family="Arial" font-size="12" stroke="none" stroke-width="0" fill="#222222">elf</text></g><g><text text-anchor="middle" x="226.5" y="333.2" font-family="Arial" font-size="12" stroke="none" stroke-width="0" fill="#222222">no substring</text></g><g><text text-anchor="middle" x="300.5" y="317.2" font-family="Arial" font-size="12" stroke="none" stroke-width="0" fill="#222222">substring</text></g><g><text text-anchor="middle" x="374.5" y="333.2" font-family="Arial" font-size="12" stroke="none" stroke-width="0" fill="#222222">+invent</text></g><g><text text-anchor="middle" x="448.5" y="317.2" font-family="Arial" font-size="12" stroke="none" stroke-width="0" fill="#222222">+backwards</text></g><g><text text-anchor="end" x="103" y="303.7" font-family="Arial" font-size="12" stroke="none" stroke-width="0" fill="#444444">0</text></g><g><text text-anchor="end" x="103" y="246.7" font-family="Arial" font-size="12" stroke="none" stroke-width="0" fill="#444444">150</text></g><g><text text-anchor="end" x="103" y="189.7" font-family="Arial" font-size="12" stroke="none" stroke-width="0" fill="#444444">300</text></g><g><text text-anchor="end" x="103" y="132.7" font-family="Arial" font-size="12" stroke="none" stroke-width="0" fill="#444444">450</text></g><g><text text-anchor="end" x="103" y="75.7" font-family="Arial" font-size="12" stroke="none" stroke-width="0" fill="#444444">600</text></g><g><text text-anchor="start" x="498" y="303.7" font-family="Arial" font-size="12" stroke="none" stroke-width="0" fill="#444444">0 sec</text></g><g><text text-anchor="start" x="498" y="246.7" font-family="Arial" font-size="12" stroke="none" stroke-width="0" fill="#444444">300 sec</text></g><g><text text-anchor="start" x="498" y="189.7" font-family="Arial" font-size="12" stroke="none" stroke-width="0" fill="#444444">600 sec</text></g><g><text text-anchor="start" x="498" y="132.7" font-family="Arial" font-size="12" stroke="none" stroke-width="0" fill="#444444">900 sec</text></g><g><text text-anchor="start" x="498" y="75.7" font-family="Arial" font-size="12" stroke="none" stroke-width="0" fill="#444444">1200 sec</text></g></g><g><g><g><text text-anchor="middle" x="141" y="111.2" font-family="Arial" font-size="12" stroke="none" stroke-width="0" fill="#ffffff">530</text><rect x="131" y="101" width="20" height="12" stroke="none" stroke-width="0" fill-opacity="0" fill="#ffffff"></rect></g></g><g><g><text text-anchor="middle" x="215" y="111.2" font-family="Arial" font-size="12" stroke="none" stroke-width="0" fill="#ffffff">530</text><rect x="205" y="101" width="20" height="12" stroke="none" stroke-width="0" fill-opacity="0" fill="#ffffff"></rect></g></g><g><g><text text-anchor="middle" x="289" y="214.2" font-family="Arial" font-size="12" stroke="none" stroke-width="0" fill="#ffffff">258</text><rect x="279" y="204" width="20" height="12" stroke="none" stroke-width="0" fill-opacity="0" fill="#ffffff"></rect></g></g><g><g><text text-anchor="middle" x="363" y="214.2" font-family="Arial" font-size="12" stroke="none" stroke-width="0" fill="#ffffff">258</text><rect x="353" y="204" width="20" height="12" stroke="none" stroke-width="0" fill-opacity="0" fill="#ffffff"></rect></g></g><g><g><text text-anchor="middle" x="437" y="214.2" font-family="Arial" font-size="12" stroke="none" stroke-width="0" fill="#ffffff">258</text><rect x="427" y="204" width="20" height="12" stroke="none" stroke-width="0" fill-opacity="0" fill="#ffffff"></rect></g></g><g><g><text text-anchor="middle" x="164" y="209.2" font-family="Arial" font-size="12" stroke="none" stroke-width="0" fill="#404040">272</text><rect x="154" y="199" width="20" height="12" stroke="none" stroke-width="0" fill-opacity="0" fill="#ffffff"></rect></g></g><g><g><text text-anchor="middle" x="238" y="213.2" font-family="Arial" font-size="12" stroke="none" stroke-width="0" fill="#404040">261</text><rect x="228" y="203" width="20" height="12" stroke="none" stroke-width="0" fill-opacity="0" fill="#ffffff"></rect></g></g><g><g><text text-anchor="middle" x="312" y="231.2" font-family="Arial" font-size="12" stroke="none" stroke-width="0" fill="#404040">214</text><rect x="302" y="221" width="20" height="12" stroke="none" stroke-width="0" fill-opacity="0" fill="#ffffff"></rect></g></g><g><g><text text-anchor="middle" x="386" y="231.2" font-family="Arial" font-size="12" stroke="none" stroke-width="0" fill="#404040">214</text><rect x="376" y="221" width="20" height="12" stroke="none" stroke-width="0" fill-opacity="0" fill="#ffffff"></rect></g></g><g><g><text text-anchor="middle" x="460" y="231.2" font-family="Arial" font-size="12" stroke="none" stroke-width="0" fill="#404040">214</text><rect x="450" y="221" width="20" height="12" stroke="none" stroke-width="0" fill-opacity="0" fill="#ffffff"></rect></g></g><g><g><rect x="125.5" y="81.5" width="55" height="14" stroke="none" stroke-width="0" fill-opacity="0" fill="#ffffff"></rect><g><text text-anchor="middle" x="152.5" y="92.75500000000001" font-family="Arial" font-size="12" stroke="#ffffff" stroke-width="3" fill="#5b0f00" aria-hidden="true">1015.50s</text><text text-anchor="middle" x="152.5" y="92.75500000000001" font-family="Arial" font-size="12" stroke="none" stroke-width="0" fill="#5b0f00">1015.50s</text></g><rect x="128" y="82.555" width="49" height="12" stroke="none" stroke-width="0" fill-opacity="0" fill="#ffffff"></rect></g></g><g><g><rect x="202.5" y="251.5" width="49" height="14" stroke="none" stroke-width="0" fill-opacity="0" fill="#ffffff"></rect><g><text text-anchor="middle" x="226.5" y="262.57509999999996" font-family="Arial" font-size="12" stroke="#ffffff" stroke-width="3" fill="#5b0f00" aria-hidden="true">121.71s</text><text text-anchor="middle" x="226.5" y="262.57509999999996" font-family="Arial" font-size="12" stroke="none" stroke-width="0" fill="#5b0f00">121.71s</text></g><rect x="205" y="252.37509999999997" width="43" height="12" stroke="none" stroke-width="0" fill-opacity="0" fill="#ffffff"></rect></g></g><g><g><rect x="276.5" y="250.5" width="49" height="14" stroke="none" stroke-width="0" fill-opacity="0" fill="#ffffff"></rect><g><text text-anchor="middle" x="300.5" y="261.5928" font-family="Arial" font-size="12" stroke="#ffffff" stroke-width="3" fill="#5b0f00" aria-hidden="true">126.88s</text><text text-anchor="middle" x="300.5" y="261.5928" font-family="Arial" font-size="12" stroke="none" stroke-width="0" fill="#5b0f00">126.88s</text></g><rect x="279" y="251.39280000000002" width="43" height="12" stroke="none" stroke-width="0" fill-opacity="0" fill="#ffffff"></rect></g></g><g><g><rect x="350.5" y="248.5" width="49" height="14" stroke="none" stroke-width="0" fill-opacity="0" fill="#ffffff"></rect><g><text text-anchor="middle" x="374.5" y="259.974" font-family="Arial" font-size="12" stroke="#ffffff" stroke-width="3" fill="#5b0f00" aria-hidden="true">135.40s</text><text text-anchor="middle" x="374.5" y="259.974" font-family="Arial" font-size="12" stroke="none" stroke-width="0" fill="#5b0f00">135.40s</text></g><rect x="353" y="249.774" width="43" height="12" stroke="none" stroke-width="0" fill-opacity="0" fill="#ffffff"></rect></g></g><g><g><rect x="424.5" y="245.5" width="49" height="14" stroke="none" stroke-width="0" fill-opacity="0" fill="#ffffff"></rect><g><text text-anchor="middle" x="448.5" y="257.1297" font-family="Arial" font-size="12" stroke="#ffffff" stroke-width="3" fill="#5b0f00" aria-hidden="true">150.37s</text><text text-anchor="middle" x="448.5" y="257.1297" font-family="Arial" font-size="12" stroke="none" stroke-width="0" fill="#5b0f00">150.37s</text></g><rect x="427" y="246.92970000000003" width="43" height="12" stroke="none" stroke-width="0" fill-opacity="0" fill="#ffffff"></rect></g></g></g></g><g><g><text text-anchor="middle" x="45.7" y="185.5" font-family="Arial" font-size="12" font-style="italic" transform="rotate(-90 45.7 185.5)" stroke="none" stroke-width="0" fill="#222222"># missing call-graph edges</text></g></g><g></g></svg>