<svg width="600" height="371" aria-label="A chart." style="overflow: hidden;"><defs id="defs"><clipPath id="_ABSTRACT_RENDERER_ID_274"><rect x="115" y="71" width="371" height="229"></rect></clipPath></defs><rect x="0" y="0" width="600" height="371" stroke="none" stroke-width="0" fill="#ffffff"></rect><g><g><text text-anchor="start" x="115" y="49.6" font-family="Arial" font-size="16" font-weight="bold" stroke="#ffffff" stroke-width="3" fill="#000000" aria-hidden="true">xalan</text><text text-anchor="start" x="115" y="49.6" font-family="Arial" font-size="16" font-weight="bold" stroke="none" stroke-width="0" fill="#000000">xalan</text></g></g><g><rect x="115" y="71" width="371" height="229" stroke="none" stroke-width="0" fill-opacity="0" fill="#ffffff"></rect><g clip-path="url(#_ABSTRACT_RENDERER_ID_274)"><g><rect x="115" y="299" width="371" height="1" stroke="none" stroke-width="0" fill="#cccccc"></rect><rect x="115" y="242" width="371" height="1" stroke="none" stroke-width="0" fill="#cccccc"></rect><rect x="115" y="185" width="371" height="1" stroke="none" stroke-width="0" fill="#cccccc"></rect><rect x="115" y="128" width="371" height="1" stroke="none" stroke-width="0" fill="#cccccc"></rect><rect x="115" y="71" width="371" height="1" stroke="none" stroke-width="0" fill="#cccccc"></rect><rect x="115" y="299" width="371" height="1" stroke="none" stroke-width="0" fill="#cccccc"></rect><rect x="115" y="242" width="371" height="1" stroke="none" stroke-width="0" fill="#cccccc"></rect><rect x="115" y="185" width="371" height="1" stroke="none" stroke-width="0" fill="#cccccc"></rect><rect x="115" y="128" width="371" height="1" stroke="none" stroke-width="0" fill="#cccccc"></rect><rect x="115" y="71" width="371" height="1" stroke="none" stroke-width="0" fill="#cccccc"></rect></g><g><g><path d="M152.5,299.5L152.5,176.38L226.5,176.38L300.5,176.38L374.5,176.38L448.5,176.38L448.5,299.5Z" stroke="none" stroke-width="0" fill-opacity="0.3" fill="#ea9999"></path></g></g><g><g><rect x="115" y="119.38000000000002" width="74" height="180.11999999999998" stroke="none" stroke-width="0" fill-opacity="0.3" fill="#6d9eeb"></rect><path d="M115,119.38000000000002L189,119.38000000000002" stroke="#6d9eeb" stroke-width="2" fill-opacity="1" fill="none"></path></g><g><rect x="189" y="119.38000000000002" width="74" height="180.11999999999998" stroke="none" stroke-width="0" fill-opacity="0.3" fill="#6d9eeb"></rect><path d="M189,119.38000000000002L189,119.38000000000002L263,119.38000000000002" stroke="#6d9eeb" stroke-width="2" fill-opacity="1" fill="none"></path></g><g><rect x="263" y="119.38000000000002" width="74" height="180.11999999999998" stroke="none" stroke-width="0" fill-opacity="0.3" fill="#6d9eeb"></rect><path d="M263,119.38000000000002L263,119.38000000000002L337,119.38000000000002" stroke="#6d9eeb" stroke-width="2" fill-opacity="1" fill="none"></path></g><g><rect x="337" y="119.38000000000002" width="74" height="180.11999999999998" stroke="none" stroke-width="0" fill-opacity="0.3" fill="#6d9eeb"></rect><path d="M337,119.38000000000002L337,119.38000000000002L411,119.38000000000002" stroke="#6d9eeb" stroke-width="2" fill-opacity="1" fill="none"></path></g><g><rect x="411" y="119.38000000000002" width="74" height="180.11999999999998" stroke="none" stroke-width="0" fill-opacity="0.3" fill="#6d9eeb"></rect><path d="M411,119.38000000000002L411,119.38000000000002L485,119.38000000000002" stroke="#6d9eeb" stroke-width="2" fill-opacity="1" fill="none"></path></g></g><g><rect x="130" y="120" width="22" height="179" stroke="none" stroke-width="0" fill="#6d9eeb"></rect><rect x="204" y="148" width="22" height="151" stroke="none" stroke-width="0" fill="#6d9eeb"></rect><rect x="278" y="234" width="22" height="65" stroke="none" stroke-width="0" fill="#6d9eeb"></rect><rect x="352" y="234" width="22" height="65" stroke="none" stroke-width="0" fill="#6d9eeb"></rect><rect x="426" y="234" width="22" height="65" stroke="none" stroke-width="0" fill="#6d9eeb"></rect><rect x="153" y="177" width="22" height="122" stroke="none" stroke-width="0" fill="#ea9999"></rect><rect x="227" y="222" width="22" height="77" stroke="none" stroke-width="0" fill="#ea9999"></rect><rect x="301" y="251" width="22" height="48" stroke="none" stroke-width="0" fill="#ea9999"></rect><rect x="375" y="251" width="22" height="48" stroke="none" stroke-width="0" fill="#ea9999"></rect><rect x="449" y="256" width="22" height="43" stroke="none" stroke-width="0" fill="#ea9999"></rect></g><g><rect x="115" y="299" width="371" height="1" stroke="none" stroke-width="0" fill="#333333"></rect><rect x="115" y="299" width="371" height="1" stroke="none" stroke-width="0" fill="#333333"></rect></g><g><path d="M152.5,176.38L226.5,176.38L300.5,176.38L374.5,176.38L448.5,176.38" stroke="#ea9999" stroke-width="2" fill-opacity="1" fill="none"></path><path d="M152.5,103.71069999999997L226.5,270.28408L300.5,264.23296L374.5,261.51063999999997L448.5,170.25364" stroke="#980000" stroke-width="2" fill-opacity="1" fill="none"></path></g><g><rect x="141" y="120" width="1" height="0" stroke="none" stroke-width="0" fill="#999999"></rect><rect x="215" y="148" width="1" height="0" stroke="none" stroke-width="0" fill="#999999"></rect><rect x="289" y="234" width="1" height="0" stroke="none" stroke-width="0" fill="#999999"></rect><rect x="363" y="234" width="1" height="0" stroke="none" stroke-width="0" fill="#999999"></rect><rect x="437" y="234" width="1" height="0" stroke="none" stroke-width="0" fill="#999999"></rect><rect x="164" y="177" width="1" height="0" stroke="none" stroke-width="0" fill="#999999"></rect><rect x="238" y="222" width="1" height="0" stroke="none" stroke-width="0" fill="#999999"></rect><rect x="312" y="251" width="1" height="0" stroke="none" stroke-width="0" fill="#999999"></rect><rect x="386" y="251" width="1" height="0" stroke="none" stroke-width="0" fill="#999999"></rect><rect x="460" y="256" width="1" height="0" stroke="none" stroke-width="0" fill="#999999"></rect><rect x="152.5" y="91.71069999999997" width="1" height="12" stroke="none" stroke-width="0" fill="#999999"></rect><rect x="226.5" y="258.28408" width="1" height="12" stroke="none" stroke-width="0" fill="#999999"></rect><rect x="300.5" y="252.23296" width="1" height="12" stroke="none" stroke-width="0" fill="#999999"></rect><rect x="374.5" y="249.51063999999997" width="1" height="12" stroke="none" stroke-width="0" fill="#999999"></rect><rect x="448.5" y="158.25364" width="1" height="12" stroke="none" stroke-width="0" fill="#999999"></rect></g></g><g><circle cx="152.5" cy="103.71069999999997" r="2" stroke="none" stroke-width="0" fill="#980000"></circle><circle cx="226.5" cy="270.28408" r="2" stroke="none" stroke-width="0" fill="#980000"></circle><circle cx="300.5" cy="264.23296" r="2" stroke="none" stroke-width="0" fill="#980000"></circle><circle cx="374.5" cy="261.51063999999997" r="2" stroke="none" stroke-width="0" fill="#980000"></circle><circle cx="448.5" cy="170.25364" r="2" stroke="none" stroke-width="0" fill="#980000"></circle></g><g><g><g><text text-anchor="middle" x="152.5" y="317.2" font-family="Arial" font-size="12" stroke="#ffffff" stroke-width="3" fill="#222222" aria-hidden="true">elf</text><text text-anchor="middle" x="152.5" y="317.2" font-family="Arial" font-size="12" stroke="none" stroke-width="0" fill="#222222">elf</text></g></g><g><g><text text-anchor="middle" x="226.5" y="333.2" font-family="Arial" font-size="12" stroke="#ffffff" stroke-width="3" fill="#222222" aria-hidden="true">no substring</text><text text-anchor="middle" x="226.5" y="333.2" font-family="Arial" font-size="12" stroke="none" stroke-width="0" fill="#222222">no substring</text></g></g><g><g><text text-anchor="middle" x="300.5" y="317.2" font-family="Arial" font-size="12" stroke="#ffffff" stroke-width="3" fill="#222222" aria-hidden="true">substring</text><text text-anchor="middle" x="300.5" y="317.2" font-family="Arial" font-size="12" stroke="none" stroke-width="0" fill="#222222">substring</text></g></g><g><g><text text-anchor="middle" x="374.5" y="333.2" font-family="Arial" font-size="12" stroke="#ffffff" stroke-width="3" fill="#222222" aria-hidden="true">+invent</text><text text-anchor="middle" x="374.5" y="333.2" font-family="Arial" font-size="12" stroke="none" stroke-width="0" fill="#222222">+invent</text></g></g><g><g><text text-anchor="middle" x="448.5" y="317.2" font-family="Arial" font-size="12" stroke="#ffffff" stroke-width="3" fill="#222222" aria-hidden="true">+backwards</text><text text-anchor="middle" x="448.5" y="317.2" font-family="Arial" font-size="12" stroke="none" stroke-width="0" fill="#222222">+backwards</text></g></g><g><g><text text-anchor="end" x="103" y="303.7" font-family="Arial" font-size="12" stroke="#ffffff" stroke-width="3" fill="#444444" aria-hidden="true">0</text><text text-anchor="end" x="103" y="303.7" font-family="Arial" font-size="12" stroke="none" stroke-width="0" fill="#444444">0</text></g></g><g><g><text text-anchor="end" x="103" y="246.7" font-family="Arial" font-size="12" stroke="#ffffff" stroke-width="3" fill="#444444" aria-hidden="true">50</text><text text-anchor="end" x="103" y="246.7" font-family="Arial" font-size="12" stroke="none" stroke-width="0" fill="#444444">50</text></g></g><g><g><text text-anchor="end" x="103" y="189.7" font-family="Arial" font-size="12" stroke="#ffffff" stroke-width="3" fill="#444444" aria-hidden="true">100</text><text text-anchor="end" x="103" y="189.7" font-family="Arial" font-size="12" stroke="none" stroke-width="0" fill="#444444">100</text></g></g><g><g><text text-anchor="end" x="103" y="132.70000000000002" font-family="Arial" font-size="12" stroke="#ffffff" stroke-width="3" fill="#444444" aria-hidden="true">150</text><text text-anchor="end" x="103" y="132.70000000000002" font-family="Arial" font-size="12" stroke="none" stroke-width="0" fill="#444444">150</text></g></g><g><g><text text-anchor="end" x="103" y="75.70000000000003" font-family="Arial" font-size="12" stroke="#ffffff" stroke-width="3" fill="#444444" aria-hidden="true">200</text><text text-anchor="end" x="103" y="75.70000000000003" font-family="Arial" font-size="12" stroke="none" stroke-width="0" fill="#444444">200</text></g></g><g><g><text text-anchor="start" x="498" y="303.7" font-family="Arial" font-size="12" stroke="#ffffff" stroke-width="3" fill="#444444" aria-hidden="true">0 sec</text><text text-anchor="start" x="498" y="303.7" font-family="Arial" font-size="12" stroke="none" stroke-width="0" fill="#444444">0 sec</text></g></g><g><g><text text-anchor="start" x="498" y="246.7" font-family="Arial" font-size="12" stroke="#ffffff" stroke-width="3" fill="#444444" aria-hidden="true">500 sec</text><text text-anchor="start" x="498" y="246.7" font-family="Arial" font-size="12" stroke="none" stroke-width="0" fill="#444444">500 sec</text></g></g><g><g><text text-anchor="start" x="498" y="189.7" font-family="Arial" font-size="12" stroke="#ffffff" stroke-width="3" fill="#444444" aria-hidden="true">1000 sec</text><text text-anchor="start" x="498" y="189.7" font-family="Arial" font-size="12" stroke="none" stroke-width="0" fill="#444444">1000 sec</text></g></g><g><g><text text-anchor="start" x="498" y="132.7" font-family="Arial" font-size="12" stroke="#ffffff" stroke-width="3" fill="#444444" aria-hidden="true">1500 sec</text><text text-anchor="start" x="498" y="132.7" font-family="Arial" font-size="12" stroke="none" stroke-width="0" fill="#444444">1500 sec</text></g></g><g><g><text text-anchor="start" x="498" y="75.7" font-family="Arial" font-size="12" stroke="#ffffff" stroke-width="3" fill="#444444" aria-hidden="true">2000 sec</text><text text-anchor="start" x="498" y="75.7" font-family="Arial" font-size="12" stroke="none" stroke-width="0" fill="#444444">2000 sec</text></g></g></g><g><g><g><text text-anchor="middle" x="141" y="132.2" font-family="Arial" font-size="12" stroke="none" stroke-width="0" fill="#404040">158</text><rect x="131" y="122" width="20" height="12" stroke="none" stroke-width="0" fill-opacity="0" fill="#ffffff"></rect></g></g><g><g><text text-anchor="middle" x="215" y="160.2" font-family="Arial" font-size="12" stroke="none" stroke-width="0" fill="#404040">133</text><rect x="205" y="150" width="20" height="12" stroke="none" stroke-width="0" fill-opacity="0" fill="#ffffff"></rect></g></g><g><g><text text-anchor="middle" x="289" y="246.2" font-family="Arial" font-size="12" stroke="none" stroke-width="0" fill="#404040">58</text><rect x="282.5" y="236" width="13" height="12" stroke="none" stroke-width="0" fill-opacity="0" fill="#ffffff"></rect></g></g><g><g><text text-anchor="middle" x="363" y="246.2" font-family="Arial" font-size="12" stroke="none" stroke-width="0" fill="#404040">58</text><rect x="356.5" y="236" width="13" height="12" stroke="none" stroke-width="0" fill-opacity="0" fill="#ffffff"></rect></g></g><g><g><text text-anchor="middle" x="437" y="246.2" font-family="Arial" font-size="12" stroke="none" stroke-width="0" fill="#404040">58</text><rect x="430.5" y="236" width="13" height="12" stroke="none" stroke-width="0" fill-opacity="0" fill="#ffffff"></rect></g></g><g><g><text text-anchor="middle" x="164" y="189.2" font-family="Arial" font-size="12" stroke="none" stroke-width="0" fill="#404040">108</text><rect x="154" y="179" width="20" height="12" stroke="none" stroke-width="0" fill-opacity="0" fill="#ffffff"></rect></g></g><g><g><text text-anchor="middle" x="238" y="234.2" font-family="Arial" font-size="12" stroke="none" stroke-width="0" fill="#404040">68</text><rect x="231.5" y="224" width="13" height="12" stroke="none" stroke-width="0" fill-opacity="0" fill="#ffffff"></rect></g></g><g><g><text text-anchor="middle" x="312" y="263.2" font-family="Arial" font-size="12" stroke="none" stroke-width="0" fill="#404040">43</text><rect x="305.5" y="253" width="13" height="12" stroke="none" stroke-width="0" fill-opacity="0" fill="#ffffff"></rect></g></g><g><g><text text-anchor="middle" x="386" y="263.2" font-family="Arial" font-size="12" stroke="none" stroke-width="0" fill="#404040">43</text><rect x="379.5" y="253" width="13" height="12" stroke="none" stroke-width="0" fill-opacity="0" fill="#ffffff"></rect></g></g><g><g><text text-anchor="middle" x="460" y="268.2" font-family="Arial" font-size="12" stroke="none" stroke-width="0" fill="#404040">39</text><rect x="453.5" y="258" width="13" height="12" stroke="none" stroke-width="0" fill-opacity="0" fill="#ffffff"></rect></g></g><g><g><rect x="125.5" y="78.5" width="55" height="14" stroke="none" stroke-width="0" fill-opacity="0" fill="#ffffff"></rect><g><text text-anchor="middle" x="152.5" y="89.91069999999998" font-family="Arial" font-size="12" stroke="#ffffff" stroke-width="3" fill="#980000" aria-hidden="true">1717.45s</text><text text-anchor="middle" x="152.5" y="89.91069999999998" font-family="Arial" font-size="12" stroke="none" stroke-width="0" fill="#980000">1717.45s</text></g><rect x="128" y="79.71069999999997" width="49" height="12" stroke="none" stroke-width="0" fill-opacity="0" fill="#ffffff"></rect></g></g><g><g><rect x="202.5" y="245.5" width="49" height="14" stroke="none" stroke-width="0" fill-opacity="0" fill="#ffffff"></rect><g><text text-anchor="middle" x="226.5" y="256.48408" font-family="Arial" font-size="12" stroke="#ffffff" stroke-width="3" fill="#980000" aria-hidden="true">256.28s</text><text text-anchor="middle" x="226.5" y="256.48408" font-family="Arial" font-size="12" stroke="none" stroke-width="0" fill="#980000">256.28s</text></g><rect x="205" y="246.28408000000002" width="43" height="12" stroke="none" stroke-width="0" fill-opacity="0" fill="#ffffff"></rect></g></g><g><g><rect x="276.5" y="239.5" width="49" height="14" stroke="none" stroke-width="0" fill-opacity="0" fill="#ffffff"></rect><g><text text-anchor="middle" x="300.5" y="250.43295999999998" font-family="Arial" font-size="12" stroke="#ffffff" stroke-width="3" fill="#980000" aria-hidden="true">309.36s</text><text text-anchor="middle" x="300.5" y="250.43295999999998" font-family="Arial" font-size="12" stroke="none" stroke-width="0" fill="#980000">309.36s</text></g><rect x="279" y="240.23296" width="43" height="12" stroke="none" stroke-width="0" fill-opacity="0" fill="#ffffff"></rect></g></g><g><g><rect x="350.5" y="236.5" width="49" height="14" stroke="none" stroke-width="0" fill-opacity="0" fill="#ffffff"></rect><g><text text-anchor="middle" x="374.5" y="247.71063999999996" font-family="Arial" font-size="12" stroke="#ffffff" stroke-width="3" fill="#980000" aria-hidden="true">333.24s</text><text text-anchor="middle" x="374.5" y="247.71063999999996" font-family="Arial" font-size="12" stroke="none" stroke-width="0" fill="#980000">333.24s</text></g><rect x="353" y="237.51063999999997" width="43" height="12" stroke="none" stroke-width="0" fill-opacity="0" fill="#ffffff"></rect></g></g><g><g><rect x="421.5" y="145.5" width="55" height="14" stroke="none" stroke-width="0" fill-opacity="0" fill="#ffffff"></rect><g><text text-anchor="middle" x="448.5" y="156.45363999999998" font-family="Arial" font-size="12" stroke="#ffffff" stroke-width="3" fill="#980000" aria-hidden="true">1133.74s</text><text text-anchor="middle" x="448.5" y="156.45363999999998" font-family="Arial" font-size="12" stroke="none" stroke-width="0" fill="#980000">1133.74s</text></g><rect x="424" y="146.25364" width="49" height="12" stroke="none" stroke-width="0" fill-opacity="0" fill="#ffffff"></rect></g></g></g></g><g><g><g><text text-anchor="middle" x="45.7" y="185.5" font-family="Arial" font-size="12" font-style="italic" transform="rotate(-90 45.7 185.5)" stroke="#ffffff" stroke-width="3" fill="#222222" aria-hidden="true"># missing edges</text><text text-anchor="middle" x="45.7" y="185.5" font-family="Arial" font-size="12" font-style="italic" transform="rotate(-90 45.7 185.5)" stroke="none" stroke-width="0" fill="#222222"># missing edges</text></g></g></g><g></g></svg>